<?xml version="1.0" encoding="utf-8"?>
<!-- Generator: Adobe Illustrator 19.2.1, SVG Export Plug-In . SVG Version: 6.00 Build 0)  -->
<svg version="1.1" id="Layer_1" xmlns="http://www.w3.org/2000/svg" xmlns:xlink="http://www.w3.org/1999/xlink" x="0px" y="0px"
	 viewBox="0 0 21.6 24" style="enable-background:new 0 0 21.6 24;" xml:space="preserve">
<path d="M10.8,1.3c2.1,0,3.9,2.3,3.9,5.2s-1.7,5.2-3.9,5.2S6.9,9.4,6.9,6.5S8.7,1.3,10.8,1.3 M10.8,0C8,0,5.7,2.9,5.7,6.5
	S8,13,10.8,13s5.1-2.9,5.1-6.5S13.6,0,10.8,0L10.8,0z M21.5,18c-0.2-1.4-1-2.6-2.3-3.1l-4.1-1.6c-0.4-0.2-0.8,0-1,0.4
	c-0.1,0.4,0,0.8,0.4,1l4.1,1.6c0.8,0.3,1.3,1,1.4,1.8c0.1,0.5,0,1.1,0,1.6V20c-2.7,1.6-5.9,2.5-9.3,2.5S4.3,21.6,1.6,20v-0.2
	c0-0.5,0-1.1,0-1.6c0.1-0.8,0.6-1.5,1.4-1.8l4.1-1.6c0.4-0.2,0.6-0.6,0.4-1c-0.2-0.4-0.6-0.6-1-0.4L2.4,15c-1.3,0.5-2.2,1.7-2.3,3.1
	c0,0.3-0.1,1.6-0.1,1.8v1c0.5,0.3,1,0.6,1.5,0.9c2.8,1.4,6,2.2,9.3,2.2s6.5-0.8,9.3-2.3l1.5-0.9v-1C21.6,19.6,21.5,18.4,21.5,18z"/>
</svg>
