<?xml version="1.0" encoding="utf-8"?>
<!-- Generator: Adobe Illustrator 19.2.1, SVG Export Plug-In . SVG Version: 6.00 Build 0)  -->
<svg version="1.1" id="Слой_1" xmlns="http://www.w3.org/2000/svg" xmlns:xlink="http://www.w3.org/1999/xlink" x="0px" y="0px"
	 viewBox="0 0 19.8 19.8" style="enable-background:new 0 0 19.8 19.8;" xml:space="preserve">
<style type="text/css">
	.st0{fill:#272727;}
</style>
<g id="Path_26">
	<path class="st0" d="M9.9,19.8C4.4,19.8,0,15.3,0,9.9S4.4,0,9.9,0s9.9,4.4,9.9,9.9c0,1.3-0.2,2.6-0.7,3.8l0.7,5.8l-5.3-0.8
		C13.1,19.4,11.5,19.8,9.9,19.8z M9.9,1.5c-4.6,0-8.4,3.8-8.4,8.4s3.8,8.4,8.4,8.4c1.4,0,2.9-0.4,4.1-1.1l0.2-0.1l3.8,0.6l-0.5-4.2
		l0.1-0.2c0.4-1.1,0.7-2.2,0.7-3.4C18.3,5.3,14.5,1.5,9.9,1.5z"/>
</g>
</svg>
