<svg id="Layer_1" data-name="Layer 1" xmlns="http://www.w3.org/2000/svg" viewBox="0 0 128 128"><title>eye opened_1</title><path d="M64,95Zm0,0Zm.08,0Zm-.11,0Zm.13,0c24.64,0,42.78-16.5,52-27.25C106.58,78.84,88.58,95,64.07,95ZM64,74.5A24.77,24.77,0,0,1,41.25,40l5.17-12a55.76,55.76,0,0,1,12.77-2.74l4.55-.41v0l4.62.35a57.8,57.8,0,0,1,12.82,2.49l5.38,11.92A24.74,24.74,0,0,1,64,74.5ZM119.9,57c-4.29-5.73-13.4-16.44-26.3-23.81l-2.27-1.29a73.12,73.12,0,0,1,9,5.57l3.61,2.61h0l3.71,3.37a95.7,95.7,0,0,1,13.2,14.83ZM7.38,58.18a104.86,104.86,0,0,1,13-14.25l3.71-3.37v0l3.62-2.66a76.17,76.17,0,0,1,7.91-5.1l-1.5.89c-11.85,7-20.66,16.65-26,23.49ZM91.59,15.36l-4.75,14Zm-55.92.18,5.84,13.78h0Z"/><path d="M96.32,17h0M63.7,29.83l4.27.33a52.55,52.55,0,0,1,9.6,1.65L82,41.64A19.75,19.75,0,1,1,45.85,42L50.11,32a50.18,50.18,0,0,1,9.54-1.84l4.05-.37m53.88,2.71h0M63.74,5.42a5,5,0,0,0-5,5v9.82a60.18,60.18,0,0,0-14.32,3.13l-4.14-9.78a5,5,0,0,0-9.21,3.9l4.17,9.84a81.8,81.8,0,0,0-10.5,6.56l-6.94-7.6A5,5,0,1,0,10.42,33L17,40.23A103.06,103.06,0,0,0,0,60s21.83,40,64,40c40.67,0,64-40,64-40a95.6,95.6,0,0,0-17-20.27l6.57-7.19a5,5,0,1,0-7.38-6.74l-7,7.61a77.72,77.72,0,0,0-10.36-6.34L96.33,17a5,5,0,0,0-9.47-3.22L83.64,23.2a61.92,61.92,0,0,0-14.9-3V10.42a5,5,0,0,0-5-5ZM64,79.5a29.75,29.75,0,0,0,27.12-42C103,44.31,111.49,54.1,115.89,60,108.61,69.69,90.22,90,64,90c-14.69,0-28.33-5.69-40.55-16.91A84.39,84.39,0,0,1,12.09,60.26c4.5-5.79,13-15.42,24.57-22.25A29.76,29.76,0,0,0,64,79.5Z"/></svg>