<svg id="Layer_1" data-name="Layer 1" xmlns="http://www.w3.org/2000/svg" viewBox="0 0 128 128"><title>eye closed_1</title><path d="M111.19,80.05A96.17,96.17,0,0,0,128,60S104.83,20,64,20C24.67,20,0,60,0,60A89.23,89.23,0,0,0,16.51,80.3l-6.35,7A5,5,0,0,0,17.54,94l6.71-7.35A75.44,75.44,0,0,0,34.74,93l-3.32,9.79A5,5,0,1,0,40.88,106L44,96.84a64.15,64.15,0,0,0,15,3v9.58a5,5,0,0,0,10,0V99.79a62.38,62.38,0,0,0,14.49-3l4,9.37a5,5,0,0,0,9.21-3.9l-4-9.32a77.78,77.78,0,0,0,10.73-6.59l6.49,7.11a5,5,0,1,0,7.38-6.74ZM12.07,60.24C19.57,50.51,38.42,30,64,30c26.35,0,44.68,20.33,51.91,30C108.68,69.71,90.4,90,64,90c-14.69,0-28.33-5.69-40.55-16.91A85.18,85.18,0,0,1,12.07,60.24Z"/></svg>