<svg xmlns="http://www.w3.org/2000/svg" viewBox="0 0 22 20">
  <defs>
    <style>
      .cls-1 {
        fill: #c8a480;
      }
    </style>
  </defs>
  <path id="gift" class="cls-1" d="M22,12v8a2,2,0,0,1-2,2H4a2,2,0,0,1-2-2V12a1,1,0,0,1-1-1V8A2,2,0,0,1,3,6H6.17A3,3,0,0,1,9,2a3.034,3.034,0,0,1,2.43,1.24V3.23L12,4l.57-.77v.01A3.034,3.034,0,0,1,15,2a3,3,0,0,1,2.83,4H21a2,2,0,0,1,2,2v3a1,1,0,0,1-1,1M4,20h7V12H4v8m16,0V12H13v8h7M9,4a1,1,0,1,0,1,1A1,1,0,0,0,9,4m6,0a1,1,0,1,0,1,1,1,1,0,0,0-1-1M3,8v2h8V8H3M13,8v2h8V8Z" transform="translate(-1 -2)"/>
</svg>
