<?xml version="1.0" encoding="utf-8"?>
<!-- Generator: Adobe Illustrator 19.2.1, SVG Export Plug-In . SVG Version: 6.00 Build 0)  -->
<svg version="1.1" id="Слой_1" xmlns="http://www.w3.org/2000/svg" xmlns:xlink="http://www.w3.org/1999/xlink" x="0px" y="0px"
	 viewBox="0 0 22 14" style="enable-background:new 0 0 22 14;" xml:space="preserve">
<path d="M22,6h-2V4h-2v2h-2v2h2v2h2V8h2 M7,6v2.4h4c-0.2,1-1.2,3-4,3c-2.4,0-4.3-2-4.3-4.4S4.6,2.6,7,2.6c1.4,0,2.3,0.6,2.8,1.1
	l1.9-1.8C10.5,0.7,8.9,0,7,0C3.1,0,0,3.1,0,7s3.1,7,7,7c4,0,6.7-2.8,6.7-6.8c0-0.5,0-0.8-0.1-1.2H7z"/>
</svg>
