<?xml version="1.0" encoding="utf-8"?>
<!-- Generator: Adobe Illustrator 19.2.1, SVG Export Plug-In . SVG Version: 6.00 Build 0)  -->
<svg version="1.1" id="Слой_1" xmlns="http://www.w3.org/2000/svg" xmlns:xlink="http://www.w3.org/1999/xlink" x="0px" y="0px"
	 viewBox="0 0 20 18.3" style="enable-background:new 0 0 20 18.3;" xml:space="preserve">
<path d="M14.5,2c2,0,3.5,1.5,3.5,3.5c0,2.9-3.1,5.7-7.9,10.1H10l-0.1-0.1C5.1,11.2,2,8.4,2,5.5C2,3.5,3.5,2,5.5,2
	c1.1,0,2.3,0.5,3,1.4l0.8,0.9c0.4,0.5,1.1,0.5,1.5,0l0.8-0.9C12.2,2.5,13.4,2,14.5,2 M14.5,0c-1.7,0-3.4,0.8-4.5,2.1
	C8.9,0.8,7.2,0,5.5,0C2.4,0,0,2.4,0,5.5C0,9.3,3.4,12.4,8.6,17l1.4,1.3l1.4-1.3C16.6,12.3,20,9.2,20,5.5C20,2.4,17.6,0,14.5,0
	L14.5,0z"/>
</svg>
