<?xml version="1.0" encoding="utf-8"?>
<!-- Generator: Adobe Illustrator 19.2.1, SVG Export Plug-In . SVG Version: 6.00 Build 0)  -->
<svg version="1.1" id="Слой_1" xmlns="http://www.w3.org/2000/svg" xmlns:xlink="http://www.w3.org/1999/xlink" x="0px" y="0px"
	 viewBox="0 0 20 20" style="enable-background:new 0 0 20 20;" xml:space="preserve">
<path d="M5.8,0h8.4C17.4,0,20,2.6,20,5.8v8.4c0,3.2-2.6,5.8-5.8,5.8H5.8C2.6,20,0,17.4,0,14.2V5.8C0,2.6,2.6,0,5.8,0 M5.6,2
	C3.6,2,2,3.6,2,5.6l0,0v8.8c0,2,1.6,3.6,3.6,3.6h8.8c2,0,3.6-1.6,3.6-3.6c0,0,0,0,0,0V5.6c0-2-1.6-3.6-3.6-3.6H5.6 M15.2,3.5
	c0.7,0,1.2,0.6,1.2,1.2S15.9,6,15.2,6S14,5.4,14,4.8S14.6,3.5,15.2,3.5 M10,5c2.8,0,5,2.2,5,5s-2.2,5-5,5s-5-2.2-5-5S7.2,5,10,5
	 M10,7c-1.7,0-3,1.3-3,3s1.3,3,3,3s3-1.3,3-3S11.7,7,10,7z"/>
</svg>
