<?xml version="1.0" encoding="utf-8"?>
<!-- Generator: Adobe Illustrator 19.2.1, SVG Export Plug-In . SVG Version: 6.00 Build 0)  -->
<svg version="1.1" id="Layer_1" xmlns="http://www.w3.org/2000/svg" xmlns:xlink="http://www.w3.org/1999/xlink" x="0px" y="0px"
	 viewBox="0 0 16.8 24" style="enable-background:new 0 0 16.8 24;" xml:space="preserve">
<path d="M8.4,1.5c3.8,0,6.9,3.1,6.9,6.9c0,4-4.3,10.1-6.9,13.3c-2.6-3.2-6.9-9.3-6.9-13.3C1.5,4.6,4.6,1.5,8.4,1.5 M8.4,0
	C3.8,0,0,3.8,0,8.4C0,14.7,8.4,24,8.4,24s8.4-9.3,8.4-15.6C16.8,3.8,13,0,8.4,0L8.4,0z M8.4,12.1c-2.1,0-3.8-1.7-3.8-3.8
	s1.7-3.8,3.8-3.8s3.8,1.7,3.8,3.8S10.5,12.1,8.4,12.1z M8.4,6.1c-1.2,0-2.3,1-2.3,2.3s1,2.3,2.3,2.3s2.3-1,2.3-2.3S9.6,6.1,8.4,6.1z
	"/>
</svg>
