<svg xmlns="http://www.w3.org/2000/svg" viewBox="0 0 12.025 20"><defs><style>.a{fill:#fff;}</style></defs><path class="a" d="M17.831,12.741c-.28-.57-1.07-1.05-2.12-.24A6.843,6.843,0,0,1,12,13.641,6.843,6.843,0,0,1,8.29,12.5c-1.05-.81-1.84-.33-2.12.24-.5,1,.06,1.49,1.33,2.3a8.54,8.54,0,0,0,3.54,1.06l-.8.8c-1.14,1.13-2.24,2.22-2.99,2.98a1.141,1.141,0,0,0,0,1.62l.14.16a1.165,1.165,0,0,0,1.64,0L12,18.682c1.15,1.13,2.24,2.22,3,2.98a1.165,1.165,0,0,0,1.64,0l.13-.16a1.123,1.123,0,0,0,0-1.62l-2.98-2.98-.79-.81a8.355,8.355,0,0,0,3.5-1.05c1.27-.81,1.83-1.3,1.33-2.3M12,4.57a2.49,2.49,0,1,1-2.5,2.49A2.5,2.5,0,0,1,12,4.57m0,7.551A5.061,5.061,0,1,0,6.94,7.061,5.054,5.054,0,0,0,12,12.121Z" transform="translate(-5.988 -2)"/></svg>