<?xml version="1.0" encoding="utf-8"?>
<!-- Generator: Adobe Illustrator 19.2.1, SVG Export Plug-In . SVG Version: 6.00 Build 0)  -->
<svg version="1.1" id="Layer_1" xmlns="http://www.w3.org/2000/svg" xmlns:xlink="http://www.w3.org/1999/xlink" x="0px" y="0px"
	 viewBox="0 0 20 20.2" style="enable-background:new 0 0 20 20.2;" xml:space="preserve">
<path d="M19.8,18.9l-5.3-5.3c1.2-1.4,2-3.3,2-5.3c0-4.5-3.7-8.3-8.3-8.3S0,3.7,0,8.3s3.7,8.3,8.3,8.3c2,0,3.8-0.7,5.2-1.9l5.3,5.3
	c0.1,0.1,0.3,0.2,0.5,0.2s0.4-0.1,0.5-0.2C20.1,19.7,20.1,19.2,19.8,18.9z M1.5,8.3c0-3.7,3-6.8,6.8-6.8s6.8,3,6.8,6.8
	s-3,6.8-6.8,6.8S1.5,12,1.5,8.3z"/>
</svg>
