<?xml version="1.0" encoding="utf-8"?>
<!-- Generator: Adobe Illustrator 19.2.1, SVG Export Plug-In . SVG Version: 6.00 Build 0)  -->
<svg version="1.1" id="Слой_1" xmlns="http://www.w3.org/2000/svg" xmlns:xlink="http://www.w3.org/1999/xlink" x="0px" y="0px"
	 viewBox="0 0 18 21" style="enable-background:new 0 0 18 21;" xml:space="preserve">
<path d="M9,12c-2.8,0-5-2.2-5-5h2c0,1.7,1.3,3,3,3s3-1.3,3-3h2C14,9.8,11.8,12,9,12 M9,2c1.7,0,3,1.3,3,3H6C6,3.3,7.3,2,9,2 M16,5
	h-2c0-2.8-2.2-5-5-5S4,2.2,4,5H2C0.9,5,0,5.9,0,7v12c0,1.1,0.9,2,2,2h14c1.1,0,2-0.9,2-2V7C18,5.9,17.1,5,16,5z"/>
</svg>
