<svg xmlns="http://www.w3.org/2000/svg" viewBox="0 0 17.6 16">
  <defs>
    <style>
      .cls-1 {
        fill: silver;
      }
    </style>
  </defs>
  <path id="thumb-up-outline" class="cls-1" d="M4.2,7.4V17H1V7.4H4.2M7.4,17a1.6,1.6,0,0,1-1.6-1.6v-8a1.564,1.564,0,0,1,.472-1.128L11.536,1l.848.848a1.185,1.185,0,0,1,.352.84l-.024.256L11.952,6.6H17a1.6,1.6,0,0,1,1.6,1.6V9.8a1.581,1.581,0,0,1-.112.584l-2.416,5.64A1.589,1.589,0,0,1,14.6,17H7.4m0-1.6h7.224L17,9.8V8.2H9.968l.9-4.256L7.4,7.424Z" transform="translate(-1 -1)"/>
</svg>
