<svg xmlns="http://www.w3.org/2000/svg" viewBox="0 0 17.6 16">
  <defs>
    <style>
      .cls-1 {
        fill: silver;
      }
    </style>
  </defs>
  <path id="thumb-down-outline" class="cls-1" d="M15.4,12.6V3h3.2v9.6H15.4M12.2,3a1.6,1.6,0,0,1,1.6,1.6v8a1.564,1.564,0,0,1-.472,1.128L8.064,19l-.848-.848a1.19,1.19,0,0,1-.352-.848l.024-.248.76-3.656H2.6A1.6,1.6,0,0,1,1,11.8V10.2a1.581,1.581,0,0,1,.112-.584l2.416-5.64A1.589,1.589,0,0,1,5,3h7.2m0,1.6H4.976L2.6,10.2v1.6H9.624l-.9,4.256,3.48-3.48Z" transform="translate(-1 -3)"/>
</svg>
