<svg xmlns="http://www.w3.org/2000/svg" viewBox="0 0 20 11.411"><defs><style>.a{fill:#fff;}</style></defs><path class="a" d="M20.166,14.877a8.821,8.821,0,0,1,1.99,2.3c.663,1.1-.725,1.182-.725,1.182l-2.674.041A1.881,1.881,0,0,1,17.43,18c-1.005-.684-1.969-2.477-2.684-2.239-.736.238-.715,1.845-.715,1.845a.646.646,0,0,1-.166.4.671.671,0,0,1-.549.124H12.124A6.464,6.464,0,0,1,7.17,15.986C4.631,13.353,2.392,8.171,2.392,8.171s-.124-.311.01-.487c.155-.166.591-.166.591-.166H5.853a.746.746,0,0,1,.456.166.924.924,0,0,1,.249.352,18.254,18.254,0,0,0,1.078,2.208c1.192,2.062,1.741,2.508,2.125,2.29.622-.321.446-2.912.446-2.912a2.863,2.863,0,0,0-.3-1.358,1.349,1.349,0,0,0-.891-.446c-.166-.021.1-.394.446-.57A6.816,6.816,0,0,1,11.958,7a5.032,5.032,0,0,1,1.4.135c.995.238.653,1.161.653,3.358,0,.715-.1,1.689.383,2.031.218.145.757.021,2.1-2.249a18.269,18.269,0,0,0,1.1-2.353.921.921,0,0,1,.259-.321,1.032,1.032,0,0,1,.394-.083h3.006s.912-.1,1.057.3c.155.425-.342,1.43-1.575,3.057C18.726,13.571,18.5,13.322,20.166,14.877Z" transform="translate(-2.34 -7)"/></svg>