<svg id="Слой_1" data-name="Слой 1" xmlns="http://www.w3.org/2000/svg" width="1881" height="794.2" viewBox="0 0 1881 794.2"><title>strokeon-the-main</title><path id="Path_22" data-name="Path 22" d="M1035.8,676c-2.3-1.7.6-4.9-2.7-4.9-1.9-.1-2.1-2.2-3.1-2.4-4.1-1.5,6.2-4.4-.5-4.7-5.3-.3-1.3,5.3-3.5,7.2-1.2,1.2,1.4,5.7-1.7,4.4-3.9-1.6-11,4.3-11.9-4.4-0.3-3.7-2.9-3.7-4.9-5.2a19.33,19.33,0,0,0-1.6,4.6c-0.1,6.5-.4,4.6-4.3,5.7-5.4,1.4-10.9-1-15.7,1.2-4.4,1.9-10.4-4-13.1,3.3-2.5-1.8-4.8-3.5-8.2-5.9,0.6,5.1-1.1,7.2-6.2,6.8-2.4-.2-6.5-0.5-7.2,4.4-0.3,2-1.8,2.5-3.9.8-5.6-4.1-5.6-4.1-8.1,1.2-1.2,2.4-15,3.4-19,1.4-3.8-2.1-4-2-5.2,1.6-0.6,1.8-2,1.6-3.4,1.9-4.6.7-10-1.9-14.2,2.6a1.7,1.7,0,0,1-.7-0.1c-1.6-10.9-15.6-1.7-17.9-11.2-0.5-2.5-6.1-6.3,1.2-7.7s14.8-1,22.3-2.8c3.2-.7,6.8,1.7,6.6,5-0.2,4.6,2.5,4,5,4.4,3.6-3.2-3.9-10.6,4.7-11.5,4.4-.5,8.1-2.2,13.1-1.3,7.4,1.3,15.2-1.6,22.7-2.2,14.5-1.4,28.3-6.2,42.6-7.2a98.51,98.51,0,0,0,18.7-3c5.7-1.4,12,1.3,17.2-3.2,1.2-1,8.3-2.7,6.5,4.8-0.3,1.7,1.7,4.4,3.7,4,1.8-.4,5.2-2.5,4.2-4.7-4-9.7,5.2-6.8,7.6-6.9a140.83,140.83,0,0,0,32.2-5.4c11.7-3.4,7.2,7.1,10.5,11.4-4,.4-4.2-3.9-6.9-4.3-2.9-.3-1.4,10.1-7.2,3,0-.2-1.5.8-2.2,0.9-4.1.9,4.5,4.3-.7,4.4-3.5.3-1.8-3.9-3.5-5.2-4.3-3.6-7.3-1.8-9.7,2.8,1.7,3.5,5.9-1.5,7.2,2.5-2.1,3.5-5.5.9-8.4,2-1.3.5-3.4-.5-4.5,1.2-4.2,6.1-4.2,6.1-10.2,6,1.4-2.4,5.1-.6,6.1-3.7C1046.8,663.9,1038.1,666.7,1035.8,676ZM852.4,158.2c0.2-.3.4-1.3,0.2-1.2-3.4-1.4-8.5-3-10.5-2.3-7.2,2.2,5.2,5.3.7,8.9-0.2.3,0.8,1.7,1.3,2.8,1.7-3.2,4.7-2.4,4.4.3-2,15.2,5.8,9.3,12.5,6.2a7.42,7.42,0,0,1,2.5-.5c1.8-.4,2.9-2,1.5-2.9-4.8-3.3,1-3.1,1.4-3.4,4.5-2.4-.4,3.9,2.8,3.2,1.3-.5,1.3-1.7,1.1-2.9-0.2-3.1,2.7-7.7-1.9-8.9-5.5-1.2-3.5,2.4-1.8,4.9a2.2,2.2,0,0,1-1.5.6c-5.2.2-7.3,2.7-6.6,8.3C855.4,166.7,848.6,164.8,852.4,158.2Zm-289,55.3c9.8-5.7,2,3.9,3.9,4.9,4.8,1.4,8.6-7.8,14.3-1.1,1,1.2,2.6-2.5,4-3.7,2-1.6.9-3.8,1.6-5.8,0.4-1.3,4.4.7,2.8-2.5-0.8-1.7-2.9-1.5-5.5-1-5.3.9-10.2,0.3-15.1,3.9-3.5,2.4-10.1-1.4-14,4.7C558.2,210.6,559.8,215.7,563.4,213.5Zm290.2-27.4c-5,.1-4.4,4-5.7,6.9-0.8,2.1-.6,3.7,2.1,3.1,5.7-1.2,7.7,3.6,10.7,6.6,2.7,2.5,5,2,4.8-.8,0.2-7,3.8.9,4.9-1.5-4.1-12.7-6.6-14.5-16.8-14.3h0ZM1591.7,21.5c-0.8-2.7,1.5-4.4,3-6.1-21.3,1.9-42.1,3.7-63,5.5,7.4,3.2,14.9,1.6,22.1,1.7s14.4-1.9,21.8-1.8c5.2-.1,11-3.2,16.1.7h0ZM1822.9,293c-9.1-1.2-17.4,1.1-26.1,2.7-1.6.3-2.6,1-2.3,2.9,0.3,1.6,1,2.4,2.8,2,15.8-3.1,31.9-3.7,47.3-9.6-7.2.8-14.6,2.8-21.7,2h0ZM300.5,747.2c-1.3-1.6,4.4-8.3-3.9-4.9-3,1.4-4.8-1.1-6-3.5,4-2.5,8.9-.7,12.4-5.5l-6.8,1.5c-3.8,1.1,1-3.3-1.9-3.2a5.72,5.72,0,0,0-5.8,5.7,4.87,4.87,0,0,0,.1,1.2c1.3,7.1-5.1,7.5-7,6.3-8.2-4.9-3,4-5.3,5.2,7.6-1.1,15.9-2.2,24.2-2.8h0ZM213.3,285.8c0,2.4.9,6.3,3.6,8.1s2.8-.4,4.1-2.1c1.6-2.5,2.8-.4,3.4,1.2,0.8,2.5,3.6,2.3,3.9,1.3,1-3.1,3.6-4.3,5.2-6.8-5-2.3-8.3-7.5-15.1-8C216.8,281.2,213.3,283.7,213.3,285.8Zm904.6,354.6c-1.8,2.5-6.1,1.5-6.5,6.6-0.4,7,7.1,4.2,8.9,8.4,0.5,1.3,3.4-.7,4.7-3.9,1.6-3.7,2.6-8.2,7.3-11.6C1126.5,639.1,1122.3,644,1117.9,640.4ZM1420.6,39.3c2.1-7.9,4,2,6,.2,0.7-6.8-5.2-7.5-9.3-8.8-3.5-.9-3.7,2.9-4.6,5.5a2.4,2.4,0,0,1-1.9,1.1c-4-2-3.7-.4-1.7,2,0.7,0.8,3.3,0,2.6,2.3-0.5,2-2.7,1.8-4.4,1.9-2.1.2-4.4-1.5-6.5,0.7h0a9.4,9.4,0,0,1,6,4.5c0.7,1,3.5,1.7,3.4,1.4-1.7-6.8,6.1-3,7.2-6.5C1421.6,43.9,1419.7,40.7,1420.6,39.3Zm-84.2,4.1c1.8,1.5,5.7,2.1,3.3,5.3-1.3,1.7-4.5,2.6-7.6,2.6-2.4-.2-3.5-1.7-5-2.3s-4.2-.5-5.4.4c-0.8.7-1,3.3-.4,4.9,0.8,2.5,3,2,5.1,1.8,4.2-.4,8.1-2.2,12.7-1.8,3.9,0.4,4.5-4.5,6.6-7.1-4.1-.3,3.3-12.6-6.9-6.6-1.7,1.1-1.9-3.2-4.5-1.9C1334.9,40.1,1334.9,42.3,1336.4,43.4Zm-487.9,167c-2.4-4.5-4-8.7-2.9-13.7a5.25,5.25,0,0,0-1.7-5.6c-0.8-.5-3.1.2-3.8,1.1-1.3,1.7-3.6,3.2-2.3,6,1.5,3.7,1.1,7.6.3,11.4l6.6,4.3c3,0.7,6.5,1.4,3.8-3.5h0Zm-133.3-5.6c-1.6,1.5.2,3.1,1.5,2.8,6.4-2.3,15.3.3,18.1-9.1-1.7-1.3-5.1-.6-5.2-4.1,0-1.2,1.3-2.9-1.5-2.5a2.61,2.61,0,0,0-2.5,2.8v0.1c0.2,12.4-5.1.6-7.9,2.2C714.9,198.9,717.5,202.4,715.2,204.8Zm-188,22.4c-8.2-1.4-8.2-1.4-7.9,4.3,0,2.4,0,2.4,7.1,2.1,4.3-.2,5.5-0.9,5.1-4.2-0.7-5.6-.6-11.6-7.3-14-1.3-.4-1,0.9-0.9,1.6,0.5,3.7-3.6,2.2-5,4.4C523.9,221.9,523.9,221.9,527.2,227.2ZM1588.6,0c-20.4.5-40.5,3.8-60.4,8.6,20.3-2.2,40.4-4.1,60.7-6.2A9.27,9.27,0,0,0,1588.6,0Zm291.9,394.3c-9-9.8-18.2-17.4-31.8-14.7,11.6,1.8,19.3,13.5,31.8,14.7h0ZM1510.3,7.6c-9.2.3-19.8-4.4-27.2,5.8-0.9,1.2-.8,1.8,0,5.5,11.5-13.2,27.1-7,40.8-11.1C1519.4,8,1514.8,7.6,1510.3,7.6ZM973.1,133.3c-1.8,3.7,2.6,6.8,2.1,8.6-1.9,5.9,4.9,4,5.3,7,1-3.1,6.9-2.4,4.5-9.1-2.8-7.3-8.3-3.9-11.9-6.5h0ZM13.9,371.4c2.8,2,4.4-.5,5-3.4,0.7-2.5.7-6.6-1.9-6.5-4.4.5-8.7,4-13.6,2.4,2.4,3.3-3.5,4.8-1.6,9.2C6,370.9,9.5,368.3,13.9,371.4ZM309.9,271c3.6-5.3,2.1-12.4-2.2-11.2-6.3,1.6-13.5,1.7-19.4,6.5,9.7-8.3,13.8,5.2,21.6,4.7h0ZM884.4,149.3c-0.6-1.5.2-4.8-3.2-3.9-2.2.7-2.4,3.1-2.5,5.1-0.3,6.5.7,13.4-6.5,17.8,7.9,0,14.9-12,12.2-19h0ZM749.3,173.7c-1.8-6.1-4.6-13.6-11.6-7.5-8.2,7.2,6.4,7.5,4.8,15.7,3.4-4.1,2.1-9.3,6.8-8.2h0ZM540.8,229.5c0.9-.2,4.1-4.2,2.9-7.5-0.6-1.8-2.7-3.7-2.3-5.2,0.8-3,.4-5.8-2.9-4.9-2.7.6-6,3.2-3.9,7.3,0.8,1.7,2.8,3,2.1,6.5C537.5,226.6,536.7,230.6,540.8,229.5ZM58,317.4c0.1-1.7,3.3-3.3.5-4.4-1.3-.4-4.5-2.1-5.8.8-2.3,4.8-4.6,9.8-6.9,14.6-1.7,3.5,1.5,2.5,3.8,3.5C48.4,324.9,57.6,324.2,58,317.4Zm1691.1-212c-6.4-3.4-29.7,1.6-33.1,6.1,2.4,2.1,3.9-4.2,6.5-.7,1.3,0.4,2.8.8,4.1,1.3C1734.1,110,1739.5,101.7,1749.1,105.4ZM1401.2,44.2a31.56,31.56,0,0,0,3.8-4.4c2.8-4.7-1.9-6.7-4-8.7-1.5-1.4-6.8-1.9-7.4.9-0.5,2-1.8,7.3,3,8.4,2.4,0.2,3.6,1.6,4.6,3.8h0ZM210.5,292.8a27.11,27.11,0,0,0-.4-4c-1.4-9-5.5.9-8.3-.9s-0.9,1.4-1.8,1.8c-0.2,0-.2,1.5.1,1.4,10.1,0.2,1.2,5.5,3,8.4C211,299.7,211,299.7,210.5,292.8ZM26.4,314.4c-3.5.3-7.9,2.2-6.9,5.5,1.6,6.6,8,4,12.8,4C29.4,320.9,34.1,313.7,26.4,314.4ZM331.8,738.7c2.1,1,0,5.5,3.2,4.8a54.75,54.75,0,0,0,11.9-3.7c0.6-.4,2.4-2,1.2-3.4s-2.2-.5-3.6,0c-7.4,3.5-2.3-4-4.5-5.5C337.1,733.5,334.5,735.9,331.8,738.7ZM1736.5,161.8c0.9,2.2-3,1.6-2.7,4.2,3.2-1.9,8.8,1,9.8-4.5,0.5-2.2-2-7-3.2-7.2-4.1-.3-9,0.2-10.1,6.2,2,1.4,4.8-2,6.2,1.3h0ZM791.6,175a4.58,4.58,0,0,0,1.5,2.5,72,72,0,0,0,8.5-3.9c0.6-.4,1.8-1.8-0.1-2.6-4.7-1.9-3.9-8.5-9.6-10.4C790.6,165.9,794.2,170.6,791.6,175Zm-292,47.3c1.3,3.8-5.4,5.9-3.3,7.1,3.6,2.6,4.9,9.5,7.3,8.7,3.6-1.2.4-8.4,4.5-11.2C506,224,501.2,226.3,499.6,222.3ZM160.9,302.9c2.8,4.4,7.5,3.9,11.9.8-2-3.6-4.2-6.3-5.8-10.7,1.1,5.8-10.7,2.8-6.1,9.9h0Zm974.5,336.7c-1.1.5-1.4,2.4-2.1,3.5,4.9-1.8,2.5,5.2,5.8,5,1.6-.1,3.1-0.9,5-1.3-6.5-7.2,6.2-3.5,3.5-9.3C1143.7,635.2,1139.5,637.7,1135.4,639.6ZM645.3,183.9c1.7,2.5-.7,9,3.5,7.4,2.9-1.1,9.2-.5,9.3-4.6,0.3-7.7-9.2-.7-10.9-6.5C645.2,181.1,643.7,181.6,645.3,183.9ZM442.5,253.3c2.9-3.2,8.3-1.3,9.9-6.2-11.3,1.9-11.3,1.9-17.2-3.3-0.4,3.9-1,7.8-5.2,10.2C435,249.2,439.7,256.7,442.5,253.3ZM1244.2,65.4c3.1,5.5,9.5,2,9.9.7,1.6-3.7,1.3-8.6,1.5-13a1.15,1.15,0,0,0-1.7-1.1c-4,1.6-3,6.1-4.9,8.4-4,4.7,4,.8,1.7,3.7a27.76,27.76,0,0,1-6.5,1.3h0Zm-156.7,34c-6.7,1-13.4,1.9-20,3.3-1.4.3-2.5,1.7-3.5,2.7,1.9-1.1,3.4,1.2,4.6,1.6,8.2,2.8,11.9-6.8,19.4-5.1a7,7,0,0,1-.5-2.5h0ZM891,163.4l0.7-.1c3.6,5.9,3.6,5.9,7.4,1.1,1.5-1.8,2.5-4.1,5.8-4.3-4.5-1-5.4-6.2-10.4-7.6,1.5,4.7,2.9,8.9-2.7,10.8ZM189.8,304.2c4.6-.7,2.1-5.7,2.5-8.4,0.2-2.2-2.8-6.6-3.3-6.5-4.5,1.4-4.7,4.8-2.4,9.8C187.5,300.1,185.4,305.1,189.8,304.2Zm1031.6-234c2.2,2.6,4.7,3.1,5.3-.9,0.5-3.4-3.4-5.7-5.6-7.2-2.5-1.6-3.2,3.1-3.1,4.5-0.3,4.4-3.9,5.1-7.5,8.3,6,0.4,8.7-1.6,10.9-4.7h0Zm-31.9,19.7c-7.5-2.9-21.4.3-31.5,6.7Zm11.2-14.6c0.5,3.2-1.4,5.8,3.3,4.1,2.9-1.1,2.5-4.1.7-6.8s-2.7-6.1-4.2-9.8c-1.7,4.6-.7,4.6.2,12.5h0Zm532,37.2c-1.5-.4-2.4,1.2-2,2.8,0.4,1.8,1.5,2.8,3,2,3.6-2.2,9.7,1.8,11.2-5.5,0.3-1.7,5.4-.4,7.7-2.8-7.3-1.6-12.9,4.9-19.9,3.5h0ZM972.9,133.3c1.6-2.7,4-4.9.2-8.1-8.6-7-6.2,6.6-11.7,5.6,4.2,1,8.2.6,11.5,2.5h0Zm822.3,38.6c-5.7,0-11.5,2-17.4,1.3-1.2-.2-4.7,1.5-3.3,4.8,1.5,3.5,2.9.3,4.5,0,5.4-1.4,11-2.3,16.4-3.5A21.14,21.14,0,0,1,1795.2,171.9ZM483.3,242c1.2,2.1,3.6,2.6,5.9.7l-0.2.3c0-2.2,2.2-3.1,3.3-3.3,3.7-.8,3.8-3.4,3.5-5.8-0.3-1.4-1.9-3.4-3.2-3.6-4.1-.3-0.6,3.7-2.5,4.8-0.6.4-1.6,0.3-2.5,0.8l-1.8.4C482.2,237,482.1,239.6,483.3,242ZM461.6,723.2c-3.6,4.3,6.6,4.3,3.9,9.2,5.7,2.1,3.8-5.6,8-6.2C468.2,728.5,466.3,717.2,461.6,723.2Zm805.2-666c-0.4,3.9,4,5.1,7.1,8.5,1.1-5,1.7-8.9,2.5-12.9C1273.6,55.5,1267.5,52.6,1266.8,57.2Zm562.4,312.7c-9.5.3-17.7,4.2-25.9,8.1C1813,377.6,1820.9,373.3,1829.2,369.9ZM1081,118c3.4,3.8,7.3,1.8,11,1.5,0.4-3.9-5.3-3.4-4.2-7.2,0.6-1.8-1.6-1.8-1.5-1.4-0.6,7.1-5.6-.5-7.7,1.9,0.9,2,1.7,3.7,2.4,5.5C1081.3,118.2,1081,118,1081,118ZM566.9,232.5c3.1,0.1,5.2-1.3,6.7-4.3,0.9-1.6,1.2-3.4-.2-3.1-3.7.3-7.4-.1-10.9,0.4-3,.6,1.2.9,0.9,2.9-0.9,2.2.4,4.1,3.5,4.1h0ZM253.7,299.9c1.6-.1,3-1.8,2.7-3-0.4-1.8-2.2-2.6-4.2-2-4.2,1.6-8.6,3.3-13,4.9,5.3,3.9,9.9.6,14.5,0.1h0Zm19.2-31.1c-6.4-1-1.9,4.7-4.1,6.6,2.5,0.4,4.8,1.4,7.2,1.6,1.2,0.2,3.3,0,3.1-2.1-0.5-3.5-4.1-2.2-6.2-3.4,1.3-2.7,5.9-.3,6.6-4.7-3.3-1.3-4.1,2.5-6.6,2h0ZM48.3,304c9.2-1.7,16.5-1.8,20.7-9.4C63.4,299.1,55.1,297,48.3,304ZM1168.1,608.3c-4.3,4.3-3.6,11,2.5,17.6,2.8-6.8-2.3-11.9-2.8-17.8ZM625.4,187.7c-0.6-5.1-2.4,1.2-3.8.1,0.5,3.2-.7,6.6,1.3,9.5,0.7,1,2.4,2.1,3.6,1.4,1.5-.8,3.4-3.1,2-4-5.7-4.3,2.8-2.5,1.9-4.7C629.7,187.9,626,192.8,625.4,187.7Zm528,460.2a1.7,1.7,0,0,0,1.3,2,1.1,1.1,0,0,0,.8,0,2.94,2.94,0,0,0,2.4-3.1c0-4.5-1-9.1-6-12.3C1149.8,639.8,1154.6,643.4,1153.4,647.9Zm-191.8-506c-1.5-6.8-5.6-1.7-6-.4-0.9,2.6-.9,5.9,1.3,8.3,0.3,0.2,5,3.2,4.1-1.8C962.4,146,963.5,144.2,961.6,141.9ZM257.4,279.1c-0.7-2-.7-6.8-5.2-4.4-2.4,1.2-7.4.9-6.5,4,1,3.4,5.8.4,8.5,2.7C255.1,279.5,259,283.2,257.4,279.1Zm781.1-186c-0.5-3.7-3.3-4.3-6.4-3.4-2.1.4-5.2,0.2-3.9,3.9,1,2.6,2.8,4.2,5.1,2.5C1035.3,94,1039.2,97.5,1038.5,93.1Zm-861,644.5-0.7.1c-8.3-5.2-14.4.9-21.3,3.1,7.1-1.3,14.6.2,21.3-3.1ZM1433.6,43c-5.5,2.4-9.5.1-12.9-3.7l-2.7,4.2C1421.4,48.7,1428.5,48.3,1433.6,43ZM176.8,737.8c6.8,0.7,13.3-3.8,22-1.1C191.6,731,180.6,732.4,176.8,737.8ZM1359.1,49.3c0.8,1.7,4,1,4.5,0,2-4,.7-8-1.8-11.8C1360.3,41.4,1357,45,1359.1,49.3Zm435.4,227.8c2.6-4.6,7.1-5.8,12.2-6.4a8.81,8.81,0,0,0-10.6-1.6c-3.9,1.8-6.2,4.4-1.6,8h0ZM910.4,152.6c6.3-5.2,8.5-10.4,1.7-18C913.8,141.6,909.6,146.8,910.4,152.6Zm-6.8-33.2c0.4-2.5-1.5-4.7-2.2-4.8-5-.1-0.9,2.6-1,4a2.68,2.68,0,0,1-2.3.5c-3.2-1.5-4.9.6-4.6,2.9,0.4,4,3.5.7,5.3,1.3,2.2-.4,4.3-0.4,4.8-3.9h0ZM567.5,235.3c4.8,3.5-4.4,10.5,3.3,13.1,3.1,0.1,2.6-2.2,2.9-4.2A14.8,14.8,0,0,0,567.5,235.3ZM364.4,742.7c-1.3,2.9,1.9,2,2.9,2.5a0.84,0.84,0,0,0,.9-1.4c-2.2-2.4.1-5-.5-6.8-0.8-2.5-3.3-4.3-5.8-6.9C358.5,736.3,366.5,738.2,364.4,742.7ZM313.2,741c5,3.2,9.6,3.5,14.7-.5-5.3-3.5-10.1-2.7-14.7.5h0Zm43.4,46.1c-7.9,2.2-15.8,4.1-23.5,6.2l0.2,0.9,23.7-5ZM964.2,148.5c2-.9,4.2,5.1,5.5,0,0.7-2.5.2-5.8-3.9-6.1-1.4-.1-2.8-0.3-4.2-0.5-0.3,2-.4,3.9-0.7,5.9C962.2,148.2,963.3,149,964.2,148.5ZM1764,180c-0.1-4.8-4.2-3.9-6.8-3.8-1.9-.1-1.6,1.5-1.4,3.6,0.6,3.9,1.9,4.6,6.9,2.1C1762.5,182,1764,181,1764,180ZM1290.2,60.6c0.2-.3-1.4-3-2.1-3.1-3.8.1-8.4-1.3-10.5,4.6C1282.2,61.3,1286.4,64.3,1290.2,60.6ZM891.7,163.2c-2.5-.4-4.9-0.6-7.6-1,0.1,5,3.3,7.9,4.9,11.6,5-2.9-1.3-7.8,2.7-10.6h0Zm301.6,441.2c1-2.1-.8-3.7-2.5-3.8-5.8-.4-2.9,6.6-6.9,8.1C1188.3,609.2,1191.7,608.3,1193.3,604.4Zm574.8-481.6c2,2.7,7.1-.1,5.8-3.1-1.3-3.8-6-2.3-9.5-3C1767.5,118,1766.7,121,1768.1,122.8ZM1115.4,90.4c-4.5-1-7.1,4.8-4,4.7,4-.1,9-0.5,13.2-5.4C1120.6,88.8,1118.1,90.8,1115.4,90.4ZM842.1,183.6c-4.2-2.7-6.1,1.5-8.7,3-0.9.4-1.4,2.2,0.1,2.6,3.3,1,5.9-.3,7.9-3.1,0.2-.3,2.4.2,3.5-2.4-1.4,0-2.3.2-2.8-.1h0Zm601.3-127c0.6-1.8,1-3.3,3.5-2.7,4.3,1.2,4.3,1.2,6.5-3.1-3.3-.7-6.3.6-9.3,1.3-1.6.3-4.5-1.9-4.7,1.5C1439.4,54.4,1442,55.5,1443.4,56.6ZM646.3,220c3.7-.8,7.4-0.9,10.8-3C649,212.2,647.6,212.5,646.3,220Zm480-109.8c1.9-2.1-1.5-4.9-1.9-7.9-3,1.4-5.4,2.8-7.2,6.3,3.7-.3,6.6,4.3,9.1,1.6h0Zm618.6,12.6c-2.3-.7-1.4,2.4-1.1,3.8,0.4,1.8.7,2,2.6,0.9,3-1.6,6.7-1.9,11-3.1-4.6-3.8-8.6-.3-12.5-1.6h0ZM1114.4,619.5c1.2,0,4.3-.2,1.8-2.8-3.4-3.6-7.4,4.7-11.2,0-0.3-.4-1.1,1.7-0.7,3.5C1107.5,623.1,1110.9,619.7,1114.4,619.5ZM424,727.9c-1.7-1.3-3.7-.6-5.2,1.6-0.8.9-1.3,1.9-.3,2.9,1.9,2,2.6-1,4.1-.9,2.4,0.2,4.5,1.9,7.8.7C428.9,728.7,425.8,729.7,424,727.9ZM907.8,113.5c-1,.7-0.3,2.9.8,3.9,3.7,3,6.3-.6,9.4-2C914.4,115.2,911.3,110.9,907.8,113.5Zm373.5-41.9c3.4,0.5,6.9.9,10.8,1.5-2-10.3-7.2-3.5-10.7-4.2C1281.4,69.9,1281.3,70.6,1281.3,71.6ZM313.2,741c-5.7-1.9-6.1-1.8-9.8,3-0.9,1.2-1.9,2.1-2.9,3.2h0C306.8,749.2,308.8,742.6,313.2,741ZM1515.4,48.3c-0.3-1.6-.5-4.4-1.2-4.5-3.3-1-6.8-.7-8.9,3.1C1508.6,49,1511.9,48.8,1515.4,48.3Zm-898.5,161c-3.9-1.3,7-9.8-3.6-12.6A124.38,124.38,0,0,0,616.9,209.3ZM1383.8,43.1c0.7-1.3,2.3-2.9.9-3.5-1.6-.9-4.5,2.4-5.8-1.4-0.4,1.3-1.7,3.5-1.4,3.6,5.5,4.3-2.7,2-1.4,4.8,2.6-.3,6-0.1,7.7-3.5h0ZM211.4,746.9c6.4,2.9,10.7-1.3,15.9-1.7C222.3,744.5,216.9,742.6,211.4,746.9Zm349-455.2c-0.7-.8,1.9-3.3-0.9-2.9-1.8.4-3.5,2.4-5.4,3.5,3.9,3.7-.5,11.3,8.6,14.9-3.4-5-1.9-7.7.4-10.3C562.3,295.1,561.3,293.4,560.4,291.7ZM1081,118v0.2h0.2Zm87.1,490.3h0a0.25,0.25,0,0,0-.3-0.2h0ZM1591.7,21.5h0.2C1591.9,21.2,1591.9,21.2,1591.7,21.5Zm184.6,342c6.4,2.9,10.9-1.4,17.1-2.7-1.5,5.1-6.7,5.7-9,10.3l14.1-3c-10,3.3-17.3,11.6-27.5,14.2,3.8,0.1,6.9-1,10.5-2,4.3-1.2,9-.5,13.7-0.5,3.6,0,2,1.7,1.6,4-0.7,2.3-5.8-2.8-3.5,2.4,1,2.6,3,4.1,6.2,3.4s5.3-1.8,5.1,3.9c0,5.5,6.1,1.6,8.8,2.2,0.3,12.6-11.6,6-17,10.8-2.4,2-3.7.8-5.7,6.7,2.6,3.3,7.6-2.6,9.8,2.2a3.44,3.44,0,0,0,1.5.4c1.6-10.4,9.4-3,14.4-4.2-17.5,12.1-36.1,22-57,31.7,3.2,0.5,3.9.4,4.7,0.7,3,0.8,5.9-5.8,8-1.5s-4.4,2.8-5.9,4.8c-3.2,4-9.8,7.8-11.3,7.6-7.6-1-12.1,6.1-20.1,5.5-3.9-.4-11.6.6-17,5.3-4.8,4.1-13.4,4.1-20.4,6.2-10.5,3.2-20.7,7-31.6,9.4-11.2,2.4-22.1,6.1-32.7,9.8-0.5.1-4.8,1-4.1,4.2,0.4,1.8-1.7,3.2-2.1,2.4-4-8.7-6.1-1.6-9.4.6-3.6,2.2-6.7,7.6-12.6,3.6-2.8-1.8-3.6,2-4.7,3.6-3.1,4.5-6.3,7.3-12.4,4.3-4.5-2.1-4.6-1.4-5.4-4.1-1.8-4.9-.8-5.8,4.8-6.7,5.1-.8,9.5-3.7,14.6-0.7,2.4,1.4,3.5.7,3.7-2.7,0.2-2.7-.5-6.8,4.6-8.6-12.8-.9-22.6,2.7-32.7,7.9-3.9,2-9.3,4.6-14.3,4.5-4.3,0-2.6-2.3-1.2-4.3-9.5-1.1-4,9.2-9,11.5-3-4.1-6.8-7.1-11-1.2-2.1,2.6-8.6-1-6.9,5.5,1.7,7,7.3,3.9,11,3.4,2.6-.3,3.7-2.7,6,1.1,2.4,4.5,5,.1,7.3-1.6-1.1-2.9-4.3-1.2-7.2-2.5,14.3-5.9,14.3-5.9,17.4.1,1.5-5.3,2.4-6.7,5.8-8.9-1.7,4.4-1.9,7.8,5.6,5.2-3.7,5.1-8.1,5.8-11.4,7.9-1.5,1-5.6-1.7-4.5,2.2a4.41,4.41,0,0,0,6,3.5,4.83,4.83,0,0,1,5.6.7c-4.2,2.6-8,4.8-12.6,4.8,3.1,5.8,6.9,6.6,10.1,1.7,0.4-.6.5-1.1,0.7-1.3,2.9,7,6.7.2,10.2,0.9,4,0.8,7.9-1.2,10-5.7a4.45,4.45,0,0,1,2.1-1.2c3.5-.5,1,4.8,4.3,4.6-1.6,4.6-.8,5.4,3.8,3.5,2.4-1,4.2,2.9,7.3,2-6.9,3.4-14.7.5-21.4,3.6-12.4,5.7-26.3,5.4-39.1,10-1.8.6-3.7,0.3-4.6,2.9-1.4,3.4-3,1.6-3.3-1-1.2-8.8-7.6-2.2-8-1.6-2.9,3.2,3,1.7,2.7,4.7-2,.7-3.8-0.1-5.9-0.7-1.3-.4-3.9-1.3-4-1-3.6,8.9-12.3,5-18.5,7.3-3.8,1.3-6.6,8.3-12.1,1.6-1.3-1.4-3.4,4.3-6.1,6.3-1.8-2.7,2.1-8.1-3.8-8.7a1.83,1.83,0,0,1-.7-1c1.5-6.3,1.5-6.3-2.5-11.9-0.9,1.6-1.7,3.2-2.6,4.6-1.4,2.2-5.8,1.7-5.5,4.5,0.6,2.7,3.7,3,6.4,2,0.5,1.1,1.3,2.8.9,3.1-2.1,2.4-4.9,6.3-6.8,6-6-1.1-12.2,0-19-.5,2.2-3.3,4-2.3,6-2a4.81,4.81,0,0,0,5.8-3.5,2.88,2.88,0,0,0,.1-1.3c-0.1-2.8.3-6.5-2.6-8.8-1.2-.9-3-0.6-2.8.1,0.6,2.7-4.5,4.5-1,7.6,0.6,0.6,2.4,1.4.8,2.5a12.29,12.29,0,0,1-6,1,1.32,1.32,0,0,1-1.2-1.4,1.23,1.23,0,0,1,.7-1.1c1.7-1.1,1.9-2.1.1-2.9-1.3-.7-3.1-1-3.1,1.1,0,3.6-2.8,3.7-5.1,4.2-4.5,1.2,3.4,2.4-.4,4.6-4.9,2.9-9.6,3-14.7,3.6-6.9,9.1-7-5.9-12.8-2.8,2.3,3.1.5,5.6-1.6,8.2-0.9,1.4-1.7,3.5-3.9,2.7s-3.9-2.7-3.1-4.6c1.8-3.7-1.1-5.2-2.5-7.3-1.8,3.7-6.2-1.1-8.1,2.4-1.7,3,.4,6.4,1.8,7.3,3.6,2.6.5,3.7-.3,5.1-2.1,3.8-2.6.1-3.8-.9-2.5-1.6-4.1-2.5-3.8,2.2,0.1,2.8-3.2,3.8-4.5,3.4-0.2-5.2-2.4-9-4.7-13.1-1.8,3.7-5.3,5.4-10.8,7.8,5-8,.7-11.1-4.9-11.6-9-.7-5.6-5.2-4-9.7-5.1.8-6.9,7.9-1.9,13.3,3.8,4.2.9,7.4,0.6,10.8-0.1,1.9-2.4,3.1-4.7,2.7,1.5-9.6-9.8-1.3-10.7-7.7,0-.2-4.7-0.7-6.1.3-2.5,1.7,1.3,2.6,1.3,3.8,0.1,2.8-2.7,5.1-4.5,3.6-4.9-4.2-8.4-.1-12.4,1-3.9.8-6.2,2-4,6.8,1.2,2.1,1.9,5.6-1.1,7.4-1,.7-3.4,1-4,0.4-2-1.7-2.2-4.5-2-7.2,0.4-9.4-1.5-11.4-10.6-11.8-1.9-.1-2.8.1-2.7,2,0,1-2,3,1.1,2.9,5-.1,4.1,2.5,2.9,5.6-1.6,3.7-3.5,2.4-6,.8-1.4-.9-2.8-2-4.6-0.4-3.6,3.2-6.3,3-8.5-1.8-1.4-3-6-2.3-7.7-1.5-3,1.6-4.7.3-8.5-1.8,2.7,5.9,9.3,10.2,2.1,15.3-2.2-1.2-6.8-1.9-3.4-6.9,1.3-1.9-.3-2.6-1.4-3.3-1.3-.7-1.8-1.8-3.4.7-2.3,3.6-6-.2-6.2-2-0.8-3.9-3-2-4.1-1.5-3.4,1.9,2,1.5.9,3.1-2.5,4.1,3.6,6.9.3,12.8-3.1,5.4-5.9.5-7.7,2.8-3.8-7.8-8.3-4.2-12.3-.5-2.8-1.8-1.4-5.4-4.3-6.7-3.4-1.4-.6-4.2-0.9-6.3-5.3,6.6-11.5,12.2-9,21.7-4.4-.5-3.9-2.5-3.6-4.5,0.2-2.2,2.8-4.9-2.8-4.4-3.2.5-2.7-3.9-2.4-6.9,0.3-2-.9-4.3-1.6-6.6,0-.2-1.6.1-2.3,0.5-2.7,1.8-2.3,6.2-1.6,7,4.2,5.1-.2,9.1,0,13.4-9.5.1-7.6-7.9-9.2-12.8-1.1-3.8-1.6-6.3-4.4-4.8-7.7,4-8.7-.8-9.2-6.4-0.2-3.1.2-6.7-4.8-3.5-1,.7-2.6,3.4-3.4-0.2-0.4-1.8-3-2.7-1.1-5.2,1.5-2,2.3-2.9,4.2-.4,0.7,0.8,3,.6,3.8-1.1s-0.8-2.5-2.1-3.1c-6-3.7-8.9-2.4-10.7,4.7-0.6,2.8-3.8,4.6-5.3,3-1-1.2-1.1-3.8-3.3-2.2a5.66,5.66,0,0,0-1.9,6.8c0.6,1.5,1.5,3.7,4.4,2.9,1.6-.3,2.5-6,4.6-0.7,1.1,3.1-1.8,3.7-3.9,4.2-1.8.4-3.1,1.1-3.3,3.3,3.5-.5,2.8,5.4,6.6,4.3,0.9-.2.1-2.9,1.8-1.8,1.1,0.7,1.3,3.8.1,3.8-4.3.2,2.1,8.6-4.6,6.5-1.2-4.5-3.3-2.2-6.2-1.3-3.1.9-2.7,0.8-1.4,3.4,1.4,3-1,6.4-2.8,9.2-3.4,5.3-3.4,5.3-2.8,10.6-4.1-2.2-6.2-4.4-6.1-9.7,0.2-7-4.4-14.1-2-20.8,2.1-5.9.3-10.8-.4-16.4-6.5,3.1-6.7,8.8-7.4,14.5-0.3,2,1.9,4.4-.3,6.3,0.3,3.7.9,7.7,3.8,10.2a5.31,5.31,0,0,1,1,7.5c0,0.1-.1.1-0.1,0.2-2.4,2.4-6.8,3.8-9.6,1.8a21.34,21.34,0,0,1-8.6-14.4c-0.5-3.5,3.6-2,5-5.6-5.2,4.7-7.6-2.2-12.6-.9-3.4,1-3.5.5-.9,2.6,3,2,.3,3.7-0.5,4.2-2.8,1.5-5.5,6.9-6.5,5.4-4.4-6.2-6.1,3.9-9.3,1l-1.3.7c5.2,10.8-7,5.1-8.9,9.8,3.1,2.4,7.4,1.3,11.8,2.7-5.8,2.9-13.7,3.9-11.6,13a19.66,19.66,0,0,1-2.8,1.3c0.8-6.4-8.6,1.1-7.3-5.1,0.7-3.3-3.7-5.2-1.4-8.8,0.5-.8-2.8-5.1-4-4.2-9,6.9-5.9-4-8.6-5.8-2.5-13.1-8.3.3-12.5-2.6,1.6,6.3,5.4,6.2,9.4,4.9-0.4,3.7,1.8,6.1,3.6,9,1.1,1.7,6.3,1.8,1.8,6.3-3.3,3.3-4.8,3.2-8.7,1.8-5.4-1.7-9.8-8.9-16.7-3.4,0.7,2.2,4.8-.8,4.8,3.3-0.9,1.4-3.7.3-4.7,1.5-3.4,4.1-6.7,1-10,0,1.6-4.6-5.2-7.5-2.5-11.9,1.5-2.9,1.4-4.6-1-6.7a3.77,3.77,0,0,0-4.8.1c-2.5,1.5-1.1,6.2-.5,6.5,4.9,3.7.3,6.1-1,8.8a23.7,23.7,0,0,1-1.9,3.5c2.4,0,4-.1,5.9-0.1-1.5,4.4-5.1,1.8-7.5,3-4,2.3,2.7,3.9,0,6.9-4-1.8-8-2.8-5.9,3.9-3.7,1.7-4.4-7.2-8.3-.9-0.7,1.1-3.1.9-3.7-1.6-2.3-8.3-2.7-8.2-10.8-3.9a15.5,15.5,0,0,1-4.7,1.2c-0.3,3.2,3.5,1.7,3.5,4-3.7-.4-4.2,7.3-7.9,4.3-3.2-2.9-4.6-.4-5.3.9-3.5,6-8.1-.9-11.9,1.3-0.2,0-2.1-3.1.7-4.4,1.1-.5,4.5,0,3.1-2.3-3.3-5.3-8.1-8.8-13.3-12-4.7-2.8-4.4,4-7.8,3.6-3.5-1.9,1.7-4.2-.3-6.9-6.6,2.8-10.1,7.6-9.8,14.7,0.2,10-5.3,14.3-14.2,10.7-4-1.8-7.5-2.7-10.3,2.2-1.6,2.7-3.6,1-4.4-1.5-0.8-2.7-4-4.2-4.6-1.4-2.7,11.8-12.6,10.1-20.1,10-14.8-.2-27.6,8-42.3,8.8,6.9,0,14-.1,20.9-0.4,4.7-.3,10.2,5.5,8.8,10.1-1,3.1-1,7.8-8.3,4.9-7-2.6-16.8-3.8-23.4,3.3-4.3,4.5-7.6-.8-8.3-1.8-3.9-5.9-7-7.1-11,0-1.7,3-5.4,1.4-6.8.5-5.3-3.4-4.5-3.1-11.1.7-4.2,2.6-10.1,3.1-15.2,3.7-5.6.7-11.4,0.3-17.1,0.3a10.75,10.75,0,0,1-2.5-.4c-1.5-8.3-5.5-6.9-11-3.6-1.7,1.1-4.8-.2-7.2-0.4-1,1.9,5.6,3.8-.4,5.1a92.45,92.45,0,0,1-32.3,1.6c-1.5-.2-3.2-1.5-4-0.8-10.9,7.1-22.9,1.1-34.4,3.3-10.3,2-21.2,3.6-31.8,2.9-18.5-.8-37.2,1.2-55.8-0.1-5.1-.3-11.7-4.4-16.6,2.8-2,3-6.9-5.7-11.4-.9-0.4.3-2.6-.9-3.7,0.8-2.7,4.2-5.4,6.2-8.3.1-0.8-1.7-2.1-.8-3.5.3-2.9,2-5.7,3.6-6.2-2.3-0.2-1.9-2.2-1.4-3.4,1-0.7,1.3-1.2,3.1-3,2.8-1.5-.2-3.5-0.7-2.6-3.3,0.4-1.3-.4-3-1.3-2.6-3.7,1.7-7.8-.7-11.6,1.5-5.3,3.3-11.8,1.8-17.5,2-8.1.3-16-2.3-23.9,2.2-0.4.3-6.9,3.4-10-1-0.7-.8-4.9-4-6.3,1.6-0.7,2.5-3.3,1.4-5.6-.5-3-2.7-7.2-1.3-10.7-1.1-1.6.1-3.1,5.7-1.5,6.5,7,2.8,1.8,8.7,4.3,12.2-3.8,1.3-5.4-2.9-9.7-2-4.3,1.2-4.2-5.3-2.6-8.8,1.6-2.7,4-6.1.7-7.8-4.6-2.4-5.2,1.1-6.8,5.3-3,8.5-8.1,5.5-13.1,1.1,3.7-1.5,7.7-.9,11.6-3.9-2.6-2.3-7.6,1.1-8-4-2.7,1.8-8.7-.5-7.2,6.3,0.7,3.4,3.3,8.6-4.7,5-1.6-.6-5.2.2-7.8,0.5-3.2.5-2.8,4.9-2,5,7.5,1.7,3.2,8.2,5.4,12-5.4-2.9-7.4-10.3-14.5-10-0.2,1.2.1,3.8-.7,4.4-2.4,2.2,1.9,6.7-2.9,7.5-0.7-4.6-8.8-5.5-5.6-11.9,0.4-.6.5-1.1,0.9-1.6,1.8-2.8-4.5-6.4.2-8.1,4.9-1.8,11.1-3.8,15.7-2.4,4.3,1.2,6.3-.9,9.6-2-1.1-1.9-9.6,2-3.6-4.7-11.5.8-21.4,7.2-32.6,6-1.1,2.6,1.9,2.2,2.5,3.8s1.9,3.2-.2,4.6c-1.5,1-2.4,1-4.5,0-7.8-3.1-16.4-4.1-24.8-1.2-2,.7-4.8,2.2-5.4-1.7-0.5-3.2,2.1-2.6,4.2-2.8,5.3-.7,10.9-1.4,16.3-1.8,1.2,0,1.4-.1,1.2-1-0.2-1.1-.2-2.1-1.8-2.7-5.4-1.9-11.1-.5-15.8.7-5,1.1-10.1,3.1-15.3,4.2-0.9.2-2.3,0.3-2.5,0.8-3.4,9.8-11.8,6.1-18.6,6.6-1.4.1-6,1-4.9-4,0.1-.5-1.7-5.6-5.6-3.8-0.9.4-2,.7-2.1,1.2-0.2,2.2,1.2,1.2,2.5,1.6,2.1,0.8,2.1,3.4,1.3,5-2.2,5.5-8.8.2-12.2,4.5-0.8.9-3.2-2.9-2.2-5.7,0.3-1,0-3.3-2.1-3.1a3.35,3.35,0,0,0-2.6,4.6c0.8,3.9,3.5,7.6-.3,11-4.9-.6.9-8.1-5.1-7.3-4.4.7-8.5,1.6-9.6,7.5-0.1.7-7,3.9-11.1,3.8-4.3,0,0-5.7-4-7.5-1,3.3-9.6-.1-6,7.5-3.2.7-4.8,6.7-8.2,3.9-3.2-2.7-5.8-6.9-3.7-11.9,0.4-1.3,3.3-2.4,1-4-2.8-2-1.5,1.8-3,2.6-5.7,2.4-11.8.8-17.5,0.9-2.2,0-3.5-1.9-5,1.3a2,2,0,0,1-2-1.8,2.92,2.92,0,0,1,.2-0.9c1.2-2.4-3-6.3,2.1-7.1,1.8-.4,3.9.4,5.9,0.7-0.5,2-2,5,1.4,5.7,2.8,0.6,4.2-2.8,5.3-4.5,2.2-3.1,4.1-4.4,6.5-2.1,3.6,3.5,9.3,3.5,13.3-.2,1.2-1,3.7-1.5,2.5-3.9-0.8-1.5-2.5-1.8-4.3-2.2-9.1-1.2-17.1,1.3-25.2,5.1-5.7-2.1,2.4-3.4.3-5.5-5.2.2-9.7,8.3-15.8,2.2,0,2.2-4.4.7-3.5,4.8,0.5,2.5-3.6,1.2-5.2.4-12.1-6.3-25.2-6.1-38.3-5,0-4.5,4.6-2.9,6.6-5.9-7-2.6-12.9,2-19.9,1.6,4.1-7.8-6-5.6-7-10.4-4.5,1.2-7.2-3.7-11.7-3.2-7.7.7-9.8-6.7-13.6-11.2-2.6-3-3.7-7.1-7.5-9.4-1.7-1.1-3.4-1.2-4.8.1-1.6,1.3.4,2.8,0.5,4.4-4.2-2-6.9-4.3-3.9-9.4,1.9-3.3.7-7.8-3.8-7.8-5.5,0-6.8-1.9-7.2-7.1-0.6-8.2-.2-15.7,8.1-21.5-10.7-2-19.8,3.3-29.8,2.5l13.2-2.8c-5.5-2.4-10.9,1.6-18.3-1.8,12.6-1.3,21.9-7,32.8-8.6-8.9-3.8-17.1-2.1-25.5.2-0.9-2.9,3-1.4,2.7-4.2l-16.7,3.5c-0.1-.5-0.4-0.6-0.5-1.1,9.1-5.3,18.5-10.4,28.5-16.1-3.1-2.2-6.9,1.2-8.9-2.6,1.3-.7,2.6-2.5,3.8-2.2a8.81,8.81,0,0,0,6.7-1.2c-3.4-2.4,1-6.6-2.2-9.3-5.8-4.7-4.9-11.8-6-18.3-0.8-3.7-.5-5.6,3.5-7,2-.7,2.6-4.4,1.6-5.8-1.3-1.9-3.7-.4-5,1.1-4.6,4.3-11.4,1.2-16.7,4.5,6.1-3.7,12.3-7.4,19.3-11.5-2.7-1.3-4.8-2.3-7.5-3.7,3.6-1,6.3-1.8,9.3-2.4-5.2-9.9-14-12-25.4-6.1-4.1,2.1-8.4,2.2-12.3,3.8-4.9.3-8.2,3.2-13.1,2.5,4.5-4.8,10.7-5.6,15.9-8.2,2-.9,4.8-0.8,6.1-3,3-4.9,7.7-6.4,13-7.1,3-.4,6.2-2,5.7-5.5-0.2-1.1-3.9-1.3-5.6,1.9-0.9,1.6-2.3-.7-2.4-2.1-0.3-1.6-1.6-4,1.3-3.9,7.7,0.3,3.9-6.3,3-7.1-5-4.4-1.3-6.2,2.3-8.1-4.9-4.9-10.1-1.4-14.8-1.4,1-4,9.6-1.8,7.1-7-2.4-4.5-6.6-9.8-15-7.8,4.2-5.9,10.2-3.6,13.8-6.8-2.7-7.3-4.7-15.2-15.1-14,2.7-3.2-6-2.5-2-6.2,6.8-6.2,5.9-9.1-3.3-12-0.1-3.8,7-3.9,5.5-4.5-7.6-3.4,1.8-16.1-9.7-16.3-1.9-.1-1.6-0.9-1.4-2.1,0.5-8-5.4-11.7-10.4-16.4-5.4-5.3,1.5-9.6,1.1-14.8-3.4-.5-9,0.5-13.9-2.8,1-.9,1.7-2,2-1.9,10.3,3.5,13.7-2.7,16.1-10.8,0.4-1.5,2.5-2.7,0-4.3-1.7-1.1-3.2-2.9-5,.1-0.7,1.3-1.8,2.8-3.3,1.4-0.9-.8-1.3-2.6-1.3-4-0.1-2.8,2-.7,2.9-0.9,6.3-1.8,10.9-9.2,9.6-15.6-0.4-2.1,1-3.3,1.6-4.9,0.9-2.6,1.7-4.4-2.5-5.9C11,349.8,10,342.7,16.4,336c1.4-1.5,1.7-2,3.7-1.5,16.3,2.7,32.7,2.6,46.5-7,11-7.6,24.5-5.7,35.3-13.5,1.9-1.3,9.2-6.2,13.8-.3,2.5-5.3,8.3-4.6,12.6-6.7,6.1-2.7,12.7-4.1,19.3-5.8,0.9-.2,3.2.5,2.5,2.6-0.7,2.5-.4,4.9-4.4,6.2-11.4,3.6-22.3,8.6-33.3,12.8-2.2.9-5.5,2.4-4.1,4.4,3,4.1,2.4-2.4,3.9-2,7.9,2.4,14.8-4.3,22.9-2.2,3.3,0.7,6.3.3,6.2,4.4,0,3.6-3.3,3.6-5.4,4.7-1.3.7-3.1,0.2-4,2.5,8.1-2.4,16.6-.4,23.6-5.5-2.3-4-6.1,2.7-7.2-1.3-1-3.4,3.5-6,2.4-9.8a1.4,1.4,0,0,1,2.4-1c7.5,7,7.7-.7,9.5-4.9,0.8-2.1.6-5.1,4.2-2.8,0.6,0.4,3.2.5,1.3,1.6-4.4,2.8-4,4.7.8,5.8,5.3,1.5,2.6-3.6,4.1-5.2,2.6,3,5.1,5.8,7.6,8.9-3,2.8-5.5,0-8.3.1-3.3.2-5.2,2.3-5.1,5.4,0.2,3.3,4.7,1.9,5.1,1.5,6.9-3.6,15.3.3,21.8-5.1,1.6-1.3,3.5-2.4,2.9-4.4-1.3-4-2.3.5-3.7,0.5-3.3,0-2.3-2.9-2.8-4.4-1-2.4.2-3.6,2.6-4.4,6.6-1.4,13.3-1.4,19.8-3.5,4.7-1.5,11.4,2.1,12.2-6.6,2.2,0.2,4.4-.5,6.6-0.4s3.6,2.6,3.8,5.6c0.1,2.6-2.9,3.2-2.8,7,4.2-4.9,10.7-2.5,14.8-7.7,1.1-1.4,7.5-.4,11.7-2,3.5-1.5,4.1-2.1,1.7-5.4-1.3-1.6.5-3.2,1-3.3,2.5-.5,4.8-4.1,7.5-1.6,1.8,1.5,2.9,1.1,4.1.3-0.2-2.1,1.9-9.2,2.7-9.6,1.7-1.1,2.2,0,1.7,1.3-1.9,5.7,1.8,3.9,4.5,3.3,1.4-.3,4.2-0.4,2.7-3-1.2-2.4-2.6,1.3-4.8.1,1.4-2.4,3-4.9,5.9-4.8,4.6,0.2.5,3.5,1.3,5.2,0.8,1.5.5,4.7,2.2,3.8,2.9-1.1,6-2,7.3-6.1,0.5-2-2.8-5.4,1.9-6.6,4.2-1.4,4.1-1.8,9.3,4.7,1-3.3,1.6-5.8.5-8.7,5.4,4.1,13.1-3.5,17.9,3.4a1.57,1.57,0,0,0,2.2.1,1.62,1.62,0,0,0,.5-0.9c-0.1-1.4,2-2.8-.4-4.2-4.9-2.8-4.7-7.6-3.9-12.5,3.5-.3,4.3,3.6,7.2,4.9,8.2,3.7,10.9,3.2,9.4-5.1s7.2-.8,6.9-5.5c2.6,0.9,6.1.6,6,4.7a15.32,15.32,0,0,0,1.2,7.9c1.5,2.8,2.5,5,5.6,5.2,4.4,0.5,1.1-3.6,2.5-4.8,6.7-6.7-.9-9.8-4.7-16.4,4.8,4.5,9.8,1,12.6,5.4,0.4,0.6.8,1.5,1.7,0.3,2.3-2.6.4-4.6-1.1-7.4,5.7,0,11.3,5,16.1-.6,3.4,3.6,6.3,7.2,7.2,12.3,0.2,0.9-4.5,2.6.1,2.8,1,0,4.1.3,2.1-2.6-1.3-1.9-.5-3.7-0.3-5.9,0.4-3.7-2.1-8.6,3.3-10.2,4.7-1.2,7.1,3.3,10.3,5.7,1.4,1.1,2.7,4.7,4.3,4.3,2.5-.8,5.2-2.5,4.6-6.5-0.5-3.2,3.5-3.6,3.9-3.2,1.8,2.7,4.7,2.1,6.7,3.6-1.5,1-2.6,2.5-4.9,2.9-3,.6-2.5,4.1-1.9,6.8,0.4,2.1.7,4.4,3.6,3.5,9.7-2.8,20.7.8,29.2-6.4,2.9-2.3,3.5.9,4.6,1.6,1.9,1-1.1,1.7-1.6,2.5-0.9,1.2-2.8,2.7-4.2,2.6-13.4-.2-25.9,4.1-38.3,7.2-3.4,1-6.7-3.6-8-1.6-4.9,8.2-11.9,2.3-17.6,3.5-2.1.4-4.7,1.2-3.2,3.8,2.8,4.2,3,9.4,5.5,13.4,3.2,4.8,7.4,5.8,9.5-1.5,6.2,5.4,8.9-.7,12.8-3.7-4.9-4.9-4.9-4.9-11.2-3.1,3.2,0.3,5,.9,5.9,3-3.1.2-6-1.1-8,1.7-1.2-2.4-4,.4-5.3-1.5-0.7-1.3-1.3-2.6-.1-3.8,6.1,6.3,6.5-6.4,12.8-3.7,4.7,2.1,11.2,1,14.3-5.7,0.6-1.6,2.3,1.7,3.5,2.8,1.4,1.1,1.3,2.6-.7,3.3-3.6,1-4.4,6.2-9.3,5.8,4.6,1.6,9.5-1.5,13.6,2.4,0.9,1,4-3.5,2.7-6.5-0.9-2.2-.3-3.7,0-5.5,0.2-1.5,1.4-3.6,3.7-2.9,2.6,0.9,4.2,2.9,3,5.3-1.5,2.9-2.6,5.8-.8,8.5,7.2-3.2,9-9.3,7.8-16.2-0.5-3.5,2.1-2.6,2.8-2.5,4.4,0.5.2,2.1,0.1,2.8-1.3,7.4,6.2,8.9,9.6,10.4,4,1.8,6.1-3.9,7-8.6,1.1-6-3.3-11.2-1.5-17.1,0.4-1.3-2.7-1.6-5.1-1.5-1.9-.1-6.3,2.8-6.4-2.2-0.3-4.9-2.1-10.8,3.6-13.4,2.4-1.2,5.9,3.3,9.6,1.3,0.9-.4,2.4,1.2,2.8-0.4s-4-4.2,1.5-5.1c2.5-.5,3.5,1.9,5.6,1.4,6.4-1.1,7.1-.3,8.4,7,1.6,1.8.4,3-.8,4.2a6.9,6.9,0,0,0-1.8,1.6c-1.2-.9-1-2.6.8-5.4-3.6-1.1-6.8-2.8-5.4,3.8,0.4,2.1-2.5,5.1-4.3,7.6-0.4.6-.4-4.2-2.9-1.5-1.4,1.3-2.9,3-1.9,4.7,3,2.7,7.9-3.3,9.5,3a0.28,0.28,0,0,1-.3-0.2h0V255c-2.4,1-7.6,11.4-6.3,13,1.6,2,2.5,5.9,6,4.7,3.8-1.3,1.5-5.3.5-6.5-3-3.9,2.2-7.6-.2-10.9h0.2l-0.3-.2,0.3,0.2h0c5.6,2.6,3.6-5.3,8.1-5.8,5.2-.4,1-3.1.4-5.1,5.1-1.8,7.4,2.2,9.7,5.3,1.3,1.9.8,6,4.4,4.8,2.9-1.1,1.2-4.5.6-7.1a47.42,47.42,0,0,0-1.7-4.6c8.6,3.6,5.1,12.8,9.4,18.5,3.5-3.8,3.4-11,10.4-10.3a3.33,3.33,0,0,0,1.2-1.2c8.3,6.6,13.4.2,19.4-4.1,2-1.6,2.2,2.4,4.1,2.2,2.3-.3,3,6.3,4.5,2.1,0.8-2.1,7.6-3.8,2.4-7.7a2.44,2.44,0,0,1,0-2.2,3.24,3.24,0,0,1,2.1-.2c1,4.6,8.4,2.5,8.2,9.2,0,5.5,4.4,1.5,6.9.9,1.2-1.2.7-3.5,2.9-4.2,3.3-.2,3.9-6.3,8.7-3.8,0.8,0.3,2.7-3,1.5-5.1-0.9-2-1.6-3.2.7-4.7,1.9-1.3,4.5,0,4.5,0,1.4,4.2,7.9,3.6,8.2,8.5,0.2,4.3,3.3,1,4.9,1.8-2.3-2.9,5.6-1.7,2.3-6-2.3-2.9.7-5.6,3.2-5,3.3,0.7,5.9-.5,8.5-1.3,1.8-.4,10,2.2,3.4-5.3-1.3-1.4,7.1-6,8.1-11.3,0.9,0.8,2.2,1.2,2.4,2.1,1.1,2.9-5.5,5.7-.1,8.6-6.2,2.3,1,3.4.9,5.3-0.2,3.4,5,2,6.5,4.6,1.5-1.8,3-3.7,1.6-5.8-4-6.3,2.2-14.3-4.7-20,7.1,0.6,6.9,5.7,7.8,9.8,0.6,3.9,2,9.4,4.1,10.1,6.2,2.3,12.4,5.5,19.4,4.9,1.9-.2.9-1.6,0.9-2.3,0.3-5.3,1-10.9-2.7-14.9-1.8-1.8-1.7-2.5-.3-3.5,1.2-1,4.4-1.9,4.1.1-1.1,10.5,9.3,13.3,13.6,20,3.9,5.9,5.2,12.2,8.8,17.9,5.1-2.8,4.3-6.6,1.6-10.4-3.8-5.6-3.7-11.6-2.9-18,1-6.6-4-9.7-14.4-9.3,3.6-4.3,16.6-7.3,27.3-6.3,0.1,5-7.3,6.1-5.7,12.7,1.3,5.9,5.7,5.7,8.6,5.8,2.4,0.2,1.2-4.5,1.5-6.3,1.5-5.1-5.8-11.4,2.5-15.1,2.5,3.8.7,8.9,3.9,12.5,1.3,1.6,4.7,3.1,6.1,1.8,10.3-10.1,13.8-10.1,24.2-.4,0,0.2.5,0.1,0.5,0.1,4.9-3.7-3.1-9.1,1.8-13,0.8-.7-1.6-0.6-2.2-0.5-4.1.9-5.1-2.5-5.8-5-1.2-3.6,2.9-4.4,4.5-6.7,0.5-.8,4.9,1.8,3.9-2.7-0.7-3.4-3.6,1-4.8-1.1a5,5,0,0,0-2.3-.9,26.25,26.25,0,0,0,4.9-3.9c1.4-1.3,2.4-2.4,4.3-1.2,2.5,1.6,2.1,3.1.6,5.1-1.3,1.9-1.7,4.4.2,5.4,3.5,1.7.1-2.9,2.2-3.1,2.3-.3,2,2.9,3.9,2.7-6.4,9-6,13.2,1.8,20.6,0.1-4.1,1.6-7,5.8-7.7-0.9,3.5-2.3,6.9.8,10.6,4.5-6.9-.2-14.5,2.9-20.9,7.3-5.9,19.4-2,24.8-12.2,2-4,5.8-1,8.5-1.3,1.6-.1,1.1,1.9,1,3.4-0.5,4.2-3.9,3-6,4.4-5.8,3.1-13.4,2.1-17.6,8-0.9,1.2-1.4,1.5-2.4,1a5.65,5.65,0,0,0-6.3.9c2.6,0.9,1.6,4.2,3.5,5.4,2.3,1.7,3.7-.8,4.6-1.7,5-4.6,5.6.7,7.1,3,0.7,1.3-.5,4.4-2.1,2.4-4.1-4.8-3.8,3.4-6.5,1.9-2.6,5.6,3.3.7,3.5,2.8,0.8,4.8-2.8,9.2-1.3,14.1,0.8,2.7.3,5.7,0.4,8.5,0.1,3.8.2,6.6,5.5,3.4,3.6-2.2,5.6-.5,4.2,3.9-1.3,4.1.6,3,2.7,2.5,4.3-1.2-.3-5.9,2.7-7.3,5-2.3,4.6-3.1-.3-4.9-2.3-.9-1.5-6.1.6-8.5,1.8-1.8-.3-3.7-0.2-6.4-2,1.9-3.4,3.1-5,4.4-1.5-2.5.3-5.3-2.2-7.2-2-1.5-4.2-4.1.8-5.4,4.1-1.1-2-5.1,2.6-7.9,6.1-3.7,12-2.8,17.6-2.3,7.1,0.6,10.7,5.6,10.5,13.5-0.1,2.9,2.5,5.9,1.3,9.3s3.1,4.6,3.8,4.2c3.8-1.3,8.7-1.8,9.5-6.8,0.7-4.7-.8-9.1-3.3-13.4,1.1,3.8-1.1,7.4-.7,11.1-1.9-5.8-13.7-8.5-5.3-18,0.6-.6-0.2-2.1-0.2-3.3-2.6,1-3.8-.9-4.7-2.8a5,5,0,0,1,.4-1.3,8.7,8.7,0,0,1,7.6-3.3c3.4,0.5-1,4.5,2.5,6.1,1.6,0.6,6.9,12.1,9.5,14.2,3.7-.8,6.2-0.1,6.6,4.3,0.2,0.9.3,2.3,0.8,2.5,3.7,0.6,7.5,2.7,7,6.1-0.6,4.9-6.2,2.3-9.8,4.5,7.7-.9,7.2,7.1,11.7,9.9,6-7.7,5-17,7.7-25.5,0.6-1.8,12-3,13.9-1,2.2,2.4,3.3,5.3,5.5.3,1.6,0.9,3.8.1,4.5,3.1,0.9,3.1,2.7,6.1,4.3,9.1,0.7-1.3,1.2-2.4,1.7-3.5,2.1-3.5-4.2-10.6,4.8-11.3-0.8-2.7.8-5.2-1-8.1-2.4-3.5-4-7.7-5.9-11.9-2.8,1.3-1.9,3.5-1,4.5,4.3,4.3,1.6,4.2-2.4,6.5-8.1,4.6-11,3.3-9.9-6,0.4-3.7-4.1-1.5-4.2-4.1,1.3-2.9,4.7,1.9,5.7-1.2,0.8-2.8-.4-4.2-3.7-3.8-2.1.2-1-1.5-.5-2.3,0.9-1.2,1.1-3.6,3.6-2,1.9,1,3.6,3.5,6.3,2.5,1.5-.8,9,5.2,4.4-4-1.3-2.6,6.2-5.4,10.5-5.8,4-.4,4.3,2.2,1.5,4.7-0.6.6-1.4,1.3,0.1,1.6s4.2,0.8,4.8.2c3.6-5.3,10.4,1.6,13.8-3.6,0.5-.8,2.8.8,2.3,1.7-2.4,4.3,5.5,10.3-2.4,13.6-1.3.5-1.6,2.7-.8,4,2.7,3.7,1,3.6-2.3,3.6-1.9-.1-1,4-1.5,6.3-1,4.5,1.8,8.4,1.3,12.6-0.5,3.4-1.1,7.2,3.5,8.6,1.3,0.4,3.2,1.7,3.6,1.4,2.8-2.7,1.3-6,1.3-9.6a4.92,4.92,0,0,1,2.1-.4c1.7,0.1,3.2,3.6,4.8.2a2.87,2.87,0,0,0,.2-2.4c-1.2-2.4-4.8-3.3-5.8-2.6-2.1,1.4-3.5,4.8-5.9,1.3-1.7-2.5.5-5.4,1.6-8,6.1,6.3,8.5-7.3,14.4-1.6-2.5-4-7.2-7.1-2-11.7,0.6-.6.5-2.2,0.7-3.3-6.9,0-2.8-7.7-6.8-9.5-3.2-1.5-1.5-3.7-1-6,0.9-3.8,3.5-.3,4.3-0.9,4.1-3,11.5,1.1,13.4-6.4,0.1-.7.9-1.2,1.5-2-5.9-3.3-4.6-10.5-7.6-14.4-2.3-3.1,2.9-3.2.4-4.9-0.3-.2,1.2-3.4,3.4-3.1a4.14,4.14,0,0,1,3.6,3.3c0.6,4.9,2.1,9.8.3,14.7,8.4-1.1,8.4-1.1,14.3,11.3-0.1-8.1,2.2-12.2,10.3-7.7-4.6.7-5,3.2-2.5,6.3,2,2.4,4.1,4.8,4.8,8-0.8,6.1,3.1,11,4.2,16.5,0.3,1.6-1.1,3.8,1.6,3.2a2.55,2.55,0,0,0,2-2.9,3,3,0,0,0-.4-1c-3-5.3-.8-9.4,4.3-13.6-6,2.2-8.2-1.4-10.5-4.7,1.1-1.4-.9-5.5,4.3-3.5,2.9,1.1,4.5-3.6,3.8-6.8-0.2-1.1-1.4-2.3-2.4-3.5-2.2-2.6-1.7-5.6-.3-8.3,0.8,3.7,6.5,1.5,6.9,5.5,0.5,3.5,2.4,6.7,1.2,10.2-0.6,1.8-.5,4.2.8,4.8,4.7,2.1,7.1,4.2-1.5,8.4,14.6-4.3,9.4,12.8,19.4,11.4-2.4-6.7-3.3-14.6-11-19.1-3.8-2.3-.5-7-2.5-10.7-1.1-1.9-1.1-5-2.6-7.6,3.6-1,3.6,3.3,4.2,2.7,1.3-1.7,3.1-4.5,2.3-6-3.1-6.7-.4-14.2-3.7-20.9a51,51,0,0,0,16,5.7c0.7-2.3-2-3.6-4.2-5.1,3.3-3.6,6.8-.5,10-1.4,0.7-.1,3.5-1.5,1.5,1.6-0.5.8-.2,2.2-0.3,3.2,8.1-2.4,4.7,7.4,9.5,8.7,2,0.5,3.1,1.2,3.8-1.1,2.4-6.7,4.6-12.9,13.8-11.5,1.5,0.2,2.3-1.7,3.1-3.3-1.9-.1-3.8-0.1-8.1-0.2,10.9-5.9,19.3-3.4,27.6.8-0.7-13.2,11.8-7.3,17.6-11.4,1.5,2.8.3,4.9-1.1,7.2h-0.2c-2.3-6.2-6.8-2.6-10.4-1.6-1.4.3-4.9,1.5-3.2,3.8,2.7,3.7,3.4,8.1,3.8,12.1,0.6,4.9,9.6,7,3.9,13.7-0.4.6,2.8,4.4,4.7,6.4a1.7,1.7,0,0,0,2.6-1c0.6-3.9,5.4-3.8,7.4-7.8-6.1,1.8-9.2-.4-10-5.7,6-.8,1.3-4.1.3-4.1-5-1.3-4-6.5-6.3-9.4-1.4-1.9.1-3.8,1.2-3.1,4.3,3.4,3.5-2.7,5.6-2.9l0.1,0.5,0.2-.3c8.1,2.1,11.6,1.6,17-4.1,2.2-2.1,4,.8,6.3-0.9,4.8-3.2,10.7,2,16.1-1.5,1-.7,5.7,2.1,3.3,6.7a27.6,27.6,0,0,1,2.7-.8c-1.9-12.5,8.5-13.7,16.3-17.8-0.1,7.2-8.3,3.7-11.2,8.8,5.3-.7,9.3,5.4,14-0.1a3.37,3.37,0,0,1,2-.9c4.8,11.4,12.8-2.5,18.6,2.2,3.1-7.8,6.7.2,10.2-.5,2.5-.5,5.2-0.2,5.7-4.8,0.2-3.4,3.4-7.6,8.1-6.7,1.7,0.3,7.6,0,3.7,5.2-0.9,1.4-1.3,2.9,1.2,2.4,4.7-1.2,1.5,3.7,2.6,4.2,4.7,0.9,5-12.3,10.6-1.8,0.8-.7,2-0.9,2.7-1.8,1.2-1.2.1-1.7-.8-2.7-2.3-2.9-6.3-.6-9.1-3.3,1.7-3,10-3.6,4.6-9.8,0,0,.9-1.4,1.6-1.5s2.9-.9,2.3.7c-1.7,4.2,3.5,2.8,3.8,5.4,0.5,3.7,3.3,3.1,5.1,1.8,0.6-.4-1.1-4.1-0.1-5,2.1-2.4,5.9-6,7.2-5.6,3.2,1.5,9.9-1.9,9.3,6.6-0.2,3.4,4.3,6.9,8.9,2.6-1.6,4.6-.5,9.9-4.7,14.8,4.4-.7,7.3-1.6,10.2-1.5,4.3,0,1.4,4.2,3.1,5.8,1.2,1.2,1.1,1.9-.5,2.2-0.9.2-2.9,1.1-2.3-.7,0.6-3-.4-5.2-3.3-4.1-2,.7-6,1-4.5,5.7,1,3.4-1.8,6.1-4.8,4.1-5.3-3.4-8.6,4.5-13.8,1.5-0.8-.3-2.6,4.6-0.9,5,4.3,1,9.5,2,12.7.2a20.57,20.57,0,0,1,5.9-2.5c3.2-.7,6.8.5,9.9-1.6,0,0,.6.6,0.3,0.4,0.8,3.7-3,2.8-4,4.7,7.2,4.7,14.3-2.1,21.8,2.5-2.1-5.5-3.6-10.2,4.2-7.3,2.6,1.1,5.2-1.1,8.1.9,3.4,2.4,5.6,1.4,7.8-2.4,2.5-4.1,6.6-5.9,11.7.1-0.2-4.3,2.2-6.4,1.1-9.5-2.4-6.7-9.8,5.7-11.6-3a13.31,13.31,0,0,0-3.4,1c2.3,4-1.2,3.4-3.2,4-2.9,1.1-3.3-3.3-6.7-2.4-5.6,1.7,4.2,2,0,4.3-3,1.6-6.7,2.4-9.6,4.2-1.9,1.1-1.9-4.6-2.8-7.5-1.2-4.5-3.7-8.5-1.5-13.8,0.8-1.8-1.3-3.8-3.6-5.7-5.2-4.1-9.1,3.1-13.6,0,0.3-2-1.4-3-2.2-4.5-0.4-.6.2-2.4,1-3.1,1.4-1.3,1.3.7,1.9,1.3,4.8,4.5,10.6,3.9,13.2-2.1,1.6-3.7,2.8-4.7,6.6-3.6,5.8,1.4,8.1-4.6,11.8-7.3,1-.7,1.6-2.7,3.3-1.2,1.5,1.4-.1,1.7-0.7,2.5-1.1,1.7.5,3.5,1.3,2.6,4.1-4.4,8.1,4.2,11.4,0,1.3-1.7,3-2.6,5.3-4.5-3.3.2-5.6,0.5-8,.7l-0.6-1.8c3.2-1.6,3.6-7.9,9.5-5.8,5.2,2,7.9,6.7,10.6,10.6a37.07,37.07,0,0,1,4.8,13.5c0.7,4.4,4.9,3.7,6.8,6.2,0.6,0.6,1.3.4,2.1-.4,2.9-3.2-1.2-4.5-1.9-6.7-0.8-2.5-3.2-4.8.8-6.1,4.5-1.4,1.8-4.9,1.7-6.8-0.3-3.5-2.9-2.5-4.6-.4-0.4.3,1.4,2.1,1.1,2.9-0.7,2.3-2.4,1-3.3,0-0.9-.8-4.3-1-1.6-3.2a20.76,20.76,0,0,1,6.5-4c11.2-3.6,11.5-4.1,5.5-14.5-1.2-2.1-3.4-3.6.3-5.5,3.9-2,7.6-1.4,11.2,0a5,5,0,0,1-.2,1.2c-2.9,9,2.2,13.8,12.3,11.9,2.3-.5,4.1-3,7.8-1.4-4.5-3.1-3-7.2-2.7-10.6,0.3-7.5,6.2-2.3,9.3-3.4,5.7-2.2,13.7.4,17.4-7,3.4,2.6,7.3,3,11.4,3.1,9.1,0,17.9,0,26.9.7,5.8,0.4,15.4.8,16.8,2.6,4.8,7.1,4.3-4.3,6.7-1.2h0c-1.3,3.9,3,2.9,3.5,2.8,10.1-1.9,21,3.6,30.5-3.4a1.81,1.81,0,0,1,1.6-.1c7.1,10.9,16.6.8,24.7,2.9,1.8,0.6,3.9-.6,5.6-0.5,3.2,0.5,5-1.3,6.4-3.7,1.7-3.5,5.7-2.4,8.6-2.3,2.1-3.8-14.2-2.7-1.9-8.9,1.5-.8-0.9-2.9-1.4-3.3-3.9-1.6-7-8.3-11.5-3.5-2.1,2.4-4,2.3-6,2.2-13,.4-12.8.3-19.1,8.8-1.8-4.1,2.8-11.3-4.5-12.4-6.9-.9-14.8-2.1-19.8,5.4s-12,3-17.8,2.8c-1.9-.1-4.6-8.1-4.5-13.1,0.1-1.9,1.6-2.7,3.6-3.4,4.5-1.4,5.2,3.2,7.2,4.9,3.7-1.5.2-3.6,1.3-5,0.7-1.1-2-2.7.5-3.4,1.4-.3,3.1-0.9,4.3-0.2,8.7,5.1,8.7,5.1,19.2,2.6,1.4-.3,2.8.6,4.2,0.8,3.3,0,8.4,5.8,9.1-3.1,0.2-2.7,16-6.5,18.6-4.7,11.9,8.7,25.6,10.3,39.5,9.7,8.5-.4,17.4-1.1,26.1-2,7.2-.8,14.1-4.4,21.9-3.5,2.2,0.2-.1-1.4-0.7-2.2,6.1-2.7,11.9-3.7,16.3,2.7a3.91,3.91,0,0,0,3.1,1c5.7-2.2,11.5-2,19.6.4-3.5,1.5-3.6,1.2-9.4.8-6-.4-8.1,5.5-12,8.7-1.4,1.3,1.8,1.5,2.3,1.9,1.2,0.2,4.4,1.7,3.1-2.1-1.5-4.7,1.1-3.6,3.1-2.3,2.8,2,5.6,2.9,9,1.9a2.46,2.46,0,0,1,3,1.9,0.37,0.37,0,0,0,.1.3c0.8,7,.8,7,10.1,6-3.8,4.4-2.4,6.5,2.7,5.9a21,21,0,0,1,8.6,1,3.52,3.52,0,0,1,2.2,2.4c0.4,2.1-1.6,2.5-2.9,2.3-3.9-.6-3.7.3-1.7,3.2,1.1,1.9,3.7,6.1-2.5,5.3-2-.3-3.1.9-3.1,2.3-0.2,2.4,2.8,2,3.8,2.1,5.9-.1,11.7,2.5,18,0.5,1.1-.5,3-1.4,3.7.6,0.1,0.7.7,3.2-2.1,3.8-1.6.3-3,3.7-1.4,5.6,1,1.2,3.1-.2,4.6-0.7,10.4-3.7,21.3-3.1,31.8-.6,2.5,0.7,3.2.3,4.6-1,3.9-3.2,7.2-7.5,13.3-3.5,2.8,1.8,4.1-2.1,6.1-3.7,2.2-1.9,4.8.2,7.1,0.9-0.5.8-2.3,0.5-2.1,2.6,11.8-4.9,23.4-.9,35,0.9-4.3,0-8.7,1.8-12.6,1.3-7.4-1.1-10,5.7-15,8.2a82.05,82.05,0,0,1-26,7.7c-12.3,1.7-24.6,1.9-36.9,3.8-1.8.4-3.7-.4-3.1,2.1,0.4,1.8.3,4.7,4.1,2.2,1.9-1.3,4.7,1.9,8.7.3-3.4,5.3-7.6,3.8-11,7.8,5.1-2.8,10.3.4,11.9-6.8,0.9-3.8,9.2-.5,9-0.2,0.1,9.5,8.6,3.6,9.1,3.3,3.2-3.1,7.1-2.5,10.4-2.5,7.2,0.1,12.8-7,21.1-4-4.6,4.3-10.4,8.4-15.4,8.5-6.4.2-12.5,1.7-18.5,2.5a97.23,97.23,0,0,0-17.6,4.7c8.3-3.7,16.5,5.6,24.7.5a4,4,0,0,1,3.4,1.4c3.9,4.9,7,3.8,9.2-1.7a3.1,3.1,0,0,1,4.1,1.3c-3.9,3.9,1.5,3.7,3,5.3-6.5-.5-12.2,0-15.9,6,6.6-.4,13.3-0.4,19.4-1.7,6.8-1.5,6.4,4.1,8.6,7.7-12.7,4.4-27.2,3.2-39.6,9.9,2.2,2.6,5.3,3.4,6.8,2.6,9.7-3.7,20.5-2.2,30.3-5.7,2.2-.7,5.5-2.1,4.7,3.1-0.2,1.2,1.9,1,2.8.6,7.3-3.9,7.3-3.9,15.4-4-9.7,8.3-21.4,9.1-32,13.2,2.4,2.1,4.5-.2,7.3.8-4.9,4.9-15.9,1.7-16.3,12,2.3,0.7,4.3-3.5,7.2.1-4,1.6-7.3,3.9-11.7,3.4,4.4,2.6,8.2-.6,12.4-0.2,0.9,2.9-6.7,1-3.4,5.5,1.3,1.4.8,1.7,5.4,0.8a120.57,120.57,0,0,1,18-2.9c-11.1,4-23.4,4.5-31.9,14.7,3.8-1.3,7.5-2.8,11.4-3.4a191.26,191.26,0,0,1,20-2.3c3.3-.2,4.7,2.1,5.2,5.6,0.7,4.4-2.5,3.9-4.8,4.4-12.5,2.9-25.2,5.1-37.6,10.4,8.8,3.1,13.7,14,24.8,11-3,1.8-1.2,6.5-4.2,8.1,3.3,0,5.3,1.5,5.4,5.1,1.8-4.9,9.2.7,10-5.5,0.2-1.5.9-2.3,1.7-2,8.5,5.1,19.8-3.5,27.6,6.3-4.6-.2-7.7,4-12.9,2.3-1.8-.8-1.7,2.3-1.6,3.9,5.4-.4,7.3,10.8,14.4,3.9-1.1-1.9-4.5.2-5.3-2.7a2.36,2.36,0,0,1,.8-0.9c4.2-.6,7.4.1,8.8,4.6-8.9,5.2-22.5,1.7-27.4,14.7,8.6-2.3,17.1-1.5,25.6-1.9,1,0,2.8.6,2.9,1.3,0.6,1.5-1.2,3.4-2.3,2.9-4.8-2.3-5.9,7-11,3.3-0.3.8-1.3,1.9-1,2.1,3.7,6.1-2,5-4.2,4.7-4.2-.8-7.7,2.1-12.1,1.6-5.4-.8-2.2,4.1-3.2,6.4,4,0.8,7.8-3.8,11.2,0-5.5,1.2-5.3,9.9-12.4,9.1-0.2,2.4,1.1,2.9,3.4,3.6,6.1,1.8,10.8-1.8,16.4-2.3,3.1-.2,5.5-3.1,9.3.2,2.4,2.1,2.6-3.4,2.9-4.4,1.4-4.6,2.3-6,6.6-5,1.3,0.4,4.3-.2,4.1,2.2-0.1,1.7.4,4.2-3,4.9-1.6.3-7.3,0.6-4.9,5.1,2.4,4.7,4-2.3,7.1-1.3,1.5,0.4,3.6-1.2,5.3-1.8,1.7,1.3,4.7.9,4.9,4.2-9.8-.1-18.7,4.2-28.2,5.3a3.34,3.34,0,0,0-3.1,3.5h0c0.5,3.5,3.2,1.7,4.8,1.1,4.9-1.8,9.8-3,15.4-1.8-2.2.7-4.2,1.6-6.4,2.3l0.2,0.9a59.24,59.24,0,0,1,6.4-.4c-1.4,1.5-3.3,2.6-3.1,3.3,1.5,4.7-5,13.5-10.2,13.9-10.1.7-19.8,2.3-28.8,7.1-2.8,1.3-2.9,3-3.2,5.2,2.2,0,5.5,1,6.5.1,8.1-8.9,18.5-8.5,28.7-7.3-1.3,3.9-4.8,3.4-8.8,2.3,3.1,3.4,6.2,5.4,6.9,7.8,0.2,1.1-1.9,2.3-3.3,2.6,2.6,0.9,5.9,8.5,10.1.2,1.7-3.2,1.2,4.3,4.4,3.8-2.9.9-5.9,1.5-9.3,2.4,8.9,3.8,14.2-7.1,22.9-4.4-10.7,6.8-24.3,6.8-35.3,16.8a35.93,35.93,0,0,0,4.7-.3c4.8-.8,10.8-4,11.3,5a3.42,3.42,0,0,0,3.4,3.3,2,2,0,0,0,.8-0.1c4.1-1.1-2.6-3.3.3-5.1,2.1-1.2-2.1-1.9-.5-4.7,2.2-4.1,5-4.4,8.5-4.9,1.7,2.3-2.2,3.1-1.3,5.3,11.8-.8,21.9-8.2,35.2-8.2-8.6,3.3-16.2,5.8-23.5,8.6-4.4,1.7-4,1.6-3.6,6.7,0.4,4-3,5.2-5.7,4.8-6.2-2.2-10.5,5.4-17.8,6.3h0Zm-7.7-60.9c0.8,2.5,2.4,3.5,5.2,3,3.5-.5-0.4-2.8,1.1-3.8-1.1-1.7-1.2-4.7-4-4.2a3.85,3.85,0,0,0-2.4,4.8,0.2,0.2,0,0,1,.1.2h0ZM1701.1,87a32,32,0,0,0,12.7-.8c3.4-.7,5.2-1.6,6.8-1.5,2.9,0.3,3.5-.5,2.9-3.2-0.7-3.2-2.1-1-3.4-.5-2.2.7-4.5,0.2-6.6,0.2-4.1-.1-7.9-2.6-12.7-0.4-2.6,1.3-2.3,2.9-2.5,4.1-1.4,2.5,1.1,2,2.8,2.1h0Zm-482.6,24.6c5.1-.6,5,5.6,9.6,6.8-0.2-4.5-2.5-7.1-4.6-10.5-1.7-2.5-2.7-3.7-4.6-2.4C1216.8,107,1218.5,111.6,1218.5,111.6ZM50.9,413.9c-2.4-2.1-4.9-6.1-7.2-5.9-5.7.3-2.7,6.3-3.5,9.3-0.7,2.5,3.2,6.2,4.7,8.5C53.6,424.3,46.2,416.8,50.9,413.9Zm-1-10.3c-2.7-2.8-4,.4-6.2-1.1-5.5-3.4-11-.3-16.7,1.2a2.37,2.37,0,0,0-2.1,2.6c0,0.2.1,0.3,0.1,0.5,0.2,1.1,1.3,2.6,2.1,1.9C33.5,403.7,41.7,406.5,49.9,403.6Zm-5.7-30.3c-3.4-5.7-7.4-6.5-12.6-4.2,3.1,3.6,6.9,4.7,12.6,4.2h0Zm3.1-6.6c-2.7-2.5-1.5-11.4-6.2-7.8-4.1,3-4.2,1.4-6.5-.3-1.7-1.1-3.8-1.1-4.7.3-1.6,2.7,1.2,3.3,3,3.9,4.6,1.7,9.7,1.1,14.4,3.9h0Zm20.1,8.1c-7.4-5.8-12.2-6.7-18.6-3.4C55.5,371.6,60.3,378.7,67.4,374.8ZM62,345.2c-5.7-7.6-11.8-2.7-17.6-2,5.7,0.9,10.7,6.3,17.6,2h0Zm147.9-30.5c-2.7-3.7-6.1-.6-8.8-1,1.5,1.4,3.7,2.8,5,4.7,1,1.2.4,4,3.7,1.8C213.7,317.9,210.6,315.7,209.9,314.7Zm65.9,3.6c-3-2.7-7.4-1.3-9.6-4.6-1.8-2.7-2.8.4-3.9,0.8-2,.9-2.3,2.6-0.9,4.7,0.4,0.6.4,2.8,1.3,1.9C266.2,317,271.8,321.8,275.8,318.3Zm-1.2-26.7a0.28,0.28,0,0,1,.2-0.3h0l-0.2.3h0c-1,3.3-5.9,3.6-6.1,8.4,2.7-1.8,4.6-3.1,6.7-4.5,1.3,2.8,3.4,5,4.9.6,1-3-2.4-4.4-5.5-4.5h0Zm26.1,7.1c5.4-5.9-4-4.4-4.4-8.4-0.2-2.1-5.4-.8-7.4,3.5,6-2.2,5.8,4.7,9.9,5.3-1.8-.8-2.9,4.4-5.6.7-0.3-.4-2.9.9-4.5,1.4,1,1.5,1.8,3.9,2.7,3.9a27.32,27.32,0,0,0,9.8-2.1c1.7-.7,2.6-3.3-0.5-4.3h0ZM312.1,286c-1.9,2.3-5.9,3.9-5,6.8,1.2,3.3,3.5,7.4,8.5,6.3,4.8-1,6.6-2.6,6.4-4.7-0.8-6-7.3-5.1-9.9-8.4h0Zm56.7-18c3-.4,5.8-0.8,8.6-0.9,3.7-.3,6.2-2.3,6.1-6.1-0.1-2.8-1.4-5.4-4.5-5.3-3.7.3-7.1,3.4-6,6.8,1.7,4.7-3.4,2.5-4.2,5.5h0Zm96.5,429.9c-1.9,2.3-2,5-2.1,8.1l8.4-1.8c-0.1-4.1-4.2-4.2-6.3-6.3h0ZM387.9,272.5c-1.5-3.5-6-4.5-7.7-2.7-6.3,6.1-15.5.2-21.8,6.1-1,.9-2.8,1.5-4.2,2.6-3.6,2.2-5.5-3.4-9-1.9,0.6-1.6,1.2-3.4,1.8-4.9-5.8,1-5.8,1-4.7,6a1.93,1.93,0,0,1-.4,1.5c-4.1.9-5.1,12.1-11.9,3.5-0.7-.8-2.7-0.4-4.2-0.5,0.3,2.6,1.4,5.4.5,6.8-5.3,7.6,1.8,5.3,3.8,4.2,6.5-4,17.4,1.1,20.6-9.6,0.1-.5,2-0.9,2.3-0.5,2.7,2.8,6.2,4.6,7.4,8.9,1.5,4.7-3.7,2.9-4.1,5.6,4.4,2.6,8.7,8.4,11.5-2.2,0.5-2,6.1-7,10.4-3.7,1.7,1.3,2.4,3.5,5.2,3.2-1.3-3.8,5.8-8.4.5-11.1-6.4-3.4-.2-5.2.5-5.4C389.2,278.2,389,275.4,387.9,272.5ZM488.5,697.2c-3.4,2.1-5.3,6.6-8.2,2-1.8-3-2.6-.9-3.5,1.5-0.8,1.8-1.8,2.5,1,3.6,5.4,1.7,8.4-.1,10.7-7.1h0ZM412.1,334.4c-0.9-1-1.8-1.8-2.8-.8-0.6.6-.6,3-0.3,2.9,6.8,2.6,2.8,11.8,9.7,14.4-0.6-6.1-2.5-11.9-6.6-16.5h0Zm120.8,366c-6.1-.8-9.8-3.6-14.5-3.1-2.3.3-3,1.4-3.2,3.1s0.4,3,2.8,3.2c4.4,0.3,8.8,1,14.9-3.2h0ZM483.9,301c-6-5.9-9-.9-12,3.3-0.8.9-4.1,0.9-1.9,3.5,1.6,1.8,2.8-1.3,4.5-.2,1.8-4,3.5-2.7,6.4-.4,2.3,1.9,4.4-.7,4.9-2.7A4.07,4.07,0,0,0,483.9,301Zm15.9-43c-1.4-2.1-3.6-4.7-5.5-4.8-3.3,0,.1,5-3,6.1,1.8,3,.8,6,0.1,10.7,3.4-3.1,2.6-6.8,5.8-7.7,2.1-.3,4.7-1.4,2.6-4.3h0Zm27.1,47.5c-0.7-.1-1.8-0.6-2-0.3-2.7,3.9-5.7.3-5.2-1,0.9-2.6-3.5-6.2,1.5-7.5,2-.7,3.2-1.6,1.4-3.6a17.38,17.38,0,0,0-2.9-2.5c-1.9,5.9-8,.7-10.6,3.9,8.4,2.5,1.9,13.2,9.3,16.9,4.2,2-3.9,5.1-1.3,8.6,5.6-1.9,2.7-10.8,9.4-12a6.9,6.9,0,0,1,.4-2.5h0Zm52.2-13.7c3.6-5.3,12.4-5.5,13.3-13.6,0.4-4.9-7.4-2.2-6.8-7.4,0,0-2.5-.4-3.9-0.6a1.49,1.49,0,0,0-.3.8c2.1,4.1-.1,4.1-3.5,5.8-4.3,2.3-5.8,4.1-8.7.7-1.3-1.4-.9-5.3-3.8-4.2-3.7,1.5.1,4,.3,6.1a11.31,11.31,0,0,1-.1,4.1h-0.2l0.3,0.2-0.3-.2h0c-5-3.5-12.8,1.5-17-5.7-1.8,2.5-.4,7-4.9,7.2-0.2,0-.7,1.1.7,2.2,9.4,7.1,9.7,14.2,1.5,24a2.42,2.42,0,0,0-.1,3.1c0.8,1.5.9-.2,1.4-0.3,1.3-.5,6.2,1.3,6.4,2.9,0.4,2.8,1.2,4.3,4.2,2.7,9.3-4.6,11.4-13.6,5.6-22.9-3.6-.2-5.7-1.2-2.8-5.1,5.2-.4,3.9-5.1,5.2-8.3l0.3,0.2v-0.2c5.8-1.7,10.6-1.8,9.6,6.8-0.2,3.2,1.9,3.9,3.6,1.7h0Zm11.7,10.3c4,0.8,8.6-1.1,10.8,3.7,0.4,0.6,2.5.7,3.5-1.5,2.3-4.8-1-7.9-2.5-11.6-0.4-.9-2.5-0.7-4-1a2.84,2.84,0,0,0-.4,1.3c4.1,8.4-5.6,4.2-7.4,9.1h0Zm17.9,7.9c-0.3-1.6-2.8-3.2-4.1-2.2-3.7,2.9-7.6,1.1-11.4,1.2,3.6,3.3,7.4,5.6,12.2,3.6C606.8,312.1,609.2,312.5,608.7,310Zm-12.3-55.8c2.2,4.5,1.8,9.4,6.2,14.4-0.3-6.6,1.3-11.7-6.2-14.4h0Zm43.8,47c-3.7-9.5-11.7-4.7-15.2-2-5.1,4,1.2,8.8,2.8,13,7-.6,2.9-13.3,12.4-11h0Zm16.8-22c0.3-6.3.1-10.8-7.7-10.5-0.2-3.1,5.8-4.3,2.5-7.2-1.5-1.4-5.8-2.6-8.4-.1-1.2,1.2-1.2,1.2-2.1.2-4.2-5.3-9.8,6.8-14-.8-1.4,9.1-7,.5-10.2,2.4,0.9,3.1,1.8,6.3,5.9,6.4,1.9,0.1,4.2-.6,4.6,2.4,0.3,2.6-1.8,2.5-3.4,2.9s-2.6,1-2.3,2.9c0.2,1.1.8,2.5,2.1,2.2,4.2-1.4,6.2,1.3,8.3,4.2,1.3,1.9,3.6,1.1,4.8.2,2.9-2-.5-2.3-1.2-3.3-1-1.2-1.7-2.5.2-3.4,1.1-.5,1.8-2.5,3.6-1.2,2.3,1.7,5.4,1.9,5,6.6-0.3,6.5-5.6,1.7-7.7,4.3,1.2,1.2,1.3,4,3.9,3.7,4.7-.3,4.4,1.7,4.3,5.8-0.2,4.8,3.2,9.6,6,13.7,1.1,1.7,2.9,1.5,4.2-.6,0.9-1.4,1.4-3.4-.3-3.5-6.5-.5-2.4-0.2-0.5-2.5,2.7-3,9.4-5.3,4.3-12.1-1.8-3.4-2.2-8.5-1.9-12.7h0Zm2-40c-4.4.5,1.1,10.7-8.2,6.3,0.4,2.8.2,6.4,4.6,4.7,5.7-2.4,3.2-7.1,3.6-11h0Zm38,55.1c-0.7-2.2-1.8-2.7-4.2-2-1.2,2.4-6.1,1.5-5.4,5,0.6,3,4.1,2.2,6.6,1.7,3-.1,3.6-1.7,3-4.7h0Zm-6.7-44.6h0.2l-0.3-.2,0.1,0.2c-2.5,1.7-6.2,2.3-6.8,5.3-0.3,2,4.1,4.6-1.6,5.8-6.4,1.4-.6-5.1-4.1-5.8-1.5,4.4-1.7,8.9-5,12.5-1.6,1.5-.2,2.7,1.1,3.1,3.1,1,2.5-.5,1.6-2.5,2.3-.5,3.9-3.9,6.4-2.3,1.7,1.3,3.9,2.5,2.7,6.1s0.8,7.2,2.2,10.5c0.7,2,2,1.7,3.6,1.1,1.8-.6.8-1.8,0.7-3.3-0.4-5.2-4.4-10.7-.8-15.1,5-5.7,2.1-10.3,0-15.4h0Zm147.5,13.5c-2.1-2.2-3.7-7.1-6.2-6.6-4.6,1-.8,4-0.3,6.3,0.4,2.1-1.6,1.5-3,1.6-2.6.1-1.1,2.6-2.1,3.8,6.4,0.8-.3,6.3,2.3,7.6,1.5,2.5.2,6.4,3.4,6,3.5-.5,3.6-4.3,3.1-6.9s-3.3-4.3.8-6.1c2.5-.8,4.8-2.7,2-5.7h0Zm-20.4-22.8c1.4,1.1,3.2,3.6,6.1,1.8,1.9-1.3,4.4-1.9,6.6-2.8-1.2-3.6-5.1,3-5.2-3,0.1-1.9-3.9-2.5-5.8-.4-1,.9-3.7,2.6-1.7,4.4h0Zm6.6,25.3c0.9-2.3.2-4.8,2.1-7.1,2.1-2.6-2.1-4.1-1.5-6.8,0.2-.3-1.6-0.6-2.9-0.1-3.8,1.3-2.6,4.6-2.4,6.7,0.1,2.7,1.1,6.1,4.7,7.3h0Zm-96-3.9c2.1,1,1.8,2.7,2.1,4.3,1,4.8,6.9,5.7,8.2,10.4,2.7-.8,2.1-5.9,6.4-4.5,0.5,0.1,2.4-2,1.7-3.5-1.3-2.6-2,.9-3,0.4-1.9-1-5.7,1.4-5.2-1,1.3-8.4-5-.1-6.3-3.7,0.4-.6.6-1.6,0.9-1.6,7.2-1,5.6-6.4,3.5-9.6-4.6-7.1-5.8,6.5-10.5,2.5-0.3,2.5-.7,5.2,2.2,6.3h0Zm-27.2-17.9c0.8,1.5,3.7,1.6,5.6,2.6,0.4-2.5,1.4-5.8,1.4-9.4,0.1-1.9-2.9-1.1-4.4-1.7,0.9,3.5-4.7,5.4-2.6,8.5h0Zm2.1,49.2c-1.6,4.9,3.3,9.8,7.2,10.4,5.6,0.7,1.9-5.9,3.9-8.5a0.44,0.44,0,0,0,.1-0.5c-2-1.7-5.1,5.1-4.8-1.4,0.2-4.6-1.9-6.5-5.4-6.2-5.6.2-.3,3.9-1,6.2h0Zm95.3,375c-4.9-3.7-9.9-2.7-15.1-.4,4.8-.8,8.4,1.5,11.4,4.5,0.9,1,.3,3.5,2.6,2.3,1.7-.8,3.8-2.2,4.4-3.8,1-2.6-2.2-1.9-3.3-2.6h0ZM725,266.9a24.88,24.88,0,0,1-1.1-2.9c-2.9,4.4-6.7,2.4-10.5,2-3.4-.2-7.5-1.7-6-4.7,1.4-2.4,2.5-4.1-.2-5.2-1.6-.6-4.3,0-5.8,1-2.5,1.7-1,4.3.1,5.9,2.2,3.6,4,6.5.6,10.6-1.7,2,1.3,5.2,3.6,3.3,3.8-3.7,7.5-1.8,11.3-1.9,5.2-.1,4.3-6.3,8-8.1h0Zm84.5,388.3c-2-4.8,1.8-7.1,4.4-9.8-5.8-4.7-10.5.1-16.2,0.3,0.3,4.9,9.5,4.4,5.7,11,0.8,0.5,1.9,2,2.8.6C807.1,656.2,810.6,658.3,809.5,655.2Zm13.9,11.6c-0.8-3.7-3.2-2.9-5.4-.8-3.5-1.7-5.9.5-4.8,3.2,1.2,3.3,5.9,3,8.8,3.1,3.1,0.1,1.5-4.1,1.4-5.5h0Zm-72.9-380a7.17,7.17,0,0,0-4.8.8c-1.7,1.1-.7,2.3.7,3.2,2.2,1.4,3.7,3-.6,3.7-0.2,0-.7,3.5,2,3.9,2.1-1.2,4.1-3.3,3.4-5.3s3.1-5-.7-6.3h0Zm-3.6-49.6c0.5-3.4-.3-7.1-0.4-10.7,0.1-3.1-2.6-3-4.6-3.8-4.1-1.5-1.7,2-2.5,2.9-2.1,2.6-5.1,4-7.6,5.9-1.8,1.6-1.4-3.3-3.3-4.1s-4.1-4.6-5.9.1c-1.2,3.1,1.7,4.6,3.1,6.7,1.1,1.7,2.7,2.5,5.2.8,2.3-1.7,5.2-2.3,10.1-4.3-3.5,5-5.3,8.5-1.6,12.7C739.8,238.7,746.4,241.9,746.9,237.2Zm41,41.4c-3.9-1.3-1.6-6.3-5-8-1.3-.6-2.6-1.1-3.9-1.6,1.9,4.4-4.4,4-4.3,6.6,0.2,4.3-3.6,1.2-4.4,2.8-5.5-8.1-9.6.6-14.7,1.7,7.9,0.2,15.9.7,23.8,0.7C782.4,281,785.9,281.6,787.9,278.6Zm9.2-19.4c-1-9.3-7.1-11.9-16.6-13.2,4.1,2.5,1.6,7.3,3.1,6.5C791.5,248.7,791.6,259,797.1,259.2Zm2.2,5.8c0.1-.5.5-1.1,0.6-1.6a2.27,2.27,0,0,0-.6,1.6c-1.7,3-5.7,2.2-7.2,4.2-3.7,5.1,3.6,12.6,9.1,9,6.4-4.3-2.6-8.3-1.9-13.2h0Zm99.1,392c-4.4-5-8,1.7-12.5.7C890.3,661.4,890.3,661.4,898.4,657ZM825.5,279.4c-8.5-4.2-6.3-12.7-10.4-18.5a24.34,24.34,0,0,1-4.3-7.9c-1.4-4.2-1.7-11.6-6.4-12-5.4-.5-3.4,7.6-7.4,10.2,3.9,3.9,8.3,6.4,11.6,10.7,2,2.9,7.2,3.7,4.1,9.1,4,2,2.1,7.4,5.1,9.4,1.2,0.9,4-.4,7.7-1h0ZM926.4,651.8c-7.8,1.7-16.2.1-22.3,5.9a16.61,16.61,0,0,0-1.4,1.3,8.63,8.63,0,0,1,1.4-1.3C910.5,652.1,920.4,658.6,926.4,651.8ZM866.5,254.7c0.4-1.3.9-2.3,1.4-3.6s0.2-2.7,1.6-3.7c2.1-1.4,1.6-2.5-.7-3.4-2.1-.8-3.5-0.9-4.4.7-1.6,3.9-4.6,7.9,2.1,10h0Zm12.1-1.6c-4.1,2.1-6.4,1.4-7.5-1.7-0.8.9-2.2,2.1-1.8,2.8,2.7,8-9.7,15.2-1.2,23.6,0.6,0.6.3,2.3,2.1,1.9,1.1-.2,2.6-1,1.9-2.3-2.8-4.2,1.4-4.8,3.1-5.7,2.4-1.2,2.4-2,.7-3.5-3.9-3.7-1.1-7.4-.2-11.2,0.2-.9,1.2-1.6,2.9-3.9h0Zm-4-29.7c-0.3-2.3-3.6-2.6-5-2.3-4.5,1.2,1.8,5.1-1.5,7.7-1,.7,1.5.4,2.3,0.7,2.6-1.5,4.5-3.5,4.2-6.1h0Zm18.5,26.1c0.4-3.7-3.2-2.9-5.5-3.6-1.8-.6-1.8,1.6-1.7,3,0.4,3,1.8,4.9,5,4.7,2.3,0,2.7-1.5,2.2-4.1h0Zm15.6-6.1c-1.6-4-2.4-10.2-9.7-7.5a3.5,3.5,0,0,1-2.9-1.5c-2.3-4-2.1-4.1-6.3-2.5,4.4,7.4,18.5,8.2,13.9,21.4,5.9-2.3,6.5-6.4,5-9.9h0Zm16.4,12.9c3.2,0.3,1.5-2,1.8-3.7,1.8-8.5.2-16-5.9-23.3a14.79,14.79,0,0,0-1.1,6.2c0,5.7,1.7,11.3,2.4,16.9,0.2,0.9-2.7,2-1.6,3.9,1.3,2.4,2.7-.1,4.4,0h0Zm87.8,372.6c-4-5.6-6.9,4.3-11,.9,3,3.9,6.3,4.9,10,1.9,0.5-.6,1.3-2.4,1-2.8h0Zm-67-365.5c-2.8.1-2.4-4.7-5.6-3.8s-2,4-2.5,6.3c2.4,0.2-.4,5.1,4.6,3.8,1.4-1.6,3.4-3.2,3.5-6.3h0ZM945,244.7c-1.5,4.4-3.4,7.4-7.7,7.6-1.9.2-2.6,0.3-2.1,2.4,0.3,1.4,1.1,1.7,2.5,1.8,6.2-.1,9.4-5.1,7.3-11.8h0Zm-1-10.3c3.1-8-5.8-2.6-6.3-6.1-1,.9-2,1.9-2.8,2.5,6,1.1,4.1,8.2,8.2,10.7,1.1,0.7,1.6-.1,2-0.7s1.6-1.5-.2-1.9c-3.6-.6-1.4-3.4-0.9-4.5h0Zm-7.5-44.2c-0.9,9,5.8,15.9,7.5,25.1,5.4-5.9.8-21.1-7.5-25.1h0Zm27.2,8.8c-5.6-1.7-.2-7.6-3.8-10.2-1.8-6.3-1.8-6.1-9.8-3.6-2.5.8-5.3,0.7-3.4,4.3,1.5,2.5-1.8,8.3,4.9,7.5,4-.4,6.6.7,6.6,5.3,0.2,1.9,1.2,3.3,3.3,3.3a3.78,3.78,0,0,0,1.2-1c-2.8-2.2-1.3-3.9,1-5.6h0Zm9.7,8.9c-0.3-1.6-1.7-2.3-3.2-2.7-0.3-.2-1.6,1.5-1.3,1.7,3.3,6.7-.9,15.9,8.2,21.9,0.8-7.8-2.5-14.3-3.7-20.9h0Zm57-19.3c-6.1-5.1-14.5-8.8-14.3-18.9,0.1-.5-3.5-1.7-3.5-1.7-4.6,8.6-3.6-2.3-6.7-1.2,4.8,5.9-1.8,7.1-4.7,10.3,4.6-1.7,7.3-.6,8,4,0.5,3.5,1.5,6.8,2.3,10.7,5.4-3.8-.9-8.9,3.4-11.9,2.2,7.9,10.5,6.6,15.5,11,0-1.1.3-2.1,0-2.3h0Zm7.1-22.7c-3.3.2-7.4,2.3-10.4-1.8,7.5-4-3.6-5.7-1.2-8.8,0.9-1.2-.3-4.9,3.1-3.3,1.1,0.5,1.7,2.5,2.9.3,1-1.9-1-2.6-2-2.7-3.8-.1-8,0.5-12.2-4.6,1.3,7.4.1,12.9,3.5,16.4,3.5,4.3,1.7,9.2,3.4,13.6,3.6,9.2,6.9,0,10.3.4,2.2,0.5,2.2-2.1,2.1-2.4-6.7-2.7,2.8-4,.5-7.1h0Zm101,437.7h-0.2c-0.9-2-2-3.9-2.9-5.8-0.7-2-.9-4.3-3.8-3.2-3.3,1.4-1.5,4.1-.7,5.9,1.5,2.8,3.7,4.9,7.4,3.2v0.2Zm-79-448.6a7.4,7.4,0,0,0,1.9,5.6c3.3,4.1,1.2,10.2,4.7,14.3-2.4,1.2-2.7,3-1.1,5a2.44,2.44,0,0,0,2.2.2c1.6-1.5,3.8-3.4,3.3-5.9-2-7.3-2.3-15.6-11-19.2h0Zm4.6-13.4c-1-3.6-2.4,1-4.3.2-2.7-1.3-2.1-4.1-3.4-5.7-0.7-.8-3.1.2-4.7,0.3,6.4,3.2,4.3,8.9,5.5,15.8,2.6-4.9,8.2-5.4,6.9-10.6h0Zm34.4,23c-3-.6-4.7,10.5-8.2.8-0.4-.9-1.3,1.7-2.1,2.6-2.6,3.4-5.4,8.1-10.8,5.2-1.9-1-2.8-1.8-4,.1-0.5.8-.9,2.6-0.6,3,0.9,1,2.6,2.3,3.5,1.9,3.9-1.8,9.4,1.4,13.4-3.3-0.3-.2.2,0,0.7,0.1,8.1,2.1,8.7,1.5,9.3-7.7,0.5-1.6,2.8-2.1-1.2-2.7h0Zm9.7-15c1.1,0.5,3.2.3,3-.6-1.2-5.7,5.8-11,.6-18.3-1.8,6.1-2.9,10.9-4.6,15.5-0.7,1.9-.6,2.6,1,3.4h0Zm98.9,428.9c-2.7,4.2-8.3.3-8.7,6.4-0.2,1.5,0,2.4,1.3,1.9,3.2-1.2,9,.7,7.4-8.3h0Zm7.5-10.4a60.74,60.74,0,0,1-7,2.9c-2.2.7-4.6,1-6.8,1.5-1.1.2-2.3,0.5-2.2,2.1a3.29,3.29,0,0,0,.8,2.5c2.8,2,13.2-3.8,15.2-9h0Zm-89.1-410c-4.9,7.2-9.2,8.4-16.8,4-0.6-.4-1.1-2.9-1.8-0.8-1.3,3.9-3,8.3-.5,12.3,1,1.5,3.5,2.8,5.1,2.5,3.2-.5,1.1-3.6,1.7-5.4,0.4-1.3-3.1-3.4.6-3.7,4.9-.3,9.6,1.5,14.5,1,2.6-.3.7,4.6,3.2,6.2C1138.7,164.9,1120.5,166.8,1125.5,158.1ZM1246.7,562c-8.8-2.2-12.8,2.7-16.1,9.4,5.5,3.4,7,.4,7.1-4.6,3.3,0.7,3.5,5.2,7.4,5.6,0.2-3.9-1.4-7.9,1.6-10.4h0Zm-79.1-405.7c-5.7-1.9-6.8,4.1-11,6.6C1165.2,166.1,1165.8,165.8,1167.6,156.3Zm4-21.6c1.9-1.3,4.5-3.6,2.9-6.4-1.9-3.4-3.3.2-5.1,0.8-3.6,1-8,1.7-9-4.3-7.4,9,4.3,5.8,5.4,9.6,0.9,3,4.4,1.3,5.8.3h0Zm116.8,434.9a3.69,3.69,0,0,0-2.4-3.3,2.74,2.74,0,0,0-4.2,1.4c-1.5,4.1-3.6,4.3-7,2-0.6-.4-1.6.1-2.5,0.5-2.7.8,4.4,2.6-.2,3.4-2.8.4-3.9-1.6-5.5-3.4-1.2-1.2-2.7-.2-3.9.8h0c2.5-4.1,1.4-8.2-.6-13-2.1,3.8-7.8,6.2-.9,10.2,0.8,0.3,1.1,1.7,1.5,2.5l0.1,0.5h0c-1.8,1.6-3.2,4.2-2.1,5.7,1.1,1.7,3.6.2,5.7-.3l18.7-4c1.5-.5,3.7-0.2,3.3-3h0Zm-65.7-410.2c-1.3-6.2-6.7-2.4-10.6-5.1,0.9,7.4,6.6,5,9.6,6.8,1,0.5,1.2-.8,1-1.7h0Zm55.1-1.9c0.7-3.3,1.9-6.6-1.3-9.5-0.9-.8-1.7-3.5-2.9-1.1-2,5-6.8,2.6-10.2,4.6,1.6,6.6,8.6,3.6,12,7.2,0.8,1,2,.3,2.4-1.2h0Zm80.5,350.2c-3.4,4.3-5.8,8.4-.4,12.5,2-4,10-7.6.4-12.5h0ZM1298.2,104c0.3-2.9,4.6-4.3,2.5-8.4-2.5-5-5.6-1.7-7.7-.5a19.25,19.25,0,0,1-11.8,1.6c-1.2-.2-2.7-3.5-3.6,0-0.4,1.5-2.2,4.1,0,4.5,5,1.1,2.5,6.1,5.3,8.2,2-.9,4.9-2.9,5.9-2.5,4.4,2.9,5.5-4.2,9.4-2.9h0Zm18.2,14c-0.8-1.7-2.5-.7-3.8-0.9-3.6-.2-7.3-0.8-10.8,4,4.2-.4,6.9,0,8.5,3,0.7,1.3,2.8.8,3.8-.1,1.9-1.4-.5-4.7,2.3-6h0Zm19.2,7.1c0.9-1.6,1.7-3.5,2.7-5.1-4.3.9-2.4-6.7-7.3-6.1-2.6.3-4.4,1.9-4,4.7,0.4,4.9,6.1,3.7,8.6,6.5h0Zm108.5,432.8c-3.7.5-6.4,0.4-6.7-3.6-0.7-8.9-5.1-8.4-10.8-3.7,6.3,2.5,5.6,2.9,6.3,3.7,3.6,6.6-4.8,2-4.8,5.3,0.4,4.2,5.7,2.1,7.1,5.2V565h0c0.8-4.9,6.5-2.7,8.9-7.1h0Zm-5.7-28.8c-4.1,2.1-8.4,3-10.9,7.1,2.9-3.3,11.3,2.6,10.9-7.1h0Zm-30.1-427.8c0.1,1.4-.4,3.7.2,4.3,2.3,1.9,2.1,7.7,6.1,6.1,3.6-1.2.1-4.1-.8-6-0.7-1.3.3-2,1.3-2.7,5.9-3.6-2.2-5.7-1.3-9.3,0.3-1-2.8-.6-4.2.4-2.9,2.1-4.5,4.3-1.3,7.2h0Zm-13.2,8.6a21.59,21.59,0,0,1,7.9-6.5c2.8-1.3,2.1-4.5,1.4-7-0.1-.7-1.1-3.1-1.5-1.6-1.4,4.8-7.7.9-6.4,2.3,4.1,5.1-3.7,7.7-1.4,12.8h0Zm-32.2-33.7c6.4-1.4,5.6-6,6.5-9.7a2.61,2.61,0,0,1,2.8-2.5h0a1.71,1.71,0,0,1,.9.8c-3.2,9.5,4.5,3.3,6,3.5,5.4,0.8,5.5.3,5.6-1.9-0.2-4.3-2.7-5.9-6.7-5.5-2.8.4-6.5,2.1-8.4,1.1-7.3-3.9-7.5,1.6-8.1,5.5-0.8,2.7.8,5.7,1.4,8.7h0Zm-3.8,14.6c5.6,6,4.1,11.3,5.3,16,0.2,0.9-.2,2.4,1.2,2.4,1.2,0,3-.6,3.5-1.5,3.4-5.4-.4-13.2-10-16.9h0Zm17.9,33.9a4.8,4.8,0,0,0,3.3.7c1.9,0.1,1.1-1.4.9-2.3-0.7-6.5,3-10.4,7.8-13.8,2.7-1.8,4.5-4.8,3.3-6.9-1.8-3.9-5.8-1.6-7.7-.3-3.1,2.3-5.4,4-8.9-1.7,2.3,9.8,1.3,9.3-6.4,11.6-4.2,1.4-11.3-.2-13.7,7.4,11.6-2.9,13.4-2.3,21.4,5.3h0Zm75.7,367c-0.4-2.1,1.5-5.3-2.8-4.2-2.9.9-4.8,2.2-3.9,5.4,0.7,3.4,3.3,7.6,5.8,7.1,4.7-1.5.2-5.8,0.9-8.3h0Zm52,33.5c-3.8-1.1-9.2-.7-10,2.1-1.3,5-4.4,5.2-8.1,5.5-6.1-1.8-8.1-.9-12.9,4.4-0.6.6-2.6,1.3-3.1,0.9-5.2-4.1-8.5,4.7-13.7,1.7-1.9-1-3.5,1.5-3.2,2.8,0.3,1.6,2.2,2.4,4.1,1.3,9.2-4.8,20.1-4.3,29-9.5,4.5,0,9.3-3.2,13.7.4h0a0.25,0.25,0,0,0,.3.2h0c-1.5.8-2.9,1.1-2.1,3.5,1.3,4,2.3,8.3-4.4,9.8,12.1-1.6,13.4-4.5,6.2-13.5h0.2l-0.3-.2c3.4-.7,2.1-4.7,4.9-6.1,2.8-.6.9-2.6-0.6-3.3h0Zm-0.4-18.5c-0.8-1.5-.3-4.9-3.5-2.8-1.7,1.1-2.3,2.9-.3,5.1,3.1,3.4,3.9,7.3.6,11.6,6.9-3.2,6.4-8.1,3.2-13.9h0Zm4,22.3c4.7-1.2,8.6-2.3,12.6-3.4-4.9-7.5-4.9-7.5-12.6,3.4h0Zm43.5,1.5c-3.5,1.5-.4,4.9-2.3,7.2,4.7-.5,9.4-0.6,10.7-5.8a3,3,0,0,0-2.3-3.7,3.3,3.3,0,0,0-1.4,0V528h0c1.2-3.1,4-6.1.3-8.9-1.1-.7-4.8-0.2-5.1,2-0.1,2.9-.2,6.7,4.6,6.9l-0.2.3h0.2c-0.3,2-.5,4.2-0.7,5.6-4.7,2.3-.5-4.8-3.8-3.4h0Zm-17.8-6.3c0.6,1.5-1.6,2.7-3.5,3.8-6.1,3.9-13.8,3.6-18.2,6.5-2.5,4.1,9.5-.1,1.6,6.3,0,0,.7,1,1.1,1.7,3.2-3.1,8.3,4.4,11-2.3,1.4-3.6,11.8-.4,7.8-9.3a42.35,42.35,0,0,1,5.8-1.7c3.9-.8,7.8-1.4,9.9-7.1-3.5,1.5-5.6,1.9-8.1,3.6-3.4,2.1-4.3-4.3-.4-8.7-3.8.8-10.3-.9-7,7.2h0Zm17-31.5c-5-.9-14.1,5.4-12.4-6.7a3.23,3.23,0,0,0-2.1-.8c-1.1.2-3,.6-2,1.9,4.6,7.1-3.4,4.3-5.3,6.4,7,6.2,15.5,5.8,21.8-.8h0Zm-88.8-370.2c3.5,2.1,5.6-1.9,7.9-5.3-4.2,4.9-4.5-1.9-6.5-1.2-3.7,1.3-4.7,4.6-1.4,6.5h0Zm9.4-19.8c-1-3.4-2.3-5,2.8-4.7,1.5,0.2,4.2-2.6,2.7-5.3-0.4-.6.7-2.5-2.4-2.1-8.5.6-8.9,11-16.2,12.3-0.2,0-.4.6-0.6,0.6-3.3,3.3-4.9,1.8-8.4-1.5-4.4-4.1,1.5-8.7-1.9-12.5-0.9-1-1.5-2.8-2.7-2.8-1.5-.2-1.6,1.3-2,2.8-1.4,4.8-2,5-6.5,3.3-0.8-.3-2-2.7-1.9-1.3,0,5.7-4.6,5.3-8.9,6.4,5.1,4.9,14.3-1.4,15.5,7.9-1.8.4-3.9,2.7-6.3-.6-1.4-2.1-3.7-3-6-1.1-1.6,1.3-.2,2.7,1,3.6,1.5,1.4.2,4.5,5.2,3,10.5-3.2,21.8-3,32.8-3.9,4.6-.3,4.5-1.9,3.8-4.1h0Zm93.5,380.4c-2.7-4.7-4.1,2.1-6.9,1.2-1.5-.4-3.5.5-5.3,0.9l0.2,1.1c1.5,0.2,2.9.1,4.8,0.2-1.5,2-4.9,1.8-4.5,4.8,2.1,1.9,6.5-.9,7.8,3.1a0.28,0.28,0,0,1-.2.3h0l0.3,0.2-0.1-.5a9.19,9.19,0,0,1,1.6-2.7c4-2.1,4.2-5.5,2.3-8.6h0Zm58.1-13.1c0,0.2,2.8-.4,2.9-0.9,1.5-8.7,8.4-5.1,13.3-5.7,3.7-.3,7.1-0.1,8.6-4.2,0.8-2.1.6-6.3-.5-5.6-3.8,2.2-8.7-5.1-11.3,1.9-0.9,2.6-3.2,3.1-4.7,1.2-2.1-2.2-3.1-2.4-3.9.8-0.8,4-3.5,3.8-6.6,2.8-1.5-.4-3-2-4.6-0.2-1.9,2.3-6.1,3.7-8.7,3-4.3-1-4.5-1-5.2,3.7a3.94,3.94,0,0,1-3.6,3.4c-5.1.6-10.8,2.1-12.2-6.7-4.2,4.9,1.7,12.3-6.8,13.9,7-.8,14.3-4.7,19.4-3.9,6.1,0.8,9.1-7.7,14.7-2.9,2.8-5.7,5.9-6.1,9.2-.6h0Zm30.3,0c-1.2-.9-2.7-2.5-3.9-1.3-5.9,5.8-14.4,1.9-20.8,5.6-1.5.8-5.2-3-4.5,2.4,0.4,4,2.1,4.1,5.5,4.6,4.9,0.4,19.9-5,22.7-8.9a13.33,13.33,0,0,1,1-2.4h0ZM1642.9,59.3c0.5-1.1.9-3.8,0.6-3.7-9.1-2.4,3.8-2.5.3-4.1-4.9.3-11.8-2.7-12.3,7.4,2.9-.9,5.7-1.2,8.3.9a2.42,2.42,0,0,0,3.1-.5h0Zm48.5,64.1c6.2,1.3,12.1,1,16.7-5.5-6.2,2.1-11.5,3.9-16.7,5.5h0Zm-13.6,21.5a3,3,0,0,0,1.3-.5c4.3-.9,9.5,3.2,13-3-5.4-3.9-8.8,1.2-13,3a2,2,0,0,0-1.3.5h0Zm32.8,56.5c-4.7.5-9.8-.3-13.9,3.2,4.3,5.8,10.9-3.7,15.5,2.2-2,1.9-3.9,1.8-6,1-2.3-.7-3.1,1.1-3.4,2.9-0.3,1-.2,2.7.5,3.2a4,4,0,0,0,5.4-.4c1.7-2,7-1.7,5-6.6-0.4-1.8,1.1-5.9-3.1-5.5h0Zm49.2,201.1c-0.7-.1-2.2,2.1-1.4,3.6,0.7,1.3,1.8.8,2.9,0.1,7.3-3.9,16.2-3.4,23.9-8.9-3.3-1-5.2-2-8.4-2.3-7.5-.5-9.8,8.8-17,7.5h0Zm56.3,9a3.28,3.28,0,0,0,1.9-1.3,8,8,0,0,1-1.9,1.3h0Zm-79.8-202.7a6.36,6.36,0,0,0,1.8-.6,4.78,4.78,0,0,0-1.8.6h0ZM650.6,289.2c-4.8,1,3.5,7.4-2.9,8.7,0.4,1.8,1.6,3.2,3.6,2.3,2.1-1.2,3.9-3,7.3-6.1C651,297,654.4,288.4,650.6,289.2ZM363,287.4c0.1,1.4,1.6,4,3.6,3.5,3.9-.8,7.1-3.7,11.3-3.8,2.1-.2,2.1-3.8.3-6.5-3.1-4.6-2.5.5-3.8,1.1a36.59,36.59,0,0,1-6.1,2.7C365.1,281.9,363.1,283.8,363,287.4Z" transform="translate(0.5 0)" fill="#16b9c5" opacity="0.15" style="isolation:isolate"/></svg>