<?xml version="1.0" encoding="UTF-8"?><!DOCTYPE svg PUBLIC "-//W3C//DTD SVG 1.1//EN" "http://www.w3.org/Graphics/SVG/1.1/DTD/svg11.dtd"><svg xmlns="http://www.w3.org/2000/svg"><defs>
        <style>
            .a{fill:#fff}
        </style>
    
        <style>
            .cls-1{fill:#c8a480}
        </style>
    
        <style>
            .cls-1{fill:#c8a480}
        </style>
    
        <style>
            .cls-1{fill:silver}
        </style>
    
        <style>
            .a{fill:#fff}
        </style>
    
        <style>
            .cls-1{fill:silver}
        </style>
    
        <style>
            .cls-1{fill:silver}
        </style>
    
        <style>
            .cls-1{fill:silver}
        </style>
    
        <style>
            .cls-1{fill:silver}
        </style>
    
        <style>
            .a{fill:#fff}
        </style>
    </defs><symbol id="icon-account" viewBox="0 0 21.6 24">
    <path d="M10.8 1.3c2.1 0 3.9 2.3 3.9 5.2s-1.7 5.2-3.9 5.2-3.9-2.3-3.9-5.2 1.8-5.2 3.9-5.2m0-1.3C8 0 5.7 2.9 5.7 6.5S8 13 10.8 13s5.1-2.9 5.1-6.5S13.6 0 10.8 0zm10.7 18c-.2-1.4-1-2.6-2.3-3.1l-4.1-1.6c-.4-.2-.8 0-1 .4-.1.4 0 .8.4 1l4.1 1.6c.8.3 1.3 1 1.4 1.8.1.5 0 1.1 0 1.6v.3c-2.7 1.6-5.9 2.5-9.3 2.5s-6.4-.9-9.1-2.5v-.2-1.6c.1-.8.6-1.5 1.4-1.8l4.1-1.6c.4-.2.6-.6.4-1-.2-.4-.6-.6-1-.4L2.4 15c-1.3.5-2.2 1.7-2.3 3.1 0 .3-.1 1.6-.1 1.8v1l1.5.9c2.8 1.4 6 2.2 9.3 2.2s6.5-.8 9.3-2.3l1.5-.9v-1c0-.2-.1-1.4-.1-1.8z"/>
</symbol><symbol id="icon-approval" viewBox="0 0 22 20.9">
    <path d="M22 10.5l-2.4-2.8.3-3.7-3.6-.8L14.4 0 11 1.5 7.6 0 5.7 3.2 2.1 4l.3 3.7L0 10.5l2.4 2.8-.3 3.7 3.6.8L7.6 21l3.4-1.5 3.4 1.5 1.9-3.2 3.6-.8-.3-3.7 2.4-2.8m-13 5l-4-4 1.4-1.4L9 12.6 15.6 6 17 7.5l-8 8z"/>
</symbol><symbol id="icon-arrow-left" viewBox="0 0 15.8 15.8">
    <path d="M15.8 6.9v2h-12l5.5 5.5-1.4 1.4L0 7.9 7.9 0l1.4 1.4-5.5 5.5h12z"/>
</symbol><symbol id="icon-arrow-right" viewBox="0 0 15.8 15.8">
    <path d="M0 6.9v2h12l-5.5 5.5 1.4 1.4 7.9-7.9L7.9 0 6.5 1.4 12 6.9H0z"/>
</symbol><symbol id="icon-bell" viewBox="0 0 16 19.5">
    <path d="M8 19.5c1.1 0 2-.9 2-2H6c0 1.1.9 2 2 2m6-6v-5c0-3.1-1.6-5.6-4.5-6.3v-.7C9.5.7 8.8 0 8 0S6.5.7 6.5 1.5v.7C3.6 2.9 2 5.4 2 8.5v5l-2 2v1h16v-1l-2-2z"/>
</symbol><symbol id="icon-calendar-clock" viewBox="0 0 24 24">
    <path d="M15 13h1.5v2.82l2.44 1.41-.75 1.3L15 16.69V13m4-5H5v11h4.67c-.43-.91-.67-1.93-.67-3a7 7 0 0 1 7-7c1.07 0 2.09.24 3 .67V8M5 21a2 2 0 0 1-2-2V5c0-1.11.89-2 2-2h1V1h2v2h8V1h2v2h1a2 2 0 0 1 2 2v6.1c1.24 1.26 2 2.99 2 4.9a7 7 0 0 1-7 7c-1.91 0-3.64-.76-4.9-2H5m11-9.85A4.85 4.85 0 0 0 11.15 16c0 2.68 2.17 4.85 4.85 4.85A4.85 4.85 0 0 0 20.85 16c0-2.68-2.17-4.85-4.85-4.85z"/>
</symbol><symbol id="icon-check" viewBox="0 0 17.5 13.4">
    <path d="M17.5 1.4l-12 12L0 7.9l1.4-1.4 4.1 4.1L16.1 0l1.4 1.4z"/>
</symbol><symbol id="icon-chevron-down" viewBox="0 0 12 7.4">
    <path d="M1.4 0L6 4.6 10.6 0 12 1.4l-6 6-6-6L1.4 0z"/>
</symbol><symbol id="icon-chevron-left" viewBox="0 0 7.4 12">
    <path d="M7.4 10.6L2.8 6l4.6-4.6L6 0 0 6l6 6 1.4-1.4z"/>
</symbol><symbol id="icon-chevron-right" viewBox="0 0 7.4 12">
    <path d="M0 10.6L4.6 6 0 1.4 1.4 0l6 6-6 6L0 10.6z"/>
</symbol><symbol id="icon-chevron-up" viewBox="0 0 12 7.4">
    <path d="M1.4 7.4L6 2.8l4.6 4.6L12 6 6 0 0 6l1.4 1.4z"/>
</symbol><symbol id="icon-clock-outline" viewBox="0 0 24 24">
    <path d="M12 20a8 8 0 0 0 8-8 8 8 0 0 0-8-8 8 8 0 0 0-8 8 8 8 0 0 0 8 8m0-18a10 10 0 0 1 10 10 10 10 0 0 1-10 10C6.47 22 2 17.5 2 12A10 10 0 0 1 12 2m.5 5v5.25l4.5 2.67-.75 1.23L11 13V7h1.5z"/>
</symbol><symbol id="icon-close" viewBox="0 0 14 14">
    <path d="M14 1.4L12.6 0 7 5.6 1.4 0 0 1.4 5.6 7 0 12.6 1.4 14 7 8.4l5.6 5.6 1.4-1.4L8.4 7 14 1.4z"/>
</symbol><symbol id="icon-comment-text-outline" viewBox="0 0 24 24">
    <path d="M9 22a1 1 0 0 1-1-1v-3H4a2 2 0 0 1-2-2V4a2 2 0 0 1 2-2h16a2 2 0 0 1 2 2v12a2 2 0 0 1-2 2h-6.1l-3.7 3.71c-.2.19-.45.29-.7.29H9m1-6v3.08L13.08 16H20V4H4v12h6M6 7h12v2H6V7m0 4h9v2H6v-2z"/>
</symbol><symbol id="icon-comment" viewBox="0 0 19.8 19.8">
    <style>
        .st0{fill:#272727}
    </style>
    <path class="st0" d="M9.9 19.8C4.4 19.8 0 15.3 0 9.9S4.4 0 9.9 0s9.9 4.4 9.9 9.9c0 1.3-.2 2.6-.7 3.8l.7 5.8-5.3-.8c-1.4.7-3 1.1-4.6 1.1zm0-18.3c-4.6 0-8.4 3.8-8.4 8.4s3.8 8.4 8.4 8.4c1.4 0 2.9-.4 4.1-1.1l.2-.1 3.8.6-.5-4.2.1-.2c.4-1.1.7-2.2.7-3.4 0-4.6-3.8-8.4-8.4-8.4z" id="Path_26"/>
</symbol><symbol id="icon-email-outline" viewBox="0 0 20 16">
    <path d="M2 0h16c1.1 0 2 .9 2 2v12c0 1.1-.9 2-2 2H2c-1.1 0-2-.9-2-2V2C0 .9.9 0 2 0m8 7l8-5H2l8 5m-8 7h16V4.4l-8 5-8-5V14z"/>
</symbol><symbol id="icon-email" viewBox="0 0 24 24">
    <path d="M20 8l-8 5-8-5V6l8 5 8-5m0-2H4c-1.11 0-2 .89-2 2v12a2 2 0 0 0 2 2h16a2 2 0 0 0 2-2V6a2 2 0 0 0-2-2z"/>
</symbol><symbol id="icon-eye-closed" viewBox="0 0 128 128">
    <title>
        eye closed_1
    </title>
    <path d="M111.19 80.05A96.17 96.17 0 0 0 128 60s-23.17-40-64-40C24.67 20 0 60 0 60a89.23 89.23 0 0 0 16.51 20.3l-6.35 7a5 5 0 0 0 7.38 6.7l6.71-7.35A75.44 75.44 0 0 0 34.74 93l-3.32 9.79a5 5 0 1 0 9.46 3.21L44 96.84a64.15 64.15 0 0 0 15 3v9.58a5 5 0 0 0 10 0v-9.63a62.38 62.38 0 0 0 14.49-3l4 9.37a5 5 0 0 0 9.21-3.9l-4-9.32a77.78 77.78 0 0 0 10.73-6.59l6.49 7.11a5 5 0 1 0 7.38-6.74zM12.07 60.24C19.57 50.51 38.42 30 64 30c26.35 0 44.68 20.33 51.91 30C108.68 69.71 90.4 90 64 90c-14.69 0-28.33-5.69-40.55-16.91a85.18 85.18 0 0 1-11.38-12.85z"/>
</symbol><symbol id="icon-eye-opened" viewBox="0 0 128 128">
    <title>
        eye opened_1
    </title>
    <path d="M64 95zm0 0zm.08 0zm-.11 0zm.13 0c24.64 0 42.78-16.5 52-27.25C106.58 78.84 88.58 95 64.07 95zM64 74.5A24.77 24.77 0 0 1 41.25 40l5.17-12a55.76 55.76 0 0 1 12.77-2.74l4.55-.41 4.62.35a57.8 57.8 0 0 1 12.82 2.49l5.38 11.92A24.74 24.74 0 0 1 64 74.5zM119.9 57c-4.29-5.73-13.4-16.44-26.3-23.81l-2.27-1.29a73.12 73.12 0 0 1 9 5.57l3.61 2.61 3.71 3.37a95.7 95.7 0 0 1 13.2 14.83zM7.38 58.18a104.86 104.86 0 0 1 13-14.25l3.71-3.37 3.62-2.66a76.17 76.17 0 0 1 7.91-5.1l-1.5.89c-11.85 7-20.66 16.65-26 23.49zm84.21-42.82l-4.75 14zm-55.92.18l5.84 13.78z"/>
    <path d="M63.699999999999996 29.83l4.27.33a52.55 52.55 0 0 1 9.6 1.65L82 41.64a19.75 19.75 0 1 1-36.15.36l4.26-10a50.18 50.18 0 0 1 9.54-1.84l4.05-.37M63.74 5.42a5 5 0 0 0-5 5v9.82a60.18 60.18 0 0 0-14.32 3.13l-4.14-9.78a5 5 0 0 0-9.21 3.9l4.17 9.84a81.8 81.8 0 0 0-10.5 6.56l-6.94-7.6A5 5 0 1 0 10.42 33L17 40.23A103.06 103.06 0 0 0 0 60s21.83 40 64 40c40.67 0 64-40 64-40a95.6 95.6 0 0 0-17-20.27l6.57-7.19a5 5 0 1 0-7.38-6.74l-7 7.61a77.72 77.72 0 0 0-10.36-6.34L96.33 17a5 5 0 0 0-9.47-3.22l-3.22 9.42a61.92 61.92 0 0 0-14.9-3v-9.78a5 5 0 0 0-5-5zM64 79.5a29.75 29.75 0 0 0 27.12-42C103 44.31 111.49 54.1 115.89 60 108.61 69.69 90.22 90 64 90c-14.69 0-28.33-5.69-40.55-16.91a84.39 84.39 0 0 1-11.36-12.83c4.5-5.79 13-15.42 24.57-22.25A29.76 29.76 0 0 0 64 79.5z"/>
</symbol><symbol id="icon-eye-outline" viewBox="0 0 24 24">
    <path d="M12 9a3 3 0 0 1 3 3 3 3 0 0 1-3 3 3 3 0 0 1-3-3 3 3 0 0 1 3-3m0-4.5c5 0 9.27 3.11 11 7.5-1.73 4.39-6 7.5-11 7.5S2.73 16.39 1 12c1.73-4.39 6-7.5 11-7.5M3.18 12a9.821 9.821 0 0 0 17.64 0 9.821 9.821 0 0 0-17.64 0z"/>
</symbol><symbol id="icon-facebook" viewBox="0 0 9 18">
    
    <path class="a" d="M9 0v3.6H7.2c-.621 0-.9.729-.9 1.35V7.2H9v3.6H6.3V18H2.7v-7.2H0V7.2h2.7V3.6A3.6 3.6 0 0 1 6.3 0z"/>
</symbol><symbol id="icon-format-list-bulleted" viewBox="0 0 14.8 12">
    
    <path id="format-list-bulleted" class="cls-1" d="M6.1 4.9h11.2v1.6H6.1V4.9m0 6.4V9.7h11.2v1.6H6.1M3.7 4.5a1.2 1.2 0 1 1-1.2 1.2 1.2 1.2 0 0 1 1.2-1.2m0 4.8a1.2 1.2 0 1 1-1.2 1.2 1.2 1.2 0 0 1 1.2-1.2m2.4 6.8v-1.6h11.2v1.6H6.1m-2.4-2a1.2 1.2 0 1 1-1.2 1.2 1.2 1.2 0 0 1 1.2-1.2z" transform="translate(-2.5 -4.5)"/>
</symbol><symbol id="icon-gift" viewBox="0 0 22 20">
    
    <path id="gift" class="cls-1" d="M22 12v8a2 2 0 0 1-2 2H4a2 2 0 0 1-2-2v-8a1 1 0 0 1-1-1V8a2 2 0 0 1 2-2h3.17A3 3 0 0 1 9 2a3.034 3.034 0 0 1 2.43 1.24v-.01L12 4l.57-.77v.01A3.034 3.034 0 0 1 15 2a3 3 0 0 1 2.83 4H21a2 2 0 0 1 2 2v3a1 1 0 0 1-1 1M4 20h7v-8H4v8m16 0v-8h-7v8h7M9 4a1 1 0 1 0 1 1 1 1 0 0 0-1-1m6 0a1 1 0 1 0 1 1 1 1 0 0 0-1-1M3 8v2h8V8H3m10 0v2h8V8z" transform="translate(-1 -2)"/>
</symbol><symbol id="icon-google-plus" viewBox="0 0 22 14">
    <path d="M22 6h-2V4h-2v2h-2v2h2v2h2V8h2M7 6v2.4h4c-.2 1-1.2 3-4 3-2.4 0-4.3-2-4.3-4.4S4.6 2.6 7 2.6c1.4 0 2.3.6 2.8 1.1l1.9-1.8C10.5.7 8.9 0 7 0 3.1 0 0 3.1 0 7s3.1 7 7 7c4 0 6.7-2.8 6.7-6.8 0-.5 0-.8-.1-1.2H7z"/>
</symbol><symbol id="icon-heart-outline" viewBox="0 0 20 18.3">
    <path d="M14.5 2c2 0 3.5 1.5 3.5 3.5 0 2.9-3.1 5.7-7.9 10.1H10l-.1-.1C5.1 11.2 2 8.4 2 5.5 2 3.5 3.5 2 5.5 2c1.1 0 2.3.5 3 1.4l.8.9c.4.5 1.1.5 1.5 0l.8-.9c.6-.9 1.8-1.4 2.9-1.4m0-2c-1.7 0-3.4.8-4.5 2.1C8.9.8 7.2 0 5.5 0 2.4 0 0 2.4 0 5.5 0 9.3 3.4 12.4 8.6 17l1.4 1.3 1.4-1.3C16.6 12.3 20 9.2 20 5.5 20 2.4 17.6 0 14.5 0z"/>
</symbol><symbol id="icon-heart" viewBox="0 0 20 18.4">
    <path d="M10 18.4L8.6 17C3.4 12.4 0 9.3 0 5.5 0 2.4 2.4 0 5.5 0 7.2 0 8.9.8 10 2.1 11.1.8 12.8 0 14.5 0 17.6 0 20 2.4 20 5.5c0 3.8-3.4 6.9-8.6 11.5L10 18.4z"/>
</symbol><symbol id="icon-home-map-marker" viewBox="0 0 20 17">
    <path d="M10 0L0 9h3v8h14V9h3L10 0m0 4.7c2.1 0 3.8 1.7 3.8 3.8 0 3-3.8 6.5-3.8 6.5s-3.8-3.5-3.8-6.5c0-2.1 1.7-3.8 3.8-3.8M10 7c-.8 0-1.5.7-1.5 1.5S9.2 10 10 10s1.5-.7 1.5-1.5S10.8 7 10 7z"/>
</symbol><symbol id="icon-information" viewBox="0 0 24 24">
    <path d="M13 9h-2V7h2m0 10h-2v-6h2m-1-9A10 10 0 0 0 2 12a10 10 0 0 0 10 10 10 10 0 0 0 10-10A10 10 0 0 0 12 2z"/>
</symbol><symbol id="icon-instagram" viewBox="0 0 20 20">
    <path d="M5.8 0h8.4C17.4 0 20 2.6 20 5.8v8.4c0 3.2-2.6 5.8-5.8 5.8H5.8C2.6 20 0 17.4 0 14.2V5.8C0 2.6 2.6 0 5.8 0m-.2 2C3.6 2 2 3.6 2 5.6v8.8c0 2 1.6 3.6 3.6 3.6h8.8c2 0 3.6-1.6 3.6-3.6V5.6c0-2-1.6-3.6-3.6-3.6H5.6m9.6 1.5c.7 0 1.2.6 1.2 1.2S15.9 6 15.2 6 14 5.4 14 4.8s.6-1.3 1.2-1.3M10 5c2.8 0 5 2.2 5 5s-2.2 5-5 5-5-2.2-5-5 2.2-5 5-5m0 2c-1.7 0-3 1.3-3 3s1.3 3 3 3 3-1.3 3-3-1.3-3-3-3z"/>
</symbol><symbol id="icon-location" viewBox="0 0 16.8 24">
    <path d="M8.4 1.5c3.8 0 6.9 3.1 6.9 6.9 0 4-4.3 10.1-6.9 13.3-2.6-3.2-6.9-9.3-6.9-13.3 0-3.8 3.1-6.9 6.9-6.9m0-1.5C3.8 0 0 3.8 0 8.4 0 14.7 8.4 24 8.4 24s8.4-9.3 8.4-15.6C16.8 3.8 13 0 8.4 0zm0 12.1c-2.1 0-3.8-1.7-3.8-3.8s1.7-3.8 3.8-3.8 3.8 1.7 3.8 3.8-1.7 3.8-3.8 3.8zm0-6c-1.2 0-2.3 1-2.3 2.3s1 2.3 2.3 2.3 2.3-1 2.3-2.3-1.1-2.3-2.3-2.3z"/>
</symbol><symbol id="icon-mail-ru" viewBox="0 0 24 24">
    <path d="M15.45 11.91c-.11-2.21-1.75-3.54-3.73-3.54h-.08c-2.29 0-3.55 1.8-3.55 3.84 0 2.29 1.53 3.74 3.54 3.74 2.25 0 3.72-1.65 3.83-3.59m-3.81-5.97c1.53 0 2.97.68 4.02 1.74 0-.51.33-.89.83-.89h.11c.74 0 .89.7.89.92v7.9c-.04.52.54.78.87.44 1.27-1.29 2.78-6.69-.79-9.81-3.33-2.92-7.8-2.44-10.18-.8-2.52 1.74-4.14 5.61-2.57 9.22 1.71 3.95 6.61 5.13 9.52 3.95 1.48-.59 2.15 1.4.65 2.05-2.34.99-8.77.89-11.78-4.32-2.03-3.52-1.93-9.71 3.46-12.92C10.81 1.42 16.24 2.1 19.5 5.5c3.45 3.6 3.25 10.3-.1 12.91-1.51 1.18-3.76.03-3.74-1.7l-.02-.56a5.611 5.611 0 0 1-3.99 1.66C8.63 17.81 6 15.15 6 12.13c0-3.05 2.63-5.74 5.65-5.74z"/>
</symbol><symbol id="icon-map-marker" viewBox="0 0 24 24">
    <path d="M12 11.5A2.5 2.5 0 0 1 9.5 9 2.5 2.5 0 0 1 12 6.5 2.5 2.5 0 0 1 14.5 9a2.5 2.5 0 0 1-2.5 2.5M12 2a7 7 0 0 0-7 7c0 5.25 7 13 7 13s7-7.75 7-13a7 7 0 0 0-7-7z"/>
</symbol><symbol id="icon-map" viewBox="0 0 14 14">
    
    <path id="map" class="cls-1" d="M12.333 15.444L7.667 13.8V4.556L12.333 6.2M16.611 3h-.124l-4.154 1.633L7.667 3 3.28 4.478a.392.392 0 0 0-.28.373v11.76a.389.389 0 0 0 .389.389.237.237 0 0 0 .124-.023l4.153-1.61L12.333 17l4.387-1.478a.415.415 0 0 0 .28-.373V3.389A.389.389 0 0 0 16.611 3z" transform="translate(-3 -3)"/>
</symbol><symbol id="icon-minus" viewBox="0 0 24 24">
    <path d="M19 13H5v-2h14v2z"/>
</symbol><symbol id="icon-odnoklassniki" viewBox="0 0 12.025 20">
    
    <path class="a" d="M11.843 10.741c-.28-.57-1.07-1.05-2.12-.24a6.843 6.843 0 0 1-3.711 1.14 6.843 6.843 0 0 1-3.71-1.141c-1.05-.81-1.84-.33-2.12.24-.5 1 .06 1.49 1.33 2.3a8.54 8.54 0 0 0 3.54 1.06l-.8.8c-1.14 1.13-2.24 2.22-2.99 2.98a1.141 1.141 0 0 0 0 1.62l.14.16a1.165 1.165 0 0 0 1.64 0l2.97-2.978c1.15 1.13 2.24 2.22 3 2.98a1.165 1.165 0 0 0 1.64 0l.13-.16a1.123 1.123 0 0 0 0-1.62l-2.98-2.98-.79-.81a8.355 8.355 0 0 0 3.5-1.05c1.27-.81 1.83-1.3 1.33-2.3M6.012 2.57a2.49 2.49 0 1 1-2.5 2.49 2.5 2.5 0 0 1 2.5-2.49m0 7.551a5.061 5.061 0 1 0-5.06-5.06 5.054 5.054 0 0 0 5.06 5.06z"/>
</symbol><symbol id="icon-plus" viewBox="0 0 24 24">
    <path d="M19 13h-6v6h-2v-6H5v-2h6V5h2v6h6v2z"/>
</symbol><symbol id="icon-refresh" viewBox="0 0 24 24">
    <path d="M17.65 6.35A7.958 7.958 0 0 0 12 4a8 8 0 0 0-8 8 8 8 0 0 0 8 8c3.73 0 6.84-2.55 7.73-6h-2.08A5.99 5.99 0 0 1 12 18a6 6 0 0 1-6-6 6 6 0 0 1 6-6c1.66 0 3.14.69 4.22 1.78L13 11h7V4l-2.35 2.35z"/>
</symbol><symbol id="icon-reply" viewBox="0 0 18 15">
    
    <path id="reply" class="cls-1" d="M10 9V5l-7 7 7 7v-4.1c5 0 8.5 1.6 11 5.1-1-5-4-10-11-11z" transform="translate(-3 -5)"/>
</symbol><symbol id="icon-search" viewBox="0 0 20 20.2">
    <path d="M19.8 18.9l-5.3-5.3c1.2-1.4 2-3.3 2-5.3 0-4.5-3.7-8.3-8.3-8.3S0 3.7 0 8.3s3.7 8.3 8.3 8.3c2 0 3.8-.7 5.2-1.9l5.3 5.3c.1.1.3.2.5.2s.4-.1.5-.2c.3-.3.3-.8 0-1.1zM1.5 8.3c0-3.7 3-6.8 6.8-6.8s6.8 3 6.8 6.8-3 6.8-6.8 6.8S1.5 12 1.5 8.3z"/>
</symbol><symbol id="icon-share-variant" viewBox="0 0 18 19.91">
    
    <path id="share-variant" class="cls-1" d="M18 16.08a2.912 2.912 0 0 0-1.96.77L8.91 12.7A3.274 3.274 0 0 0 9 12a3.274 3.274 0 0 0-.09-.7l7.05-4.11A2.993 2.993 0 1 0 15 5a3.274 3.274 0 0 0 .09.7L8.04 9.81a3 3 0 1 0 0 4.38l7.12 4.15a2.84 2.84 0 0 0-.08.66A2.92 2.92 0 1 0 18 16.08z" transform="translate(-3 -2)"/>
</symbol><symbol id="icon-share" viewBox="0 0 17.5 20.7">
    <style>
        .st0{fill:#272727}
    </style>
    <path class="st0" d="M17.5 20.7l-8.8-7.9L0 20.6V0h17.5v20.7zm-8.8-9.9l7.3 6.6V1.5H1.5v15.7l7.2-6.4z" id="Path_27"/>
</symbol><symbol id="icon-shopping-bag" viewBox="0 0 17.36 21.5">
    <title>
        shopping bag 2
    </title>
    <path d="M17.35 20.09l-1.85-14A1.25 1.25 0 0 0 14.26 5h-1.83V3.75a3.75 3.75 0 0 0-7.5 0V5H3.09a1.27 1.27 0 0 0-1.24 1.09l-1.84 14a1.25 1.25 0 0 0 .3 1 1.29 1.29 0 0 0 .94.42h14.86a1.26 1.26 0 0 0 .94-.43 1.22 1.22 0 0 0 .3-.99zM6.43 3.75a2.25 2.25 0 0 1 4.5 0V5h-4.5zM1.54 20L3.31 6.5h10.73L15.82 20z"/>
</symbol><symbol id="icon-shopping-full" viewBox="0 0 18 21">
    <path d="M9 12c-2.8 0-5-2.2-5-5h2c0 1.7 1.3 3 3 3s3-1.3 3-3h2c0 2.8-2.2 5-5 5M9 2c1.7 0 3 1.3 3 3H6c0-1.7 1.3-3 3-3m7 3h-2c0-2.8-2.2-5-5-5S4 2.2 4 5H2C.9 5 0 5.9 0 7v12c0 1.1.9 2 2 2h14c1.1 0 2-.9 2-2V7c0-1.1-.9-2-2-2z"/>
</symbol><symbol id="icon-thumb-down-outline" viewBox="0 0 17.6 16">
    
    <path id="thumb-down-outline" class="cls-1" d="M15.4 12.6V3h3.2v9.6h-3.2M12.2 3a1.6 1.6 0 0 1 1.6 1.6v8a1.564 1.564 0 0 1-.472 1.128L8.064 19l-.848-.848a1.19 1.19 0 0 1-.352-.848l.024-.248.76-3.656H2.6A1.6 1.6 0 0 1 1 11.8v-1.6a1.581 1.581 0 0 1 .112-.584l2.416-5.64A1.589 1.589 0 0 1 5 3h7.2m0 1.6H4.976L2.6 10.2v1.6h7.024l-.9 4.256 3.48-3.48z" transform="translate(-1 -3)"/>
</symbol><symbol id="icon-thumb-up-outline" viewBox="0 0 17.6 16">
    
    <path id="thumb-up-outline" class="cls-1" d="M4.2 7.4V17H1V7.4h3.2M7.4 17a1.6 1.6 0 0 1-1.6-1.6v-8a1.564 1.564 0 0 1 .472-1.128L11.536 1l.848.848a1.185 1.185 0 0 1 .352.84l-.024.256-.76 3.656H17a1.6 1.6 0 0 1 1.6 1.6v1.6a1.581 1.581 0 0 1-.112.584l-2.416 5.64A1.589 1.589 0 0 1 14.6 17H7.4m0-1.6h7.224L17 9.8V8.2H9.968l.9-4.256L7.4 7.424z" transform="translate(-1 -1)"/>
</symbol><symbol id="icon-timer-sand" viewBox="0 0 24 24">
    <path d="M6 2h12v6l-4 4 4 4v6H6v-6l4-4-4-4V2m10 14.5l-4-4-4 4V20h8v-3.5m-4-5l4-4V4H8v3.5l4 4M10 6h4v.75l-2 2-2-2V6z"/>
</symbol><symbol id="icon-twitter" viewBox="0 0 24 24">
    <path d="M22.46 6c-.77.35-1.6.58-2.46.69.88-.53 1.56-1.37 1.88-2.38-.83.5-1.75.85-2.72 1.05C18.37 4.5 17.26 4 16 4c-2.35 0-4.27 1.92-4.27 4.29 0 .34.04.67.11.98C8.28 9.09 5.11 7.38 3 4.79c-.37.63-.58 1.37-.58 2.15 0 1.49.75 2.81 1.91 3.56-.71 0-1.37-.2-1.95-.5v.03c0 2.08 1.48 3.82 3.44 4.21a4.22 4.22 0 0 1-1.93.07 4.28 4.28 0 0 0 4 2.98 8.521 8.521 0 0 1-5.33 1.84c-.34 0-.68-.02-1.02-.06C3.44 20.29 5.7 21 8.12 21 16 21 20.33 14.46 20.33 8.79c0-.19 0-.37-.01-.56.84-.6 1.56-1.36 2.14-2.23z"/>
</symbol><symbol id="icon-vk" viewBox="0 0 20 11.411">
    
    <path class="a" d="M17.826 7.877a8.821 8.821 0 0 1 1.99 2.3c.663 1.1-.725 1.182-.725 1.182l-2.674.041a1.881 1.881 0 0 1-1.327-.4c-1.005-.684-1.969-2.477-2.684-2.239-.736.238-.715 1.845-.715 1.845a.646.646 0 0 1-.166.4.671.671 0 0 1-.549.124H9.784A6.464 6.464 0 0 1 4.83 8.986C2.291 6.353.052 1.171.052 1.171S-.072.86.062.684C.217.518.653.518.653.518h2.86a.746.746 0 0 1 .456.166.924.924 0 0 1 .249.352 18.254 18.254 0 0 0 1.078 2.208c1.192 2.062 1.741 2.508 2.125 2.29.622-.321.446-2.912.446-2.912a2.863 2.863 0 0 0-.3-1.358 1.349 1.349 0 0 0-.891-.446c-.166-.021.1-.394.446-.57A6.816 6.816 0 0 1 9.618 0a5.032 5.032 0 0 1 1.4.135c.995.238.653 1.161.653 3.358 0 .715-.1 1.689.383 2.031.218.145.757.021 2.1-2.249a18.269 18.269 0 0 0 1.1-2.353.921.921 0 0 1 .259-.321 1.032 1.032 0 0 1 .394-.083h3.006s.912-.1 1.057.3c.155.425-.342 1.43-1.575 3.057-2.009 2.696-2.235 2.447-.569 4.002z"/>
</symbol><symbol id="icon-wallet" viewBox="0 0 19 18">
    <path d="M18 15v1c0 1.1-.9 2-2 2H2c-1.1 0-2-.9-2-2V2C0 .9.9 0 2 0h14c1.1 0 2 .9 2 2v1H9c-1.1 0-2 .9-2 2v8c0 1.1.9 2 2 2m0-2h10V5H9m4 5.5c-.8 0-1.5-.7-1.5-1.5s.7-1.5 1.5-1.5 1.5.7 1.5 1.5-.7 1.5-1.5 1.5z"/>
</symbol><symbol id="icon-warning" viewBox="0 0 20 20">
    <path d="M9 13h2v2H9v-2m0-8h2v6H9V5m1-5C4.5 0 0 4.5 0 10s4.5 10 10 10 10-4.5 10-10S15.5 0 10 0m0 18c-4.4 0-8-3.6-8-8s3.6-8 8-8 8 3.6 8 8-3.6 8-8 8z"/>
</symbol></svg>