<svg data-name="Слой 1" xmlns="http://www.w3.org/2000/svg" width="1881" height="794.2" viewBox="0 0 1881 794.2">
    <title>
        strokeon-the-main
    </title>
    <path data-name="Path 22" d="M1036.3 676c-2.3-1.7.6-4.9-2.7-4.9-1.9-.1-2.1-2.2-3.1-2.4-4.1-1.5 6.2-4.4-.5-4.7-5.3-.3-1.3 5.3-3.5 7.2-1.2 1.2 1.4 5.7-1.7 4.4-3.9-1.6-11 4.3-11.9-4.4-.3-3.7-2.9-3.7-4.9-5.2a19.33 19.33 0 0 0-1.6 4.6c-.1 6.5-.4 4.6-4.3 5.7-5.4 1.4-10.9-1-15.7 1.2-4.4 1.9-10.4-4-13.1 3.3-2.5-1.8-4.8-3.5-8.2-5.9.6 5.1-1.1 7.2-6.2 6.8-2.4-.2-6.5-.5-7.2 4.4-.3 2-1.8 2.5-3.9.8-5.6-4.1-5.6-4.1-8.1 1.2-1.2 2.4-15 3.4-19 1.4-3.8-2.1-4-2-5.2 1.6-.6 1.8-2 1.6-3.4 1.9-4.6.7-10-1.9-14.2 2.6a1.7 1.7 0 0 1-.7-.1c-1.6-10.9-15.6-1.7-17.9-11.2-.5-2.5-6.1-6.3 1.2-7.7s14.8-1 22.3-2.8c3.2-.7 6.8 1.7 6.6 5-.2 4.6 2.5 4 5 4.4 3.6-3.2-3.9-10.6 4.7-11.5 4.4-.5 8.1-2.2 13.1-1.3 7.4 1.3 15.2-1.6 22.7-2.2 14.5-1.4 28.3-6.2 42.6-7.2a98.51 98.51 0 0 0 18.7-3c5.7-1.4 12 1.3 17.2-3.2 1.2-1 8.3-2.7 6.5 4.8-.3 1.7 1.7 4.4 3.7 4 1.8-.4 5.2-2.5 4.2-4.7-4-9.7 5.2-6.8 7.6-6.9a140.83 140.83 0 0 0 32.2-5.4c11.7-3.4 7.2 7.1 10.5 11.4-4 .4-4.2-3.9-6.9-4.3-2.9-.3-1.4 10.1-7.2 3 0-.2-1.5.8-2.2.9-4.1.9 4.5 4.3-.7 4.4-3.5.3-1.8-3.9-3.5-5.2-4.3-3.6-7.3-1.8-9.7 2.8 1.7 3.5 5.9-1.5 7.2 2.5-2.1 3.5-5.5.9-8.4 2-1.3.5-3.4-.5-4.5 1.2-4.2 6.1-4.2 6.1-10.2 6 1.4-2.4 5.1-.6 6.1-3.7-10.8-3.7-19.5-.9-21.8 8.4zM852.9 158.2c.2-.3.4-1.3.2-1.2-3.4-1.4-8.5-3-10.5-2.3-7.2 2.2 5.2 5.3.7 8.9-.2.3.8 1.7 1.3 2.8 1.7-3.2 4.7-2.4 4.4.3-2 15.2 5.8 9.3 12.5 6.2a7.42 7.42 0 0 1 2.5-.5c1.8-.4 2.9-2 1.5-2.9-4.8-3.3 1-3.1 1.4-3.4 4.5-2.4-.4 3.9 2.8 3.2 1.3-.5 1.3-1.7 1.1-2.9-.2-3.1 2.7-7.7-1.9-8.9-5.5-1.2-3.5 2.4-1.8 4.9a2.2 2.2 0 0 1-1.5.6c-5.2.2-7.3 2.7-6.6 8.3-3.1-4.6-9.9-6.5-6.1-13.1zm-289 55.3c9.8-5.7 2 3.9 3.9 4.9 4.8 1.4 8.6-7.8 14.3-1.1 1 1.2 2.6-2.5 4-3.7 2-1.6.9-3.8 1.6-5.8.4-1.3 4.4.7 2.8-2.5-.8-1.7-2.9-1.5-5.5-1-5.3.9-10.2.3-15.1 3.9-3.5 2.4-10.1-1.4-14 4.7 2.8-2.3 4.4 2.8 8 .6zm290.2-27.4c-5 .1-4.4 4-5.7 6.9-.8 2.1-.6 3.7 2.1 3.1 5.7-1.2 7.7 3.6 10.7 6.6 2.7 2.5 5 2 4.8-.8.2-7 3.8.9 4.9-1.5-4.1-12.7-6.6-14.5-16.8-14.3zm738.1-164.6c-.8-2.7 1.5-4.4 3-6.1-21.3 1.9-42.1 3.7-63 5.5 7.4 3.2 14.9 1.6 22.1 1.7s14.4-1.9 21.8-1.8c5.2-.1 11-3.2 16.1.7zM1823.4 293c-9.1-1.2-17.4 1.1-26.1 2.7-1.6.3-2.6 1-2.3 2.9.3 1.6 1 2.4 2.8 2 15.8-3.1 31.9-3.7 47.3-9.6-7.2.8-14.6 2.8-21.7 2zM301 747.2c-1.3-1.6 4.4-8.3-3.9-4.9-3 1.4-4.8-1.1-6-3.5 4-2.5 8.9-.7 12.4-5.5l-6.8 1.5c-3.8 1.1 1-3.3-1.9-3.2a5.72 5.72 0 0 0-5.8 5.7 4.87 4.87 0 0 0 .1 1.2c1.3 7.1-5.1 7.5-7 6.3-8.2-4.9-3 4-5.3 5.2 7.6-1.1 15.9-2.2 24.2-2.8zm-87.2-461.4c0 2.4.9 6.3 3.6 8.1s2.8-.4 4.1-2.1c1.6-2.5 2.8-.4 3.4 1.2.8 2.5 3.6 2.3 3.9 1.3 1-3.1 3.6-4.3 5.2-6.8-5-2.3-8.3-7.5-15.1-8-1.6 1.7-5.1 4.2-5.1 6.3zm904.6 354.6c-1.8 2.5-6.1 1.5-6.5 6.6-.4 7 7.1 4.2 8.9 8.4.5 1.3 3.4-.7 4.7-3.9 1.6-3.7 2.6-8.2 7.3-11.6-5.8-.8-10 4.1-14.4.5zm302.7-601.1c2.1-7.9 4 2 6 .2.7-6.8-5.2-7.5-9.3-8.8-3.5-.9-3.7 2.9-4.6 5.5a2.4 2.4 0 0 1-1.9 1.1c-4-2-3.7-.4-1.7 2 .7.8 3.3 0 2.6 2.3-.5 2-2.7 1.8-4.4 1.9-2.1.2-4.4-1.5-6.5.7a9.4 9.4 0 0 1 6 4.5c.7 1 3.5 1.7 3.4 1.4-1.7-6.8 6.1-3 7.2-6.5 4.2.3 2.3-2.9 3.2-4.3zm-84.2 4.1c1.8 1.5 5.7 2.1 3.3 5.3-1.3 1.7-4.5 2.6-7.6 2.6-2.4-.2-3.5-1.7-5-2.3s-4.2-.5-5.4.4c-.8.7-1 3.3-.4 4.9.8 2.5 3 2 5.1 1.8 4.2-.4 8.1-2.2 12.7-1.8 3.9.4 4.5-4.5 6.6-7.1-4.1-.3 3.3-12.6-6.9-6.6-1.7 1.1-1.9-3.2-4.5-1.9.6 1.4.6 3.6 2.1 4.7zM849 210.4c-2.4-4.5-4-8.7-2.9-13.7a5.25 5.25 0 0 0-1.7-5.6c-.8-.5-3.1.2-3.8 1.1-1.3 1.7-3.6 3.2-2.3 6 1.5 3.7 1.1 7.6.3 11.4l6.6 4.3c3 .7 6.5 1.4 3.8-3.5zm-133.3-5.6c-1.6 1.5.2 3.1 1.5 2.8 6.4-2.3 15.3.3 18.1-9.1-1.7-1.3-5.1-.6-5.2-4.1 0-1.2 1.3-2.9-1.5-2.5a2.61 2.61 0 0 0-2.5 2.8v.1c.2 12.4-5.1.6-7.9 2.2-2.8 1.9-.2 5.4-2.5 7.8zm-188 22.4c-8.2-1.4-8.2-1.4-7.9 4.3 0 2.4 0 2.4 7.1 2.1 4.3-.2 5.5-.9 5.1-4.2-.7-5.6-.6-11.6-7.3-14-1.3-.4-1 .9-.9 1.6.5 3.7-3.6 2.2-5 4.4 5.6.5 5.6.5 8.9 5.8zM1589.1 0c-20.4.5-40.5 3.8-60.4 8.6 20.3-2.2 40.4-4.1 60.7-6.2a9.27 9.27 0 0 0-.3-2.4zM1881 394.3c-9-9.8-18.2-17.4-31.8-14.7 11.6 1.8 19.3 13.5 31.8 14.7zM1510.8 7.6c-9.2.3-19.8-4.4-27.2 5.8-.9 1.2-.8 1.8 0 5.5 11.5-13.2 27.1-7 40.8-11.1-4.5.2-9.1-.2-13.6-.2zM973.6 133.3c-1.8 3.7 2.6 6.8 2.1 8.6-1.9 5.9 4.9 4 5.3 7 1-3.1 6.9-2.4 4.5-9.1-2.8-7.3-8.3-3.9-11.9-6.5zM14.4 371.4c2.8 2 4.4-.5 5-3.4.7-2.5.7-6.6-1.9-6.5-4.4.5-8.7 4-13.6 2.4 2.4 3.3-3.5 4.8-1.6 9.2 4.2-2.2 7.7-4.8 12.1-1.7zm296-100.4c3.6-5.3 2.1-12.4-2.2-11.2-6.3 1.6-13.5 1.7-19.4 6.5 9.7-8.3 13.8 5.2 21.6 4.7zm574.5-121.7c-.6-1.5.2-4.8-3.2-3.9-2.2.7-2.4 3.1-2.5 5.1-.3 6.5.7 13.4-6.5 17.8 7.9 0 14.9-12 12.2-19zm-135.1 24.4c-1.8-6.1-4.6-13.6-11.6-7.5-8.2 7.2 6.4 7.5 4.8 15.7 3.4-4.1 2.1-9.3 6.8-8.2zm-208.5 55.8c.9-.2 4.1-4.2 2.9-7.5-.6-1.8-2.7-3.7-2.3-5.2.8-3 .4-5.8-2.9-4.9-2.7.6-6 3.2-3.9 7.3.8 1.7 2.8 3 2.1 6.5.8.9 0 4.9 4.1 3.8zM58.5 317.4c.1-1.7 3.3-3.3.5-4.4-1.3-.4-4.5-2.1-5.8.8-2.3 4.8-4.6 9.8-6.9 14.6-1.7 3.5 1.5 2.5 3.8 3.5-1.2-7 8-7.7 8.4-14.5zm1691.1-212c-6.4-3.4-29.7 1.6-33.1 6.1 2.4 2.1 3.9-4.2 6.5-.7 1.3.4 2.8.8 4.1 1.3 7.5-2.1 12.9-10.4 22.5-6.7zm-347.9-61.2a31.56 31.56 0 0 0 3.8-4.4c2.8-4.7-1.9-6.7-4-8.7-1.5-1.4-6.8-1.9-7.4.9-.5 2-1.8 7.3 3 8.4 2.4.2 3.6 1.6 4.6 3.8zM211 292.8a27.11 27.11 0 0 0-.4-4c-1.4-9-5.5.9-8.3-.9s-.9 1.4-1.8 1.8c-.2 0-.2 1.5.1 1.4 10.1.2 1.2 5.5 3 8.4 7.9.2 7.9.2 7.4-6.7zM26.9 314.4c-3.5.3-7.9 2.2-6.9 5.5 1.6 6.6 8 4 12.8 4-2.9-3 1.8-10.2-5.9-9.5zm305.4 424.3c2.1 1 0 5.5 3.2 4.8a54.75 54.75 0 0 0 11.9-3.7c.6-.4 2.4-2 1.2-3.4s-2.2-.5-3.6 0c-7.4 3.5-2.3-4-4.5-5.5-2.9 2.6-5.5 5-8.2 7.8zM1737 161.8c.9 2.2-3 1.6-2.7 4.2 3.2-1.9 8.8 1 9.8-4.5.5-2.2-2-7-3.2-7.2-4.1-.3-9 .2-10.1 6.2 2 1.4 4.8-2 6.2 1.3zM792.1 175a4.58 4.58 0 0 0 1.5 2.5 72 72 0 0 0 8.5-3.9c.6-.4 1.8-1.8-.1-2.6-4.7-1.9-3.9-8.5-9.6-10.4-1.3 5.3 2.3 10-.3 14.4zm-292 47.3c1.3 3.8-5.4 5.9-3.3 7.1 3.6 2.6 4.9 9.5 7.3 8.7 3.6-1.2.4-8.4 4.5-11.2-2.1-2.9-6.9-.6-8.5-4.6zm-338.7 80.6c2.8 4.4 7.5 3.9 11.9.8-2-3.6-4.2-6.3-5.8-10.7 1.1 5.8-10.7 2.8-6.1 9.9zm974.5 336.7c-1.1.5-1.4 2.4-2.1 3.5 4.9-1.8 2.5 5.2 5.8 5 1.6-.1 3.1-.9 5-1.3-6.5-7.2 6.2-3.5 3.5-9.3-3.9-2.3-8.1.2-12.2 2.1zM645.8 183.9c1.7 2.5-.7 9 3.5 7.4 2.9-1.1 9.2-.5 9.3-4.6.3-7.7-9.2-.7-10.9-6.5-2 .9-3.5 1.4-1.9 3.7zM443 253.3c2.9-3.2 8.3-1.3 9.9-6.2-11.3 1.9-11.3 1.9-17.2-3.3-.4 3.9-1 7.8-5.2 10.2 5-4.8 9.7 2.7 12.5-.7zm801.7-187.9c3.1 5.5 9.5 2 9.9.7 1.6-3.7 1.3-8.6 1.5-13a1.15 1.15 0 0 0-1.7-1.1c-4 1.6-3 6.1-4.9 8.4-4 4.7 4 .8 1.7 3.7a27.76 27.76 0 0 1-6.5 1.3zm-156.7 34c-6.7 1-13.4 1.9-20 3.3-1.4.3-2.5 1.7-3.5 2.7 1.9-1.1 3.4 1.2 4.6 1.6 8.2 2.8 11.9-6.8 19.4-5.1a7 7 0 0 1-.5-2.5zm-196.5 64l.7-.1c3.6 5.9 3.6 5.9 7.4 1.1 1.5-1.8 2.5-4.1 5.8-4.3-4.5-1-5.4-6.2-10.4-7.6 1.5 4.7 2.9 8.9-2.7 10.8zM190.3 304.2c4.6-.7 2.1-5.7 2.5-8.4.2-2.2-2.8-6.6-3.3-6.5-4.5 1.4-4.7 4.8-2.4 9.8.9 1-1.2 6 3.2 5.1zm1031.6-234c2.2 2.6 4.7 3.1 5.3-.9.5-3.4-3.4-5.7-5.6-7.2-2.5-1.6-3.2 3.1-3.1 4.5-.3 4.4-3.9 5.1-7.5 8.3 6 .4 8.7-1.6 10.9-4.7zM1190 89.9c-7.5-2.9-21.4.3-31.5 6.7zm11.2-14.6c.5 3.2-1.4 5.8 3.3 4.1 2.9-1.1 2.5-4.1.7-6.8s-2.7-6.1-4.2-9.8c-1.7 4.6-.7 4.6.2 12.5zm532 37.2c-1.5-.4-2.4 1.2-2 2.8.4 1.8 1.5 2.8 3 2 3.6-2.2 9.7 1.8 11.2-5.5.3-1.7 5.4-.4 7.7-2.8-7.3-1.6-12.9 4.9-19.9 3.5zm-759.8 20.8c1.6-2.7 4-4.9.2-8.1-8.6-7-6.2 6.6-11.7 5.6 4.2 1 8.2.6 11.5 2.5zm822.3 38.6c-5.7 0-11.5 2-17.4 1.3-1.2-.2-4.7 1.5-3.3 4.8 1.5 3.5 2.9.3 4.5 0 5.4-1.4 11-2.3 16.4-3.5a21.14 21.14 0 0 1-.2-2.6zM483.8 242c1.2 2.1 3.6 2.6 5.9.7l-.2.3c0-2.2 2.2-3.1 3.3-3.3 3.7-.8 3.8-3.4 3.5-5.8-.3-1.4-1.9-3.4-3.2-3.6-4.1-.3-.6 3.7-2.5 4.8-.6.4-1.6.3-2.5.8l-1.8.4c-3.6.7-3.7 3.3-2.5 5.7zm-21.7 481.2c-3.6 4.3 6.6 4.3 3.9 9.2 5.7 2.1 3.8-5.6 8-6.2-5.3 2.3-7.2-9-11.9-3zm805.2-666c-.4 3.9 4 5.1 7.1 8.5 1.1-5 1.7-8.9 2.5-12.9-2.8 2.7-8.9-.2-9.6 4.4zm562.4 312.7c-9.5.3-17.7 4.2-25.9 8.1 9.7-.4 17.6-4.7 25.9-8.1zM1081.5 118c3.4 3.8 7.3 1.8 11 1.5.4-3.9-5.3-3.4-4.2-7.2.6-1.8-1.6-1.8-1.5-1.4-.6 7.1-5.6-.5-7.7 1.9.9 2 1.7 3.7 2.4 5.5.3-.1 0-.3 0-.3zM567.4 232.5c3.1.1 5.2-1.3 6.7-4.3.9-1.6 1.2-3.4-.2-3.1-3.7.3-7.4-.1-10.9.4-3 .6 1.2.9.9 2.9-.9 2.2.4 4.1 3.5 4.1zm-313.2 67.4c1.6-.1 3-1.8 2.7-3-.4-1.8-2.2-2.6-4.2-2-4.2 1.6-8.6 3.3-13 4.9 5.3 3.9 9.9.6 14.5.1zm19.2-31.1c-6.4-1-1.9 4.7-4.1 6.6 2.5.4 4.8 1.4 7.2 1.6 1.2.2 3.3 0 3.1-2.1-.5-3.5-4.1-2.2-6.2-3.4 1.3-2.7 5.9-.3 6.6-4.7-3.3-1.3-4.1 2.5-6.6 2zM48.8 304c9.2-1.7 16.5-1.8 20.7-9.4-5.6 4.5-13.9 2.4-20.7 9.4zm1119.8 304.3c-4.3 4.3-3.6 11 2.5 17.6 2.8-6.8-2.3-11.9-2.8-17.8zM625.9 187.7c-.6-5.1-2.4 1.2-3.8.1.5 3.2-.7 6.6 1.3 9.5.7 1 2.4 2.1 3.6 1.4 1.5-.8 3.4-3.1 2-4-5.7-4.3 2.8-2.5 1.9-4.7-.7-2.1-4.4 2.8-5-2.3zm528 460.2a1.7 1.7 0 0 0 1.3 2 1.1 1.1 0 0 0 .8 0 2.94 2.94 0 0 0 2.4-3.1c0-4.5-1-9.1-6-12.3-2.1 5.3 2.7 8.9 1.5 13.4zm-191.8-506c-1.5-6.8-5.6-1.7-6-.4-.9 2.6-.9 5.9 1.3 8.3.3.2 5 3.2 4.1-1.8 1.4-2 2.5-3.8.6-6.1zM257.9 279.1c-.7-2-.7-6.8-5.2-4.4-2.4 1.2-7.4.9-6.5 4 1 3.4 5.8.4 8.5 2.7.9-1.9 4.8 1.8 3.2-2.3zm781.1-186c-.5-3.7-3.3-4.3-6.4-3.4-2.1.4-5.2.2-3.9 3.9 1 2.6 2.8 4.2 5.1 2.5 2-2.1 5.9 1.4 5.2-3zM178 737.6l-.7.1c-8.3-5.2-14.4.9-21.3 3.1 7.1-1.3 14.6.2 21.3-3.1zM1434.1 43c-5.5 2.4-9.5.1-12.9-3.7l-2.7 4.2c3.4 5.2 10.5 4.8 15.6-.5zM177.3 737.8c6.8.7 13.3-3.8 22-1.1-7.2-5.7-18.2-4.3-22 1.1zM1359.6 49.3c.8 1.7 4 1 4.5 0 2-4 .7-8-1.8-11.8-1.5 3.9-4.8 7.5-2.7 11.8zM1795 277.1c2.6-4.6 7.1-5.8 12.2-6.4a8.81 8.81 0 0 0-10.6-1.6c-3.9 1.8-6.2 4.4-1.6 8zM910.9 152.6c6.3-5.2 8.5-10.4 1.7-18 1.7 7-2.5 12.2-1.7 18zm-6.8-33.2c.4-2.5-1.5-4.7-2.2-4.8-5-.1-.9 2.6-1 4a2.68 2.68 0 0 1-2.3.5c-3.2-1.5-4.9.6-4.6 2.9.4 4 3.5.7 5.3 1.3 2.2-.4 4.3-.4 4.8-3.9zM568 235.3c4.8 3.5-4.4 10.5 3.3 13.1 3.1.1 2.6-2.2 2.9-4.2a14.8 14.8 0 0 0-6.2-8.9zM364.9 742.7c-1.3 2.9 1.9 2 2.9 2.5a.84.84 0 0 0 .9-1.4c-2.2-2.4.1-5-.5-6.8-.8-2.5-3.3-4.3-5.8-6.9-3.4 6.2 4.6 8.1 2.5 12.6zm-51.2-1.7c5 3.2 9.6 3.5 14.7-.5-5.3-3.5-10.1-2.7-14.7.5zm43.4 46.1c-7.9 2.2-15.8 4.1-23.5 6.2l.2.9 23.7-5zm607.6-638.6c2-.9 4.2 5.1 5.5 0 .7-2.5.2-5.8-3.9-6.1-1.4-.1-2.8-.3-4.2-.5-.3 2-.4 3.9-.7 5.9 1.3.4 2.4 1.2 3.3.7zm799.8 31.5c-.1-4.8-4.2-3.9-6.8-3.8-1.9-.1-1.6 1.5-1.4 3.6.6 3.9 1.9 4.6 6.9 2.1-.2.1 1.3-.9 1.3-1.9zM1290.7 60.6c.2-.3-1.4-3-2.1-3.1-3.8.1-8.4-1.3-10.5 4.6 4.6-.8 8.8 2.2 12.6-1.5zM892.2 163.2c-2.5-.4-4.9-.6-7.6-1 .1 5 3.3 7.9 4.9 11.6 5-2.9-1.3-7.8 2.7-10.6zm301.6 441.2c1-2.1-.8-3.7-2.5-3.8-5.8-.4-2.9 6.6-6.9 8.1 4.4.5 7.8-.4 9.4-4.3zm574.8-481.6c2 2.7 7.1-.1 5.8-3.1-1.3-3.8-6-2.3-9.5-3 3.1 1.3 2.3 4.3 3.7 6.1zm-652.7-32.4c-4.5-1-7.1 4.8-4 4.7 4-.1 9-.5 13.2-5.4-4-.9-6.5 1.1-9.2.7zm-273.3 93.2c-4.2-2.7-6.1 1.5-8.7 3-.9.4-1.4 2.2.1 2.6 3.3 1 5.9-.3 7.9-3.1.2-.3 2.4.2 3.5-2.4-1.4 0-2.3.2-2.8-.1zm601.3-127c.6-1.8 1-3.3 3.5-2.7 4.3 1.2 4.3 1.2 6.5-3.1-3.3-.7-6.3.6-9.3 1.3-1.6.3-4.5-1.9-4.7 1.5 0 .8 2.6 1.9 4 3zM646.8 220c3.7-.8 7.4-.9 10.8-3-8.1-4.8-9.5-4.5-10.8 3zm480-109.8c1.9-2.1-1.5-4.9-1.9-7.9-3 1.4-5.4 2.8-7.2 6.3 3.7-.3 6.6 4.3 9.1 1.6zm618.6 12.6c-2.3-.7-1.4 2.4-1.1 3.8.4 1.8.7 2 2.6.9 3-1.6 6.7-1.9 11-3.1-4.6-3.8-8.6-.3-12.5-1.6zm-630.5 496.7c1.2 0 4.3-.2 1.8-2.8-3.4-3.6-7.4 4.7-11.2 0-.3-.4-1.1 1.7-.7 3.5 3.2 2.9 6.6-.5 10.1-.7zM424.5 727.9c-1.7-1.3-3.7-.6-5.2 1.6-.8.9-1.3 1.9-.3 2.9 1.9 2 2.6-1 4.1-.9 2.4.2 4.5 1.9 7.8.7-1.5-3.5-4.6-2.5-6.4-4.3zm483.8-614.4c-1 .7-.3 2.9.8 3.9 3.7 3 6.3-.6 9.4-2-3.6-.2-6.7-4.5-10.2-1.9zm373.5-41.9c3.4.5 6.9.9 10.8 1.5-2-10.3-7.2-3.5-10.7-4.2 0 1-.1 1.7-.1 2.7zM313.7 741c-5.7-1.9-6.1-1.8-9.8 3-.9 1.2-1.9 2.1-2.9 3.2 6.3 2 8.3-4.6 12.7-6.2zM1515.9 48.3c-.3-1.6-.5-4.4-1.2-4.5-3.3-1-6.8-.7-8.9 3.1 3.3 2.1 6.6 1.9 10.1 1.4zm-898.5 161c-3.9-1.3 7-9.8-3.6-12.6a124.38 124.38 0 0 0 3.6 12.6zm766.9-166.2c.7-1.3 2.3-2.9.9-3.5-1.6-.9-4.5 2.4-5.8-1.4-.4 1.3-1.7 3.5-1.4 3.6 5.5 4.3-2.7 2-1.4 4.8 2.6-.3 6-.1 7.7-3.5zM211.9 746.9c6.4 2.9 10.7-1.3 15.9-1.7-5-.7-10.4-2.6-15.9 1.7zm349-455.2c-.7-.8 1.9-3.3-.9-2.9-1.8.4-3.5 2.4-5.4 3.5 3.9 3.7-.5 11.3 8.6 14.9-3.4-5-1.9-7.7.4-10.3-.8-1.8-1.8-3.5-2.7-5.2zM1081.5 118v.2h.2zm87.1 490.3a.25.25 0 0 0-.3-.2zm423.6-586.8h.2c0-.3 0-.3-.2 0zm184.6 342c6.4 2.9 10.9-1.4 17.1-2.7-1.5 5.1-6.7 5.7-9 10.3l14.1-3c-10 3.3-17.3 11.6-27.5 14.2 3.8.1 6.9-1 10.5-2 4.3-1.2 9-.5 13.7-.5 3.6 0 2 1.7 1.6 4-.7 2.3-5.8-2.8-3.5 2.4 1 2.6 3 4.1 6.2 3.4s5.3-1.8 5.1 3.9c0 5.5 6.1 1.6 8.8 2.2.3 12.6-11.6 6-17 10.8-2.4 2-3.7.8-5.7 6.7 2.6 3.3 7.6-2.6 9.8 2.2a3.44 3.44 0 0 0 1.5.4c1.6-10.4 9.4-3 14.4-4.2-17.5 12.1-36.1 22-57 31.7 3.2.5 3.9.4 4.7.7 3 .8 5.9-5.8 8-1.5s-4.4 2.8-5.9 4.8c-3.2 4-9.8 7.8-11.3 7.6-7.6-1-12.1 6.1-20.1 5.5-3.9-.4-11.6.6-17 5.3-4.8 4.1-13.4 4.1-20.4 6.2-10.5 3.2-20.7 7-31.6 9.4-11.2 2.4-22.1 6.1-32.7 9.8-.5.1-4.8 1-4.1 4.2.4 1.8-1.7 3.2-2.1 2.4-4-8.7-6.1-1.6-9.4.6-3.6 2.2-6.7 7.6-12.6 3.6-2.8-1.8-3.6 2-4.7 3.6-3.1 4.5-6.3 7.3-12.4 4.3-4.5-2.1-4.6-1.4-5.4-4.1-1.8-4.9-.8-5.8 4.8-6.7 5.1-.8 9.5-3.7 14.6-.7 2.4 1.4 3.5.7 3.7-2.7.2-2.7-.5-6.8 4.6-8.6-12.8-.9-22.6 2.7-32.7 7.9-3.9 2-9.3 4.6-14.3 4.5-4.3 0-2.6-2.3-1.2-4.3-9.5-1.1-4 9.2-9 11.5-3-4.1-6.8-7.1-11-1.2-2.1 2.6-8.6-1-6.9 5.5 1.7 7 7.3 3.9 11 3.4 2.6-.3 3.7-2.7 6 1.1 2.4 4.5 5 .1 7.3-1.6-1.1-2.9-4.3-1.2-7.2-2.5 14.3-5.9 14.3-5.9 17.4.1 1.5-5.3 2.4-6.7 5.8-8.9-1.7 4.4-1.9 7.8 5.6 5.2-3.7 5.1-8.1 5.8-11.4 7.9-1.5 1-5.6-1.7-4.5 2.2a4.41 4.41 0 0 0 6 3.5 4.83 4.83 0 0 1 5.6.7c-4.2 2.6-8 4.8-12.6 4.8 3.1 5.8 6.9 6.6 10.1 1.7.4-.6.5-1.1.7-1.3 2.9 7 6.7.2 10.2.9 4 .8 7.9-1.2 10-5.7a4.45 4.45 0 0 1 2.1-1.2c3.5-.5 1 4.8 4.3 4.6-1.6 4.6-.8 5.4 3.8 3.5 2.4-1 4.2 2.9 7.3 2-6.9 3.4-14.7.5-21.4 3.6-12.4 5.7-26.3 5.4-39.1 10-1.8.6-3.7.3-4.6 2.9-1.4 3.4-3 1.6-3.3-1-1.2-8.8-7.6-2.2-8-1.6-2.9 3.2 3 1.7 2.7 4.7-2 .7-3.8-.1-5.9-.7-1.3-.4-3.9-1.3-4-1-3.6 8.9-12.3 5-18.5 7.3-3.8 1.3-6.6 8.3-12.1 1.6-1.3-1.4-3.4 4.3-6.1 6.3-1.8-2.7 2.1-8.1-3.8-8.7a1.83 1.83 0 0 1-.7-1c1.5-6.3 1.5-6.3-2.5-11.9-.9 1.6-1.7 3.2-2.6 4.6-1.4 2.2-5.8 1.7-5.5 4.5.6 2.7 3.7 3 6.4 2 .5 1.1 1.3 2.8.9 3.1-2.1 2.4-4.9 6.3-6.8 6-6-1.1-12.2 0-19-.5 2.2-3.3 4-2.3 6-2a4.81 4.81 0 0 0 5.8-3.5 2.88 2.88 0 0 0 .1-1.3c-.1-2.8.3-6.5-2.6-8.8-1.2-.9-3-.6-2.8.1.6 2.7-4.5 4.5-1 7.6.6.6 2.4 1.4.8 2.5a12.29 12.29 0 0 1-6 1 1.32 1.32 0 0 1-1.2-1.4 1.23 1.23 0 0 1 .7-1.1c1.7-1.1 1.9-2.1.1-2.9-1.3-.7-3.1-1-3.1 1.1 0 3.6-2.8 3.7-5.1 4.2-4.5 1.2 3.4 2.4-.4 4.6-4.9 2.9-9.6 3-14.7 3.6-6.9 9.1-7-5.9-12.8-2.8 2.3 3.1.5 5.6-1.6 8.2-.9 1.4-1.7 3.5-3.9 2.7s-3.9-2.7-3.1-4.6c1.8-3.7-1.1-5.2-2.5-7.3-1.8 3.7-6.2-1.1-8.1 2.4-1.7 3 .4 6.4 1.8 7.3 3.6 2.6.5 3.7-.3 5.1-2.1 3.8-2.6.1-3.8-.9-2.5-1.6-4.1-2.5-3.8 2.2.1 2.8-3.2 3.8-4.5 3.4-.2-5.2-2.4-9-4.7-13.1-1.8 3.7-5.3 5.4-10.8 7.8 5-8 .7-11.1-4.9-11.6-9-.7-5.6-5.2-4-9.7-5.1.8-6.9 7.9-1.9 13.3 3.8 4.2.9 7.4.6 10.8-.1 1.9-2.4 3.1-4.7 2.7 1.5-9.6-9.8-1.3-10.7-7.7 0-.2-4.7-.7-6.1.3-2.5 1.7 1.3 2.6 1.3 3.8.1 2.8-2.7 5.1-4.5 3.6-4.9-4.2-8.4-.1-12.4 1-3.9.8-6.2 2-4 6.8 1.2 2.1 1.9 5.6-1.1 7.4-1 .7-3.4 1-4 .4-2-1.7-2.2-4.5-2-7.2.4-9.4-1.5-11.4-10.6-11.8-1.9-.1-2.8.1-2.7 2 0 1-2 3 1.1 2.9 5-.1 4.1 2.5 2.9 5.6-1.6 3.7-3.5 2.4-6 .8-1.4-.9-2.8-2-4.6-.4-3.6 3.2-6.3 3-8.5-1.8-1.4-3-6-2.3-7.7-1.5-3 1.6-4.7.3-8.5-1.8 2.7 5.9 9.3 10.2 2.1 15.3-2.2-1.2-6.8-1.9-3.4-6.9 1.3-1.9-.3-2.6-1.4-3.3-1.3-.7-1.8-1.8-3.4.7-2.3 3.6-6-.2-6.2-2-.8-3.9-3-2-4.1-1.5-3.4 1.9 2 1.5.9 3.1-2.5 4.1 3.6 6.9.3 12.8-3.1 5.4-5.9.5-7.7 2.8-3.8-7.8-8.3-4.2-12.3-.5-2.8-1.8-1.4-5.4-4.3-6.7-3.4-1.4-.6-4.2-.9-6.3-5.3 6.6-11.5 12.2-9 21.7-4.4-.5-3.9-2.5-3.6-4.5.2-2.2 2.8-4.9-2.8-4.4-3.2.5-2.7-3.9-2.4-6.9.3-2-.9-4.3-1.6-6.6 0-.2-1.6.1-2.3.5-2.7 1.8-2.3 6.2-1.6 7 4.2 5.1-.2 9.1 0 13.4-9.5.1-7.6-7.9-9.2-12.8-1.1-3.8-1.6-6.3-4.4-4.8-7.7 4-8.7-.8-9.2-6.4-.2-3.1.2-6.7-4.8-3.5-1 .7-2.6 3.4-3.4-.2-.4-1.8-3-2.7-1.1-5.2 1.5-2 2.3-2.9 4.2-.4.7.8 3 .6 3.8-1.1s-.8-2.5-2.1-3.1c-6-3.7-8.9-2.4-10.7 4.7-.6 2.8-3.8 4.6-5.3 3-1-1.2-1.1-3.8-3.3-2.2a5.66 5.66 0 0 0-1.9 6.8c.6 1.5 1.5 3.7 4.4 2.9 1.6-.3 2.5-6 4.6-.7 1.1 3.1-1.8 3.7-3.9 4.2-1.8.4-3.1 1.1-3.3 3.3 3.5-.5 2.8 5.4 6.6 4.3.9-.2.1-2.9 1.8-1.8 1.1.7 1.3 3.8.1 3.8-4.3.2 2.1 8.6-4.6 6.5-1.2-4.5-3.3-2.2-6.2-1.3-3.1.9-2.7.8-1.4 3.4 1.4 3-1 6.4-2.8 9.2-3.4 5.3-3.4 5.3-2.8 10.6-4.1-2.2-6.2-4.4-6.1-9.7.2-7-4.4-14.1-2-20.8 2.1-5.9.3-10.8-.4-16.4-6.5 3.1-6.7 8.8-7.4 14.5-.3 2 1.9 4.4-.3 6.3.3 3.7.9 7.7 3.8 10.2a5.31 5.31 0 0 1 1 7.5c0 .1-.1.1-.1.2-2.4 2.4-6.8 3.8-9.6 1.8a21.34 21.34 0 0 1-8.6-14.4c-.5-3.5 3.6-2 5-5.6-5.2 4.7-7.6-2.2-12.6-.9-3.4 1-3.5.5-.9 2.6 3 2 .3 3.7-.5 4.2-2.8 1.5-5.5 6.9-6.5 5.4-4.4-6.2-6.1 3.9-9.3 1l-1.3.7c5.2 10.8-7 5.1-8.9 9.8 3.1 2.4 7.4 1.3 11.8 2.7-5.8 2.9-13.7 3.9-11.6 13a19.66 19.66 0 0 1-2.8 1.3c.8-6.4-8.6 1.1-7.3-5.1.7-3.3-3.7-5.2-1.4-8.8.5-.8-2.8-5.1-4-4.2-9 6.9-5.9-4-8.6-5.8-2.5-13.1-8.3.3-12.5-2.6 1.6 6.3 5.4 6.2 9.4 4.9-.4 3.7 1.8 6.1 3.6 9 1.1 1.7 6.3 1.8 1.8 6.3-3.3 3.3-4.8 3.2-8.7 1.8-5.4-1.7-9.8-8.9-16.7-3.4.7 2.2 4.8-.8 4.8 3.3-.9 1.4-3.7.3-4.7 1.5-3.4 4.1-6.7 1-10 0 1.6-4.6-5.2-7.5-2.5-11.9 1.5-2.9 1.4-4.6-1-6.7a3.77 3.77 0 0 0-4.8.1c-2.5 1.5-1.1 6.2-.5 6.5 4.9 3.7.3 6.1-1 8.8a23.7 23.7 0 0 1-1.9 3.5c2.4 0 4-.1 5.9-.1-1.5 4.4-5.1 1.8-7.5 3-4 2.3 2.7 3.9 0 6.9-4-1.8-8-2.8-5.9 3.9-3.7 1.7-4.4-7.2-8.3-.9-.7 1.1-3.1.9-3.7-1.6-2.3-8.3-2.7-8.2-10.8-3.9a15.5 15.5 0 0 1-4.7 1.2c-.3 3.2 3.5 1.7 3.5 4-3.7-.4-4.2 7.3-7.9 4.3-3.2-2.9-4.6-.4-5.3.9-3.5 6-8.1-.9-11.9 1.3-.2 0-2.1-3.1.7-4.4 1.1-.5 4.5 0 3.1-2.3-3.3-5.3-8.1-8.8-13.3-12-4.7-2.8-4.4 4-7.8 3.6-3.5-1.9 1.7-4.2-.3-6.9-6.6 2.8-10.1 7.6-9.8 14.7.2 10-5.3 14.3-14.2 10.7-4-1.8-7.5-2.7-10.3 2.2-1.6 2.7-3.6 1-4.4-1.5-.8-2.7-4-4.2-4.6-1.4-2.7 11.8-12.6 10.1-20.1 10-14.8-.2-27.6 8-42.3 8.8 6.9 0 14-.1 20.9-.4 4.7-.3 10.2 5.5 8.8 10.1-1 3.1-1 7.8-8.3 4.9-7-2.6-16.8-3.8-23.4 3.3-4.3 4.5-7.6-.8-8.3-1.8-3.9-5.9-7-7.1-11 0-1.7 3-5.4 1.4-6.8.5-5.3-3.4-4.5-3.1-11.1.7-4.2 2.6-10.1 3.1-15.2 3.7-5.6.7-11.4.3-17.1.3a10.75 10.75 0 0 1-2.5-.4c-1.5-8.3-5.5-6.9-11-3.6-1.7 1.1-4.8-.2-7.2-.4-1 1.9 5.6 3.8-.4 5.1a92.45 92.45 0 0 1-32.3 1.6c-1.5-.2-3.2-1.5-4-.8-10.9 7.1-22.9 1.1-34.4 3.3-10.3 2-21.2 3.6-31.8 2.9-18.5-.8-37.2 1.2-55.8-.1-5.1-.3-11.7-4.4-16.6 2.8-2 3-6.9-5.7-11.4-.9-.4.3-2.6-.9-3.7.8-2.7 4.2-5.4 6.2-8.3.1-.8-1.7-2.1-.8-3.5.3-2.9 2-5.7 3.6-6.2-2.3-.2-1.9-2.2-1.4-3.4 1-.7 1.3-1.2 3.1-3 2.8-1.5-.2-3.5-.7-2.6-3.3.4-1.3-.4-3-1.3-2.6-3.7 1.7-7.8-.7-11.6 1.5-5.3 3.3-11.8 1.8-17.5 2-8.1.3-16-2.3-23.9 2.2-.4.3-6.9 3.4-10-1-.7-.8-4.9-4-6.3 1.6-.7 2.5-3.3 1.4-5.6-.5-3-2.7-7.2-1.3-10.7-1.1-1.6.1-3.1 5.7-1.5 6.5 7 2.8 1.8 8.7 4.3 12.2-3.8 1.3-5.4-2.9-9.7-2-4.3 1.2-4.2-5.3-2.6-8.8 1.6-2.7 4-6.1.7-7.8-4.6-2.4-5.2 1.1-6.8 5.3-3 8.5-8.1 5.5-13.1 1.1 3.7-1.5 7.7-.9 11.6-3.9-2.6-2.3-7.6 1.1-8-4-2.7 1.8-8.7-.5-7.2 6.3.7 3.4 3.3 8.6-4.7 5-1.6-.6-5.2.2-7.8.5-3.2.5-2.8 4.9-2 5 7.5 1.7 3.2 8.2 5.4 12-5.4-2.9-7.4-10.3-14.5-10-.2 1.2.1 3.8-.7 4.4-2.4 2.2 1.9 6.7-2.9 7.5-.7-4.6-8.8-5.5-5.6-11.9.4-.6.5-1.1.9-1.6 1.8-2.8-4.5-6.4.2-8.1 4.9-1.8 11.1-3.8 15.7-2.4 4.3 1.2 6.3-.9 9.6-2-1.1-1.9-9.6 2-3.6-4.7-11.5.8-21.4 7.2-32.6 6-1.1 2.6 1.9 2.2 2.5 3.8s1.9 3.2-.2 4.6c-1.5 1-2.4 1-4.5 0-7.8-3.1-16.4-4.1-24.8-1.2-2 .7-4.8 2.2-5.4-1.7-.5-3.2 2.1-2.6 4.2-2.8 5.3-.7 10.9-1.4 16.3-1.8 1.2 0 1.4-.1 1.2-1-.2-1.1-.2-2.1-1.8-2.7-5.4-1.9-11.1-.5-15.8.7-5 1.1-10.1 3.1-15.3 4.2-.9.2-2.3.3-2.5.8-3.4 9.8-11.8 6.1-18.6 6.6-1.4.1-6 1-4.9-4 .1-.5-1.7-5.6-5.6-3.8-.9.4-2 .7-2.1 1.2-.2 2.2 1.2 1.2 2.5 1.6 2.1.8 2.1 3.4 1.3 5-2.2 5.5-8.8.2-12.2 4.5-.8.9-3.2-2.9-2.2-5.7.3-1 0-3.3-2.1-3.1a3.35 3.35 0 0 0-2.6 4.6c.8 3.9 3.5 7.6-.3 11-4.9-.6.9-8.1-5.1-7.3-4.4.7-8.5 1.6-9.6 7.5-.1.7-7 3.9-11.1 3.8-4.3 0 0-5.7-4-7.5-1 3.3-9.6-.1-6 7.5-3.2.7-4.8 6.7-8.2 3.9-3.2-2.7-5.8-6.9-3.7-11.9.4-1.3 3.3-2.4 1-4-2.8-2-1.5 1.8-3 2.6-5.7 2.4-11.8.8-17.5.9-2.2 0-3.5-1.9-5 1.3a2 2 0 0 1-2-1.8 2.92 2.92 0 0 1 .2-.9c1.2-2.4-3-6.3 2.1-7.1 1.8-.4 3.9.4 5.9.7-.5 2-2 5 1.4 5.7 2.8.6 4.2-2.8 5.3-4.5 2.2-3.1 4.1-4.4 6.5-2.1 3.6 3.5 9.3 3.5 13.3-.2 1.2-1 3.7-1.5 2.5-3.9-.8-1.5-2.5-1.8-4.3-2.2-9.1-1.2-17.1 1.3-25.2 5.1-5.7-2.1 2.4-3.4.3-5.5-5.2.2-9.7 8.3-15.8 2.2 0 2.2-4.4.7-3.5 4.8.5 2.5-3.6 1.2-5.2.4-12.1-6.3-25.2-6.1-38.3-5 0-4.5 4.6-2.9 6.6-5.9-7-2.6-12.9 2-19.9 1.6 4.1-7.8-6-5.6-7-10.4-4.5 1.2-7.2-3.7-11.7-3.2-7.7.7-9.8-6.7-13.6-11.2-2.6-3-3.7-7.1-7.5-9.4-1.7-1.1-3.4-1.2-4.8.1-1.6 1.3.4 2.8.5 4.4-4.2-2-6.9-4.3-3.9-9.4 1.9-3.3.7-7.8-3.8-7.8-5.5 0-6.8-1.9-7.2-7.1-.6-8.2-.2-15.7 8.1-21.5-10.7-2-19.8 3.3-29.8 2.5l13.2-2.8c-5.5-2.4-10.9 1.6-18.3-1.8 12.6-1.3 21.9-7 32.8-8.6-8.9-3.8-17.1-2.1-25.5.2-.9-2.9 3-1.4 2.7-4.2l-16.7 3.5c-.1-.5-.4-.6-.5-1.1 9.1-5.3 18.5-10.4 28.5-16.1-3.1-2.2-6.9 1.2-8.9-2.6 1.3-.7 2.6-2.5 3.8-2.2a8.81 8.81 0 0 0 6.7-1.2c-3.4-2.4 1-6.6-2.2-9.3-5.8-4.7-4.9-11.8-6-18.3-.8-3.7-.5-5.6 3.5-7 2-.7 2.6-4.4 1.6-5.8-1.3-1.9-3.7-.4-5 1.1-4.6 4.3-11.4 1.2-16.7 4.5 6.1-3.7 12.3-7.4 19.3-11.5-2.7-1.3-4.8-2.3-7.5-3.7 3.6-1 6.3-1.8 9.3-2.4-5.2-9.9-14-12-25.4-6.1-4.1 2.1-8.4 2.2-12.3 3.8-4.9.3-8.2 3.2-13.1 2.5 4.5-4.8 10.7-5.6 15.9-8.2 2-.9 4.8-.8 6.1-3 3-4.9 7.7-6.4 13-7.1 3-.4 6.2-2 5.7-5.5-.2-1.1-3.9-1.3-5.6 1.9-.9 1.6-2.3-.7-2.4-2.1-.3-1.6-1.6-4 1.3-3.9 7.7.3 3.9-6.3 3-7.1-5-4.4-1.3-6.2 2.3-8.1-4.9-4.9-10.1-1.4-14.8-1.4 1-4 9.6-1.8 7.1-7-2.4-4.5-6.6-9.8-15-7.8 4.2-5.9 10.2-3.6 13.8-6.8-2.7-7.3-4.7-15.2-15.1-14 2.7-3.2-6-2.5-2-6.2 6.8-6.2 5.9-9.1-3.3-12-.1-3.8 7-3.9 5.5-4.5-7.6-3.4 1.8-16.1-9.7-16.3-1.9-.1-1.6-.9-1.4-2.1.5-8-5.4-11.7-10.4-16.4-5.4-5.3 1.5-9.6 1.1-14.8-3.4-.5-9 .5-13.9-2.8 1-.9 1.7-2 2-1.9 10.3 3.5 13.7-2.7 16.1-10.8.4-1.5 2.5-2.7 0-4.3-1.7-1.1-3.2-2.9-5 .1-.7 1.3-1.8 2.8-3.3 1.4-.9-.8-1.3-2.6-1.3-4-.1-2.8 2-.7 2.9-.9 6.3-1.8 10.9-9.2 9.6-15.6-.4-2.1 1-3.3 1.6-4.9.9-2.6 1.7-4.4-2.5-5.9-8.6-3.5-9.6-10.6-3.2-17.3 1.4-1.5 1.7-2 3.7-1.5 16.3 2.7 32.7 2.6 46.5-7 11-7.6 24.5-5.7 35.3-13.5 1.9-1.3 9.2-6.2 13.8-.3 2.5-5.3 8.3-4.6 12.6-6.7 6.1-2.7 12.7-4.1 19.3-5.8.9-.2 3.2.5 2.5 2.6-.7 2.5-.4 4.9-4.4 6.2-11.4 3.6-22.3 8.6-33.3 12.8-2.2.9-5.5 2.4-4.1 4.4 3 4.1 2.4-2.4 3.9-2 7.9 2.4 14.8-4.3 22.9-2.2 3.3.7 6.3.3 6.2 4.4 0 3.6-3.3 3.6-5.4 4.7-1.3.7-3.1.2-4 2.5 8.1-2.4 16.6-.4 23.6-5.5-2.3-4-6.1 2.7-7.2-1.3-1-3.4 3.5-6 2.4-9.8a1.4 1.4 0 0 1 2.4-1c7.5 7 7.7-.7 9.5-4.9.8-2.1.6-5.1 4.2-2.8.6.4 3.2.5 1.3 1.6-4.4 2.8-4 4.7.8 5.8 5.3 1.5 2.6-3.6 4.1-5.2 2.6 3 5.1 5.8 7.6 8.9-3 2.8-5.5 0-8.3.1-3.3.2-5.2 2.3-5.1 5.4.2 3.3 4.7 1.9 5.1 1.5 6.9-3.6 15.3.3 21.8-5.1 1.6-1.3 3.5-2.4 2.9-4.4-1.3-4-2.3.5-3.7.5-3.3 0-2.3-2.9-2.8-4.4-1-2.4.2-3.6 2.6-4.4 6.6-1.4 13.3-1.4 19.8-3.5 4.7-1.5 11.4 2.1 12.2-6.6 2.2.2 4.4-.5 6.6-.4s3.6 2.6 3.8 5.6c.1 2.6-2.9 3.2-2.8 7 4.2-4.9 10.7-2.5 14.8-7.7 1.1-1.4 7.5-.4 11.7-2 3.5-1.5 4.1-2.1 1.7-5.4-1.3-1.6.5-3.2 1-3.3 2.5-.5 4.8-4.1 7.5-1.6 1.8 1.5 2.9 1.1 4.1.3-.2-2.1 1.9-9.2 2.7-9.6 1.7-1.1 2.2 0 1.7 1.3-1.9 5.7 1.8 3.9 4.5 3.3 1.4-.3 4.2-.4 2.7-3-1.2-2.4-2.6 1.3-4.8.1 1.4-2.4 3-4.9 5.9-4.8 4.6.2.5 3.5 1.3 5.2.8 1.5.5 4.7 2.2 3.8 2.9-1.1 6-2 7.3-6.1.5-2-2.8-5.4 1.9-6.6 4.2-1.4 4.1-1.8 9.3 4.7 1-3.3 1.6-5.8.5-8.7 5.4 4.1 13.1-3.5 17.9 3.4a1.57 1.57 0 0 0 2.2.1 1.62 1.62 0 0 0 .5-.9c-.1-1.4 2-2.8-.4-4.2-4.9-2.8-4.7-7.6-3.9-12.5 3.5-.3 4.3 3.6 7.2 4.9 8.2 3.7 10.9 3.2 9.4-5.1s7.2-.8 6.9-5.5c2.6.9 6.1.6 6 4.7a15.32 15.32 0 0 0 1.2 7.9c1.5 2.8 2.5 5 5.6 5.2 4.4.5 1.1-3.6 2.5-4.8 6.7-6.7-.9-9.8-4.7-16.4 4.8 4.5 9.8 1 12.6 5.4.4.6.8 1.5 1.7.3 2.3-2.6.4-4.6-1.1-7.4 5.7 0 11.3 5 16.1-.6 3.4 3.6 6.3 7.2 7.2 12.3.2.9-4.5 2.6.1 2.8 1 0 4.1.3 2.1-2.6-1.3-1.9-.5-3.7-.3-5.9.4-3.7-2.1-8.6 3.3-10.2 4.7-1.2 7.1 3.3 10.3 5.7 1.4 1.1 2.7 4.7 4.3 4.3 2.5-.8 5.2-2.5 4.6-6.5-.5-3.2 3.5-3.6 3.9-3.2 1.8 2.7 4.7 2.1 6.7 3.6-1.5 1-2.6 2.5-4.9 2.9-3 .6-2.5 4.1-1.9 6.8.4 2.1.7 4.4 3.6 3.5 9.7-2.8 20.7.8 29.2-6.4 2.9-2.3 3.5.9 4.6 1.6 1.9 1-1.1 1.7-1.6 2.5-.9 1.2-2.8 2.7-4.2 2.6-13.4-.2-25.9 4.1-38.3 7.2-3.4 1-6.7-3.6-8-1.6-4.9 8.2-11.9 2.3-17.6 3.5-2.1.4-4.7 1.2-3.2 3.8 2.8 4.2 3 9.4 5.5 13.4 3.2 4.8 7.4 5.8 9.5-1.5 6.2 5.4 8.9-.7 12.8-3.7-4.9-4.9-4.9-4.9-11.2-3.1 3.2.3 5 .9 5.9 3-3.1.2-6-1.1-8 1.7-1.2-2.4-4 .4-5.3-1.5-.7-1.3-1.3-2.6-.1-3.8 6.1 6.3 6.5-6.4 12.8-3.7 4.7 2.1 11.2 1 14.3-5.7.6-1.6 2.3 1.7 3.5 2.8 1.4 1.1 1.3 2.6-.7 3.3-3.6 1-4.4 6.2-9.3 5.8 4.6 1.6 9.5-1.5 13.6 2.4.9 1 4-3.5 2.7-6.5-.9-2.2-.3-3.7 0-5.5.2-1.5 1.4-3.6 3.7-2.9 2.6.9 4.2 2.9 3 5.3-1.5 2.9-2.6 5.8-.8 8.5 7.2-3.2 9-9.3 7.8-16.2-.5-3.5 2.1-2.6 2.8-2.5 4.4.5.2 2.1.1 2.8-1.3 7.4 6.2 8.9 9.6 10.4 4 1.8 6.1-3.9 7-8.6 1.1-6-3.3-11.2-1.5-17.1.4-1.3-2.7-1.6-5.1-1.5-1.9-.1-6.3 2.8-6.4-2.2-.3-4.9-2.1-10.8 3.6-13.4 2.4-1.2 5.9 3.3 9.6 1.3.9-.4 2.4 1.2 2.8-.4s-4-4.2 1.5-5.1c2.5-.5 3.5 1.9 5.6 1.4 6.4-1.1 7.1-.3 8.4 7 1.6 1.8.4 3-.8 4.2a6.9 6.9 0 0 0-1.8 1.6c-1.2-.9-1-2.6.8-5.4-3.6-1.1-6.8-2.8-5.4 3.8.4 2.1-2.5 5.1-4.3 7.6-.4.6-.4-4.2-2.9-1.5-1.4 1.3-2.9 3-1.9 4.7 3 2.7 7.9-3.3 9.5 3a.28.28 0 0 1-.3-.2v.2c-2.4 1-7.6 11.4-6.3 13 1.6 2 2.5 5.9 6 4.7 3.8-1.3 1.5-5.3.5-6.5-3-3.9 2.2-7.6-.2-10.9h.2l-.3-.2.3.2c5.6 2.6 3.6-5.3 8.1-5.8 5.2-.4 1-3.1.4-5.1 5.1-1.8 7.4 2.2 9.7 5.3 1.3 1.9.8 6 4.4 4.8 2.9-1.1 1.2-4.5.6-7.1a47.42 47.42 0 0 0-1.7-4.6c8.6 3.6 5.1 12.8 9.4 18.5 3.5-3.8 3.4-11 10.4-10.3a3.33 3.33 0 0 0 1.2-1.2c8.3 6.6 13.4.2 19.4-4.1 2-1.6 2.2 2.4 4.1 2.2 2.3-.3 3 6.3 4.5 2.1.8-2.1 7.6-3.8 2.4-7.7a2.44 2.44 0 0 1 0-2.2 3.24 3.24 0 0 1 2.1-.2c1 4.6 8.4 2.5 8.2 9.2 0 5.5 4.4 1.5 6.9.9 1.2-1.2.7-3.5 2.9-4.2 3.3-.2 3.9-6.3 8.7-3.8.8.3 2.7-3 1.5-5.1-.9-2-1.6-3.2.7-4.7 1.9-1.3 4.5 0 4.5 0 1.4 4.2 7.9 3.6 8.2 8.5.2 4.3 3.3 1 4.9 1.8-2.3-2.9 5.6-1.7 2.3-6-2.3-2.9.7-5.6 3.2-5 3.3.7 5.9-.5 8.5-1.3 1.8-.4 10 2.2 3.4-5.3-1.3-1.4 7.1-6 8.1-11.3.9.8 2.2 1.2 2.4 2.1 1.1 2.9-5.5 5.7-.1 8.6-6.2 2.3 1 3.4.9 5.3-.2 3.4 5 2 6.5 4.6 1.5-1.8 3-3.7 1.6-5.8-4-6.3 2.2-14.3-4.7-20 7.1.6 6.9 5.7 7.8 9.8.6 3.9 2 9.4 4.1 10.1 6.2 2.3 12.4 5.5 19.4 4.9 1.9-.2.9-1.6.9-2.3.3-5.3 1-10.9-2.7-14.9-1.8-1.8-1.7-2.5-.3-3.5 1.2-1 4.4-1.9 4.1.1-1.1 10.5 9.3 13.3 13.6 20 3.9 5.9 5.2 12.2 8.8 17.9 5.1-2.8 4.3-6.6 1.6-10.4-3.8-5.6-3.7-11.6-2.9-18 1-6.6-4-9.7-14.4-9.3 3.6-4.3 16.6-7.3 27.3-6.3.1 5-7.3 6.1-5.7 12.7 1.3 5.9 5.7 5.7 8.6 5.8 2.4.2 1.2-4.5 1.5-6.3 1.5-5.1-5.8-11.4 2.5-15.1 2.5 3.8.7 8.9 3.9 12.5 1.3 1.6 4.7 3.1 6.1 1.8 10.3-10.1 13.8-10.1 24.2-.4 0 .2.5.1.5.1 4.9-3.7-3.1-9.1 1.8-13 .8-.7-1.6-.6-2.2-.5-4.1.9-5.1-2.5-5.8-5-1.2-3.6 2.9-4.4 4.5-6.7.5-.8 4.9 1.8 3.9-2.7-.7-3.4-3.6 1-4.8-1.1a5 5 0 0 0-2.3-.9 26.25 26.25 0 0 0 4.9-3.9c1.4-1.3 2.4-2.4 4.3-1.2 2.5 1.6 2.1 3.1.6 5.1-1.3 1.9-1.7 4.4.2 5.4 3.5 1.7.1-2.9 2.2-3.1 2.3-.3 2 2.9 3.9 2.7-6.4 9-6 13.2 1.8 20.6.1-4.1 1.6-7 5.8-7.7-.9 3.5-2.3 6.9.8 10.6 4.5-6.9-.2-14.5 2.9-20.9 7.3-5.9 19.4-2 24.8-12.2 2-4 5.8-1 8.5-1.3 1.6-.1 1.1 1.9 1 3.4-.5 4.2-3.9 3-6 4.4-5.8 3.1-13.4 2.1-17.6 8-.9 1.2-1.4 1.5-2.4 1a5.65 5.65 0 0 0-6.3.9c2.6.9 1.6 4.2 3.5 5.4 2.3 1.7 3.7-.8 4.6-1.7 5-4.6 5.6.7 7.1 3 .7 1.3-.5 4.4-2.1 2.4-4.1-4.8-3.8 3.4-6.5 1.9-2.6 5.6 3.3.7 3.5 2.8.8 4.8-2.8 9.2-1.3 14.1.8 2.7.3 5.7.4 8.5.1 3.8.2 6.6 5.5 3.4 3.6-2.2 5.6-.5 4.2 3.9-1.3 4.1.6 3 2.7 2.5 4.3-1.2-.3-5.9 2.7-7.3 5-2.3 4.6-3.1-.3-4.9-2.3-.9-1.5-6.1.6-8.5 1.8-1.8-.3-3.7-.2-6.4-2 1.9-3.4 3.1-5 4.4-1.5-2.5.3-5.3-2.2-7.2-2-1.5-4.2-4.1.8-5.4 4.1-1.1-2-5.1 2.6-7.9 6.1-3.7 12-2.8 17.6-2.3 7.1.6 10.7 5.6 10.5 13.5-.1 2.9 2.5 5.9 1.3 9.3s3.1 4.6 3.8 4.2c3.8-1.3 8.7-1.8 9.5-6.8.7-4.7-.8-9.1-3.3-13.4 1.1 3.8-1.1 7.4-.7 11.1-1.9-5.8-13.7-8.5-5.3-18 .6-.6-.2-2.1-.2-3.3-2.6 1-3.8-.9-4.7-2.8a5 5 0 0 1 .4-1.3 8.7 8.7 0 0 1 7.6-3.3c3.4.5-1 4.5 2.5 6.1 1.6.6 6.9 12.1 9.5 14.2 3.7-.8 6.2-.1 6.6 4.3.2.9.3 2.3.8 2.5 3.7.6 7.5 2.7 7 6.1-.6 4.9-6.2 2.3-9.8 4.5 7.7-.9 7.2 7.1 11.7 9.9 6-7.7 5-17 7.7-25.5.6-1.8 12-3 13.9-1 2.2 2.4 3.3 5.3 5.5.3 1.6.9 3.8.1 4.5 3.1.9 3.1 2.7 6.1 4.3 9.1.7-1.3 1.2-2.4 1.7-3.5 2.1-3.5-4.2-10.6 4.8-11.3-.8-2.7.8-5.2-1-8.1-2.4-3.5-4-7.7-5.9-11.9-2.8 1.3-1.9 3.5-1 4.5 4.3 4.3 1.6 4.2-2.4 6.5-8.1 4.6-11 3.3-9.9-6 .4-3.7-4.1-1.5-4.2-4.1 1.3-2.9 4.7 1.9 5.7-1.2.8-2.8-.4-4.2-3.7-3.8-2.1.2-1-1.5-.5-2.3.9-1.2 1.1-3.6 3.6-2 1.9 1 3.6 3.5 6.3 2.5 1.5-.8 9 5.2 4.4-4-1.3-2.6 6.2-5.4 10.5-5.8 4-.4 4.3 2.2 1.5 4.7-.6.6-1.4 1.3.1 1.6s4.2.8 4.8.2c3.6-5.3 10.4 1.6 13.8-3.6.5-.8 2.8.8 2.3 1.7-2.4 4.3 5.5 10.3-2.4 13.6-1.3.5-1.6 2.7-.8 4 2.7 3.7 1 3.6-2.3 3.6-1.9-.1-1 4-1.5 6.3-1 4.5 1.8 8.4 1.3 12.6-.5 3.4-1.1 7.2 3.5 8.6 1.3.4 3.2 1.7 3.6 1.4 2.8-2.7 1.3-6 1.3-9.6a4.92 4.92 0 0 1 2.1-.4c1.7.1 3.2 3.6 4.8.2a2.87 2.87 0 0 0 .2-2.4c-1.2-2.4-4.8-3.3-5.8-2.6-2.1 1.4-3.5 4.8-5.9 1.3-1.7-2.5.5-5.4 1.6-8 6.1 6.3 8.5-7.3 14.4-1.6-2.5-4-7.2-7.1-2-11.7.6-.6.5-2.2.7-3.3-6.9 0-2.8-7.7-6.8-9.5-3.2-1.5-1.5-3.7-1-6 .9-3.8 3.5-.3 4.3-.9 4.1-3 11.5 1.1 13.4-6.4.1-.7.9-1.2 1.5-2-5.9-3.3-4.6-10.5-7.6-14.4-2.3-3.1 2.9-3.2.4-4.9-.3-.2 1.2-3.4 3.4-3.1a4.14 4.14 0 0 1 3.6 3.3c.6 4.9 2.1 9.8.3 14.7 8.4-1.1 8.4-1.1 14.3 11.3-.1-8.1 2.2-12.2 10.3-7.7-4.6.7-5 3.2-2.5 6.3 2 2.4 4.1 4.8 4.8 8-.8 6.1 3.1 11 4.2 16.5.3 1.6-1.1 3.8 1.6 3.2a2.55 2.55 0 0 0 2-2.9 3 3 0 0 0-.4-1c-3-5.3-.8-9.4 4.3-13.6-6 2.2-8.2-1.4-10.5-4.7 1.1-1.4-.9-5.5 4.3-3.5 2.9 1.1 4.5-3.6 3.8-6.8-.2-1.1-1.4-2.3-2.4-3.5-2.2-2.6-1.7-5.6-.3-8.3.8 3.7 6.5 1.5 6.9 5.5.5 3.5 2.4 6.7 1.2 10.2-.6 1.8-.5 4.2.8 4.8 4.7 2.1 7.1 4.2-1.5 8.4 14.6-4.3 9.4 12.8 19.4 11.4-2.4-6.7-3.3-14.6-11-19.1-3.8-2.3-.5-7-2.5-10.7-1.1-1.9-1.1-5-2.6-7.6 3.6-1 3.6 3.3 4.2 2.7 1.3-1.7 3.1-4.5 2.3-6-3.1-6.7-.4-14.2-3.7-20.9a51 51 0 0 0 16 5.7c.7-2.3-2-3.6-4.2-5.1 3.3-3.6 6.8-.5 10-1.4.7-.1 3.5-1.5 1.5 1.6-.5.8-.2 2.2-.3 3.2 8.1-2.4 4.7 7.4 9.5 8.7 2 .5 3.1 1.2 3.8-1.1 2.4-6.7 4.6-12.9 13.8-11.5 1.5.2 2.3-1.7 3.1-3.3-1.9-.1-3.8-.1-8.1-.2 10.9-5.9 19.3-3.4 27.6.8-.7-13.2 11.8-7.3 17.6-11.4 1.5 2.8.3 4.9-1.1 7.2h-.2c-2.3-6.2-6.8-2.6-10.4-1.6-1.4.3-4.9 1.5-3.2 3.8 2.7 3.7 3.4 8.1 3.8 12.1.6 4.9 9.6 7 3.9 13.7-.4.6 2.8 4.4 4.7 6.4a1.7 1.7 0 0 0 2.6-1c.6-3.9 5.4-3.8 7.4-7.8-6.1 1.8-9.2-.4-10-5.7 6-.8 1.3-4.1.3-4.1-5-1.3-4-6.5-6.3-9.4-1.4-1.9.1-3.8 1.2-3.1 4.3 3.4 3.5-2.7 5.6-2.9l.1.5.2-.3c8.1 2.1 11.6 1.6 17-4.1 2.2-2.1 4 .8 6.3-.9 4.8-3.2 10.7 2 16.1-1.5 1-.7 5.7 2.1 3.3 6.7a27.6 27.6 0 0 1 2.7-.8c-1.9-12.5 8.5-13.7 16.3-17.8-.1 7.2-8.3 3.7-11.2 8.8 5.3-.7 9.3 5.4 14-.1a3.37 3.37 0 0 1 2-.9c4.8 11.4 12.8-2.5 18.6 2.2 3.1-7.8 6.7.2 10.2-.5 2.5-.5 5.2-.2 5.7-4.8.2-3.4 3.4-7.6 8.1-6.7 1.7.3 7.6 0 3.7 5.2-.9 1.4-1.3 2.9 1.2 2.4 4.7-1.2 1.5 3.7 2.6 4.2 4.7.9 5-12.3 10.6-1.8.8-.7 2-.9 2.7-1.8 1.2-1.2.1-1.7-.8-2.7-2.3-2.9-6.3-.6-9.1-3.3 1.7-3 10-3.6 4.6-9.8 0 0 .9-1.4 1.6-1.5s2.9-.9 2.3.7c-1.7 4.2 3.5 2.8 3.8 5.4.5 3.7 3.3 3.1 5.1 1.8.6-.4-1.1-4.1-.1-5 2.1-2.4 5.9-6 7.2-5.6 3.2 1.5 9.9-1.9 9.3 6.6-.2 3.4 4.3 6.9 8.9 2.6-1.6 4.6-.5 9.9-4.7 14.8 4.4-.7 7.3-1.6 10.2-1.5 4.3 0 1.4 4.2 3.1 5.8 1.2 1.2 1.1 1.9-.5 2.2-.9.2-2.9 1.1-2.3-.7.6-3-.4-5.2-3.3-4.1-2 .7-6 1-4.5 5.7 1 3.4-1.8 6.1-4.8 4.1-5.3-3.4-8.6 4.5-13.8 1.5-.8-.3-2.6 4.6-.9 5 4.3 1 9.5 2 12.7.2a20.57 20.57 0 0 1 5.9-2.5c3.2-.7 6.8.5 9.9-1.6 0 0 .6.6.3.4.8 3.7-3 2.8-4 4.7 7.2 4.7 14.3-2.1 21.8 2.5-2.1-5.5-3.6-10.2 4.2-7.3 2.6 1.1 5.2-1.1 8.1.9 3.4 2.4 5.6 1.4 7.8-2.4 2.5-4.1 6.6-5.9 11.7.1-.2-4.3 2.2-6.4 1.1-9.5-2.4-6.7-9.8 5.7-11.6-3a13.31 13.31 0 0 0-3.4 1c2.3 4-1.2 3.4-3.2 4-2.9 1.1-3.3-3.3-6.7-2.4-5.6 1.7 4.2 2 0 4.3-3 1.6-6.7 2.4-9.6 4.2-1.9 1.1-1.9-4.6-2.8-7.5-1.2-4.5-3.7-8.5-1.5-13.8.8-1.8-1.3-3.8-3.6-5.7-5.2-4.1-9.1 3.1-13.6 0 .3-2-1.4-3-2.2-4.5-.4-.6.2-2.4 1-3.1 1.4-1.3 1.3.7 1.9 1.3 4.8 4.5 10.6 3.9 13.2-2.1 1.6-3.7 2.8-4.7 6.6-3.6 5.8 1.4 8.1-4.6 11.8-7.3 1-.7 1.6-2.7 3.3-1.2 1.5 1.4-.1 1.7-.7 2.5-1.1 1.7.5 3.5 1.3 2.6 4.1-4.4 8.1 4.2 11.4 0 1.3-1.7 3-2.6 5.3-4.5-3.3.2-5.6.5-8 .7l-.6-1.8c3.2-1.6 3.6-7.9 9.5-5.8 5.2 2 7.9 6.7 10.6 10.6a37.07 37.07 0 0 1 4.8 13.5c.7 4.4 4.9 3.7 6.8 6.2.6.6 1.3.4 2.1-.4 2.9-3.2-1.2-4.5-1.9-6.7-.8-2.5-3.2-4.8.8-6.1 4.5-1.4 1.8-4.9 1.7-6.8-.3-3.5-2.9-2.5-4.6-.4-.4.3 1.4 2.1 1.1 2.9-.7 2.3-2.4 1-3.3 0-.9-.8-4.3-1-1.6-3.2a20.76 20.76 0 0 1 6.5-4c11.2-3.6 11.5-4.1 5.5-14.5-1.2-2.1-3.4-3.6.3-5.5 3.9-2 7.6-1.4 11.2 0a5 5 0 0 1-.2 1.2c-2.9 9 2.2 13.8 12.3 11.9 2.3-.5 4.1-3 7.8-1.4-4.5-3.1-3-7.2-2.7-10.6.3-7.5 6.2-2.3 9.3-3.4 5.7-2.2 13.7.4 17.4-7 3.4 2.6 7.3 3 11.4 3.1 9.1 0 17.9 0 26.9.7 5.8.4 15.4.8 16.8 2.6 4.8 7.1 4.3-4.3 6.7-1.2-1.3 3.9 3 2.9 3.5 2.8 10.1-1.9 21 3.6 30.5-3.4a1.81 1.81 0 0 1 1.6-.1c7.1 10.9 16.6.8 24.7 2.9 1.8.6 3.9-.6 5.6-.5 3.2.5 5-1.3 6.4-3.7 1.7-3.5 5.7-2.4 8.6-2.3 2.1-3.8-14.2-2.7-1.9-8.9 1.5-.8-.9-2.9-1.4-3.3-3.9-1.6-7-8.3-11.5-3.5-2.1 2.4-4 2.3-6 2.2-13 .4-12.8.3-19.1 8.8-1.8-4.1 2.8-11.3-4.5-12.4-6.9-.9-14.8-2.1-19.8 5.4s-12 3-17.8 2.8c-1.9-.1-4.6-8.1-4.5-13.1.1-1.9 1.6-2.7 3.6-3.4 4.5-1.4 5.2 3.2 7.2 4.9 3.7-1.5.2-3.6 1.3-5 .7-1.1-2-2.7.5-3.4 1.4-.3 3.1-.9 4.3-.2 8.7 5.1 8.7 5.1 19.2 2.6 1.4-.3 2.8.6 4.2.8 3.3 0 8.4 5.8 9.1-3.1.2-2.7 16-6.5 18.6-4.7 11.9 8.7 25.6 10.3 39.5 9.7 8.5-.4 17.4-1.1 26.1-2 7.2-.8 14.1-4.4 21.9-3.5 2.2.2-.1-1.4-.7-2.2 6.1-2.7 11.9-3.7 16.3 2.7a3.91 3.91 0 0 0 3.1 1c5.7-2.2 11.5-2 19.6.4-3.5 1.5-3.6 1.2-9.4.8-6-.4-8.1 5.5-12 8.7-1.4 1.3 1.8 1.5 2.3 1.9 1.2.2 4.4 1.7 3.1-2.1-1.5-4.7 1.1-3.6 3.1-2.3 2.8 2 5.6 2.9 9 1.9a2.46 2.46 0 0 1 3 1.9.37.37 0 0 0 .1.3c.8 7 .8 7 10.1 6-3.8 4.4-2.4 6.5 2.7 5.9a21 21 0 0 1 8.6 1 3.52 3.52 0 0 1 2.2 2.4c.4 2.1-1.6 2.5-2.9 2.3-3.9-.6-3.7.3-1.7 3.2 1.1 1.9 3.7 6.1-2.5 5.3-2-.3-3.1.9-3.1 2.3-.2 2.4 2.8 2 3.8 2.1 5.9-.1 11.7 2.5 18 .5 1.1-.5 3-1.4 3.7.6.1.7.7 3.2-2.1 3.8-1.6.3-3 3.7-1.4 5.6 1 1.2 3.1-.2 4.6-.7 10.4-3.7 21.3-3.1 31.8-.6 2.5.7 3.2.3 4.6-1 3.9-3.2 7.2-7.5 13.3-3.5 2.8 1.8 4.1-2.1 6.1-3.7 2.2-1.9 4.8.2 7.1.9-.5.8-2.3.5-2.1 2.6 11.8-4.9 23.4-.9 35 .9-4.3 0-8.7 1.8-12.6 1.3-7.4-1.1-10 5.7-15 8.2a82.05 82.05 0 0 1-26 7.7c-12.3 1.7-24.6 1.9-36.9 3.8-1.8.4-3.7-.4-3.1 2.1.4 1.8.3 4.7 4.1 2.2 1.9-1.3 4.7 1.9 8.7.3-3.4 5.3-7.6 3.8-11 7.8 5.1-2.8 10.3.4 11.9-6.8.9-3.8 9.2-.5 9-.2.1 9.5 8.6 3.6 9.1 3.3 3.2-3.1 7.1-2.5 10.4-2.5 7.2.1 12.8-7 21.1-4-4.6 4.3-10.4 8.4-15.4 8.5-6.4.2-12.5 1.7-18.5 2.5a97.23 97.23 0 0 0-17.6 4.7c8.3-3.7 16.5 5.6 24.7.5a4 4 0 0 1 3.4 1.4c3.9 4.9 7 3.8 9.2-1.7a3.1 3.1 0 0 1 4.1 1.3c-3.9 3.9 1.5 3.7 3 5.3-6.5-.5-12.2 0-15.9 6 6.6-.4 13.3-.4 19.4-1.7 6.8-1.5 6.4 4.1 8.6 7.7-12.7 4.4-27.2 3.2-39.6 9.9 2.2 2.6 5.3 3.4 6.8 2.6 9.7-3.7 20.5-2.2 30.3-5.7 2.2-.7 5.5-2.1 4.7 3.1-.2 1.2 1.9 1 2.8.6 7.3-3.9 7.3-3.9 15.4-4-9.7 8.3-21.4 9.1-32 13.2 2.4 2.1 4.5-.2 7.3.8-4.9 4.9-15.9 1.7-16.3 12 2.3.7 4.3-3.5 7.2.1-4 1.6-7.3 3.9-11.7 3.4 4.4 2.6 8.2-.6 12.4-.2.9 2.9-6.7 1-3.4 5.5 1.3 1.4.8 1.7 5.4.8a120.57 120.57 0 0 1 18-2.9c-11.1 4-23.4 4.5-31.9 14.7 3.8-1.3 7.5-2.8 11.4-3.4a191.26 191.26 0 0 1 20-2.3c3.3-.2 4.7 2.1 5.2 5.6.7 4.4-2.5 3.9-4.8 4.4-12.5 2.9-25.2 5.1-37.6 10.4 8.8 3.1 13.7 14 24.8 11-3 1.8-1.2 6.5-4.2 8.1 3.3 0 5.3 1.5 5.4 5.1 1.8-4.9 9.2.7 10-5.5.2-1.5.9-2.3 1.7-2 8.5 5.1 19.8-3.5 27.6 6.3-4.6-.2-7.7 4-12.9 2.3-1.8-.8-1.7 2.3-1.6 3.9 5.4-.4 7.3 10.8 14.4 3.9-1.1-1.9-4.5.2-5.3-2.7a2.36 2.36 0 0 1 .8-.9c4.2-.6 7.4.1 8.8 4.6-8.9 5.2-22.5 1.7-27.4 14.7 8.6-2.3 17.1-1.5 25.6-1.9 1 0 2.8.6 2.9 1.3.6 1.5-1.2 3.4-2.3 2.9-4.8-2.3-5.9 7-11 3.3-.3.8-1.3 1.9-1 2.1 3.7 6.1-2 5-4.2 4.7-4.2-.8-7.7 2.1-12.1 1.6-5.4-.8-2.2 4.1-3.2 6.4 4 .8 7.8-3.8 11.2 0-5.5 1.2-5.3 9.9-12.4 9.1-.2 2.4 1.1 2.9 3.4 3.6 6.1 1.8 10.8-1.8 16.4-2.3 3.1-.2 5.5-3.1 9.3.2 2.4 2.1 2.6-3.4 2.9-4.4 1.4-4.6 2.3-6 6.6-5 1.3.4 4.3-.2 4.1 2.2-.1 1.7.4 4.2-3 4.9-1.6.3-7.3.6-4.9 5.1 2.4 4.7 4-2.3 7.1-1.3 1.5.4 3.6-1.2 5.3-1.8 1.7 1.3 4.7.9 4.9 4.2-9.8-.1-18.7 4.2-28.2 5.3a3.34 3.34 0 0 0-3.1 3.5c.5 3.5 3.2 1.7 4.8 1.1 4.9-1.8 9.8-3 15.4-1.8-2.2.7-4.2 1.6-6.4 2.3l.2.9a59.24 59.24 0 0 1 6.4-.4c-1.4 1.5-3.3 2.6-3.1 3.3 1.5 4.7-5 13.5-10.2 13.9-10.1.7-19.8 2.3-28.8 7.1-2.8 1.3-2.9 3-3.2 5.2 2.2 0 5.5 1 6.5.1 8.1-8.9 18.5-8.5 28.7-7.3-1.3 3.9-4.8 3.4-8.8 2.3 3.1 3.4 6.2 5.4 6.9 7.8.2 1.1-1.9 2.3-3.3 2.6 2.6.9 5.9 8.5 10.1.2 1.7-3.2 1.2 4.3 4.4 3.8-2.9.9-5.9 1.5-9.3 2.4 8.9 3.8 14.2-7.1 22.9-4.4-10.7 6.8-24.3 6.8-35.3 16.8a35.93 35.93 0 0 0 4.7-.3c4.8-.8 10.8-4 11.3 5a3.42 3.42 0 0 0 3.4 3.3 2 2 0 0 0 .8-.1c4.1-1.1-2.6-3.3.3-5.1 2.1-1.2-2.1-1.9-.5-4.7 2.2-4.1 5-4.4 8.5-4.9 1.7 2.3-2.2 3.1-1.3 5.3 11.8-.8 21.9-8.2 35.2-8.2-8.6 3.3-16.2 5.8-23.5 8.6-4.4 1.7-4 1.6-3.6 6.7.4 4-3 5.2-5.7 4.8-6.2-2.2-10.5 5.4-17.8 6.3zm-7.7-60.9c.8 2.5 2.4 3.5 5.2 3 3.5-.5-.4-2.8 1.1-3.8-1.1-1.7-1.2-4.7-4-4.2a3.85 3.85 0 0 0-2.4 4.8.2.2 0 0 1 .1.2zM1701.6 87a32 32 0 0 0 12.7-.8c3.4-.7 5.2-1.6 6.8-1.5 2.9.3 3.5-.5 2.9-3.2-.7-3.2-2.1-1-3.4-.5-2.2.7-4.5.2-6.6.2-4.1-.1-7.9-2.6-12.7-.4-2.6 1.3-2.3 2.9-2.5 4.1-1.4 2.5 1.1 2 2.8 2.1zM1219 111.6c5.1-.6 5 5.6 9.6 6.8-.2-4.5-2.5-7.1-4.6-10.5-1.7-2.5-2.7-3.7-4.6-2.4-2.1 1.5-.4 6.1-.4 6.1zM51.4 413.9c-2.4-2.1-4.9-6.1-7.2-5.9-5.7.3-2.7 6.3-3.5 9.3-.7 2.5 3.2 6.2 4.7 8.5 8.7-1.5 1.3-9 6-11.9zm-1-10.3c-2.7-2.8-4 .4-6.2-1.1-5.5-3.4-11-.3-16.7 1.2a2.37 2.37 0 0 0-2.1 2.6c0 .2.1.3.1.5.2 1.1 1.3 2.6 2.1 1.9 6.4-5 14.6-2.2 22.8-5.1zm-5.7-30.3c-3.4-5.7-7.4-6.5-12.6-4.2 3.1 3.6 6.9 4.7 12.6 4.2zm3.1-6.6c-2.7-2.5-1.5-11.4-6.2-7.8-4.1 3-4.2 1.4-6.5-.3-1.7-1.1-3.8-1.1-4.7.3-1.6 2.7 1.2 3.3 3 3.9 4.6 1.7 9.7 1.1 14.4 3.9zm20.1 8.1c-7.4-5.8-12.2-6.7-18.6-3.4 6.7.2 11.5 7.3 18.6 3.4zm-5.4-29.6c-5.7-7.6-11.8-2.7-17.6-2 5.7.9 10.7 6.3 17.6 2zm147.9-30.5c-2.7-3.7-6.1-.6-8.8-1 1.5 1.4 3.7 2.8 5 4.7 1 1.2.4 4 3.7 1.8 3.9-2.3.8-4.5.1-5.5zm65.9 3.6c-3-2.7-7.4-1.3-9.6-4.6-1.8-2.7-2.8.4-3.9.8-2 .9-2.3 2.6-.9 4.7.4.6.4 2.8 1.3 1.9 3.5-4.1 9.1.7 13.1-2.8zm-1.2-26.7a.28.28 0 0 1 .2-.3l-.2.3c-1 3.3-5.9 3.6-6.1 8.4 2.7-1.8 4.6-3.1 6.7-4.5 1.3 2.8 3.4 5 4.9.6 1-3-2.4-4.4-5.5-4.5zm26.1 7.1c5.4-5.9-4-4.4-4.4-8.4-.2-2.1-5.4-.8-7.4 3.5 6-2.2 5.8 4.7 9.9 5.3-1.8-.8-2.9 4.4-5.6.7-.3-.4-2.9.9-4.5 1.4 1 1.5 1.8 3.9 2.7 3.9a27.32 27.32 0 0 0 9.8-2.1c1.7-.7 2.6-3.3-.5-4.3zm11.4-12.7c-1.9 2.3-5.9 3.9-5 6.8 1.2 3.3 3.5 7.4 8.5 6.3 4.8-1 6.6-2.6 6.4-4.7-.8-6-7.3-5.1-9.9-8.4zm56.7-18c3-.4 5.8-.8 8.6-.9 3.7-.3 6.2-2.3 6.1-6.1-.1-2.8-1.4-5.4-4.5-5.3-3.7.3-7.1 3.4-6 6.8 1.7 4.7-3.4 2.5-4.2 5.5zm96.5 429.9c-1.9 2.3-2 5-2.1 8.1l8.4-1.8c-.1-4.1-4.2-4.2-6.3-6.3zm-77.4-425.4c-1.5-3.5-6-4.5-7.7-2.7-6.3 6.1-15.5.2-21.8 6.1-1 .9-2.8 1.5-4.2 2.6-3.6 2.2-5.5-3.4-9-1.9.6-1.6 1.2-3.4 1.8-4.9-5.8 1-5.8 1-4.7 6a1.93 1.93 0 0 1-.4 1.5c-4.1.9-5.1 12.1-11.9 3.5-.7-.8-2.7-.4-4.2-.5.3 2.6 1.4 5.4.5 6.8-5.3 7.6 1.8 5.3 3.8 4.2 6.5-4 17.4 1.1 20.6-9.6.1-.5 2-.9 2.3-.5 2.7 2.8 6.2 4.6 7.4 8.9 1.5 4.7-3.7 2.9-4.1 5.6 4.4 2.6 8.7 8.4 11.5-2.2.5-2 6.1-7 10.4-3.7 1.7 1.3 2.4 3.5 5.2 3.2-1.3-3.8 5.8-8.4.5-11.1-6.4-3.4-.2-5.2.5-5.4 4.8-.2 4.6-3 3.5-5.9zM489 697.2c-3.4 2.1-5.3 6.6-8.2 2-1.8-3-2.6-.9-3.5 1.5-.8 1.8-1.8 2.5 1 3.6 5.4 1.7 8.4-.1 10.7-7.1zm-76.4-362.8c-.9-1-1.8-1.8-2.8-.8-.6.6-.6 3-.3 2.9 6.8 2.6 2.8 11.8 9.7 14.4-.6-6.1-2.5-11.9-6.6-16.5zm120.8 366c-6.1-.8-9.8-3.6-14.5-3.1-2.3.3-3 1.4-3.2 3.1s.4 3 2.8 3.2c4.4.3 8.8 1 14.9-3.2zm-49-399.4c-6-5.9-9-.9-12 3.3-.8.9-4.1.9-1.9 3.5 1.6 1.8 2.8-1.3 4.5-.2 1.8-4 3.5-2.7 6.4-.4 2.3 1.9 4.4-.7 4.9-2.7a4.07 4.07 0 0 0-1.9-3.5zm15.9-43c-1.4-2.1-3.6-4.7-5.5-4.8-3.3 0 .1 5-3 6.1 1.8 3 .8 6 .1 10.7 3.4-3.1 2.6-6.8 5.8-7.7 2.1-.3 4.7-1.4 2.6-4.3zm27.1 47.5c-.7-.1-1.8-.6-2-.3-2.7 3.9-5.7.3-5.2-1 .9-2.6-3.5-6.2 1.5-7.5 2-.7 3.2-1.6 1.4-3.6a17.38 17.38 0 0 0-2.9-2.5c-1.9 5.9-8 .7-10.6 3.9 8.4 2.5 1.9 13.2 9.3 16.9 4.2 2-3.9 5.1-1.3 8.6 5.6-1.9 2.7-10.8 9.4-12a6.9 6.9 0 0 1 .4-2.5zm52.2-13.7c3.6-5.3 12.4-5.5 13.3-13.6.4-4.9-7.4-2.2-6.8-7.4 0 0-2.5-.4-3.9-.6a1.49 1.49 0 0 0-.3.8c2.1 4.1-.1 4.1-3.5 5.8-4.3 2.3-5.8 4.1-8.7.7-1.3-1.4-.9-5.3-3.8-4.2-3.7 1.5.1 4 .3 6.1a11.31 11.31 0 0 1-.1 4.1h-.2l.3.2-.3-.2c-5-3.5-12.8 1.5-17-5.7-1.8 2.5-.4 7-4.9 7.2-.2 0-.7 1.1.7 2.2 9.4 7.1 9.7 14.2 1.5 24a2.42 2.42 0 0 0-.1 3.1c.8 1.5.9-.2 1.4-.3 1.3-.5 6.2 1.3 6.4 2.9.4 2.8 1.2 4.3 4.2 2.7 9.3-4.6 11.4-13.6 5.6-22.9-3.6-.2-5.7-1.2-2.8-5.1 5.2-.4 3.9-5.1 5.2-8.3l.3.2v-.2c5.8-1.7 10.6-1.8 9.6 6.8-.2 3.2 1.9 3.9 3.6 1.7zm11.7 10.3c4 .8 8.6-1.1 10.8 3.7.4.6 2.5.7 3.5-1.5 2.3-4.8-1-7.9-2.5-11.6-.4-.9-2.5-.7-4-1a2.84 2.84 0 0 0-.4 1.3c4.1 8.4-5.6 4.2-7.4 9.1zm17.9 7.9c-.3-1.6-2.8-3.2-4.1-2.2-3.7 2.9-7.6 1.1-11.4 1.2 3.6 3.3 7.4 5.6 12.2 3.6 1.4-.5 3.8-.1 3.3-2.6zm-12.3-55.8c2.2 4.5 1.8 9.4 6.2 14.4-.3-6.6 1.3-11.7-6.2-14.4zm43.8 47c-3.7-9.5-11.7-4.7-15.2-2-5.1 4 1.2 8.8 2.8 13 7-.6 2.9-13.3 12.4-11zm16.8-22c.3-6.3.1-10.8-7.7-10.5-.2-3.1 5.8-4.3 2.5-7.2-1.5-1.4-5.8-2.6-8.4-.1-1.2 1.2-1.2 1.2-2.1.2-4.2-5.3-9.8 6.8-14-.8-1.4 9.1-7 .5-10.2 2.4.9 3.1 1.8 6.3 5.9 6.4 1.9.1 4.2-.6 4.6 2.4.3 2.6-1.8 2.5-3.4 2.9s-2.6 1-2.3 2.9c.2 1.1.8 2.5 2.1 2.2 4.2-1.4 6.2 1.3 8.3 4.2 1.3 1.9 3.6 1.1 4.8.2 2.9-2-.5-2.3-1.2-3.3-1-1.2-1.7-2.5.2-3.4 1.1-.5 1.8-2.5 3.6-1.2 2.3 1.7 5.4 1.9 5 6.6-.3 6.5-5.6 1.7-7.7 4.3 1.2 1.2 1.3 4 3.9 3.7 4.7-.3 4.4 1.7 4.3 5.8-.2 4.8 3.2 9.6 6 13.7 1.1 1.7 2.9 1.5 4.2-.6.9-1.4 1.4-3.4-.3-3.5-6.5-.5-2.4-.2-.5-2.5 2.7-3 9.4-5.3 4.3-12.1-1.8-3.4-2.2-8.5-1.9-12.7zm2-40c-4.4.5 1.1 10.7-8.2 6.3.4 2.8.2 6.4 4.6 4.7 5.7-2.4 3.2-7.1 3.6-11zm38 55.1c-.7-2.2-1.8-2.7-4.2-2-1.2 2.4-6.1 1.5-5.4 5 .6 3 4.1 2.2 6.6 1.7 3-.1 3.6-1.7 3-4.7zm-6.7-44.6h.2l-.3-.2.1.2c-2.5 1.7-6.2 2.3-6.8 5.3-.3 2 4.1 4.6-1.6 5.8-6.4 1.4-.6-5.1-4.1-5.8-1.5 4.4-1.7 8.9-5 12.5-1.6 1.5-.2 2.7 1.1 3.1 3.1 1 2.5-.5 1.6-2.5 2.3-.5 3.9-3.9 6.4-2.3 1.7 1.3 3.9 2.5 2.7 6.1s.8 7.2 2.2 10.5c.7 2 2 1.7 3.6 1.1 1.8-.6.8-1.8.7-3.3-.4-5.2-4.4-10.7-.8-15.1 5-5.7 2.1-10.3 0-15.4zm147.5 13.5c-2.1-2.2-3.7-7.1-6.2-6.6-4.6 1-.8 4-.3 6.3.4 2.1-1.6 1.5-3 1.6-2.6.1-1.1 2.6-2.1 3.8 6.4.8-.3 6.3 2.3 7.6 1.5 2.5.2 6.4 3.4 6 3.5-.5 3.6-4.3 3.1-6.9s-3.3-4.3.8-6.1c2.5-.8 4.8-2.7 2-5.7zm-20.4-22.8c1.4 1.1 3.2 3.6 6.1 1.8 1.9-1.3 4.4-1.9 6.6-2.8-1.2-3.6-5.1 3-5.2-3 .1-1.9-3.9-2.5-5.8-.4-1 .9-3.7 2.6-1.7 4.4zm6.6 25.3c.9-2.3.2-4.8 2.1-7.1 2.1-2.6-2.1-4.1-1.5-6.8.2-.3-1.6-.6-2.9-.1-3.8 1.3-2.6 4.6-2.4 6.7.1 2.7 1.1 6.1 4.7 7.3zm-96-3.9c2.1 1 1.8 2.7 2.1 4.3 1 4.8 6.9 5.7 8.2 10.4 2.7-.8 2.1-5.9 6.4-4.5.5.1 2.4-2 1.7-3.5-1.3-2.6-2 .9-3 .4-1.9-1-5.7 1.4-5.2-1 1.3-8.4-5-.1-6.3-3.7.4-.6.6-1.6.9-1.6 7.2-1 5.6-6.4 3.5-9.6-4.6-7.1-5.8 6.5-10.5 2.5-.3 2.5-.7 5.2 2.2 6.3zm-27.2-17.9c.8 1.5 3.7 1.6 5.6 2.6.4-2.5 1.4-5.8 1.4-9.4.1-1.9-2.9-1.1-4.4-1.7.9 3.5-4.7 5.4-2.6 8.5zm2.1 49.2c-1.6 4.9 3.3 9.8 7.2 10.4 5.6.7 1.9-5.9 3.9-8.5a.44.44 0 0 0 .1-.5c-2-1.7-5.1 5.1-4.8-1.4.2-4.6-1.9-6.5-5.4-6.2-5.6.2-.3 3.9-1 6.2zm95.3 375c-4.9-3.7-9.9-2.7-15.1-.4 4.8-.8 8.4 1.5 11.4 4.5.9 1 .3 3.5 2.6 2.3 1.7-.8 3.8-2.2 4.4-3.8 1-2.6-2.2-1.9-3.3-2.6zm-73.2-401.2a24.88 24.88 0 0 1-1.1-2.9c-2.9 4.4-6.7 2.4-10.5 2-3.4-.2-7.5-1.7-6-4.7 1.4-2.4 2.5-4.1-.2-5.2-1.6-.6-4.3 0-5.8 1-2.5 1.7-1 4.3.1 5.9 2.2 3.6 4 6.5.6 10.6-1.7 2 1.3 5.2 3.6 3.3 3.8-3.7 7.5-1.8 11.3-1.9 5.2-.1 4.3-6.3 8-8.1zM810 655.2c-2-4.8 1.8-7.1 4.4-9.8-5.8-4.7-10.5.1-16.2.3.3 4.9 9.5 4.4 5.7 11 .8.5 1.9 2 2.8.6.9-1.1 4.4 1 3.3-2.1zm13.9 11.6c-.8-3.7-3.2-2.9-5.4-.8-3.5-1.7-5.9.5-4.8 3.2 1.2 3.3 5.9 3 8.8 3.1 3.1.1 1.5-4.1 1.4-5.5zm-72.9-380a7.17 7.17 0 0 0-4.8.8c-1.7 1.1-.7 2.3.7 3.2 2.2 1.4 3.7 3-.6 3.7-.2 0-.7 3.5 2 3.9 2.1-1.2 4.1-3.3 3.4-5.3s3.1-5-.7-6.3zm-3.6-49.6c.5-3.4-.3-7.1-.4-10.7.1-3.1-2.6-3-4.6-3.8-4.1-1.5-1.7 2-2.5 2.9-2.1 2.6-5.1 4-7.6 5.9-1.8 1.6-1.4-3.3-3.3-4.1s-4.1-4.6-5.9.1c-1.2 3.1 1.7 4.6 3.1 6.7 1.1 1.7 2.7 2.5 5.2.8 2.3-1.7 5.2-2.3 10.1-4.3-3.5 5-5.3 8.5-1.6 12.7.4-4.7 7-1.5 7.5-6.2zm41 41.4c-3.9-1.3-1.6-6.3-5-8-1.3-.6-2.6-1.1-3.9-1.6 1.9 4.4-4.4 4-4.3 6.6.2 4.3-3.6 1.2-4.4 2.8-5.5-8.1-9.6.6-14.7 1.7 7.9.2 15.9.7 23.8.7 3 .2 6.5.8 8.5-2.2zm9.2-19.4c-1-9.3-7.1-11.9-16.6-13.2 4.1 2.5 1.6 7.3 3.1 6.5 7.9-3.8 8 6.5 13.5 6.7zm2.2 5.8c.1-.5.5-1.1.6-1.6a2.27 2.27 0 0 0-.6 1.6c-1.7 3-5.7 2.2-7.2 4.2-3.7 5.1 3.6 12.6 9.1 9 6.4-4.3-2.6-8.3-1.9-13.2zm99.1 392c-4.4-5-8 1.7-12.5.7 4.4 3.7 4.4 3.7 12.5-.7zM826 279.4c-8.5-4.2-6.3-12.7-10.4-18.5a24.34 24.34 0 0 1-4.3-7.9c-1.4-4.2-1.7-11.6-6.4-12-5.4-.5-3.4 7.6-7.4 10.2 3.9 3.9 8.3 6.4 11.6 10.7 2 2.9 7.2 3.7 4.1 9.1 4 2 2.1 7.4 5.1 9.4 1.2.9 4-.4 7.7-1zm100.9 372.4c-7.8 1.7-16.2.1-22.3 5.9a16.61 16.61 0 0 0-1.4 1.3 8.63 8.63 0 0 1 1.4-1.3c6.4-5.6 16.3.9 22.3-5.9zM867 254.7c.4-1.3.9-2.3 1.4-3.6s.2-2.7 1.6-3.7c2.1-1.4 1.6-2.5-.7-3.4-2.1-.8-3.5-.9-4.4.7-1.6 3.9-4.6 7.9 2.1 10zm12.1-1.6c-4.1 2.1-6.4 1.4-7.5-1.7-.8.9-2.2 2.1-1.8 2.8 2.7 8-9.7 15.2-1.2 23.6.6.6.3 2.3 2.1 1.9 1.1-.2 2.6-1 1.9-2.3-2.8-4.2 1.4-4.8 3.1-5.7 2.4-1.2 2.4-2 .7-3.5-3.9-3.7-1.1-7.4-.2-11.2.2-.9 1.2-1.6 2.9-3.9zm-4-29.7c-.3-2.3-3.6-2.6-5-2.3-4.5 1.2 1.8 5.1-1.5 7.7-1 .7 1.5.4 2.3.7 2.6-1.5 4.5-3.5 4.2-6.1zm18.5 26.1c.4-3.7-3.2-2.9-5.5-3.6-1.8-.6-1.8 1.6-1.7 3 .4 3 1.8 4.9 5 4.7 2.3 0 2.7-1.5 2.2-4.1zm15.6-6.1c-1.6-4-2.4-10.2-9.7-7.5a3.5 3.5 0 0 1-2.9-1.5c-2.3-4-2.1-4.1-6.3-2.5 4.4 7.4 18.5 8.2 13.9 21.4 5.9-2.3 6.5-6.4 5-9.9zm16.4 12.9c3.2.3 1.5-2 1.8-3.7 1.8-8.5.2-16-5.9-23.3a14.79 14.79 0 0 0-1.1 6.2c0 5.7 1.7 11.3 2.4 16.9.2.9-2.7 2-1.6 3.9 1.3 2.4 2.7-.1 4.4 0zm87.8 372.6c-4-5.6-6.9 4.3-11 .9 3 3.9 6.3 4.9 10 1.9.5-.6 1.3-2.4 1-2.8zm-67-365.5c-2.8.1-2.4-4.7-5.6-3.8s-2 4-2.5 6.3c2.4.2-.4 5.1 4.6 3.8 1.4-1.6 3.4-3.2 3.5-6.3zm-.9-18.7c-1.5 4.4-3.4 7.4-7.7 7.6-1.9.2-2.6.3-2.1 2.4.3 1.4 1.1 1.7 2.5 1.8 6.2-.1 9.4-5.1 7.3-11.8zm-1-10.3c3.1-8-5.8-2.6-6.3-6.1-1 .9-2 1.9-2.8 2.5 6 1.1 4.1 8.2 8.2 10.7 1.1.7 1.6-.1 2-.7s1.6-1.5-.2-1.9c-3.6-.6-1.4-3.4-.9-4.5zm-7.5-44.2c-.9 9 5.8 15.9 7.5 25.1 5.4-5.9.8-21.1-7.5-25.1zm27.2 8.8c-5.6-1.7-.2-7.6-3.8-10.2-1.8-6.3-1.8-6.1-9.8-3.6-2.5.8-5.3.7-3.4 4.3 1.5 2.5-1.8 8.3 4.9 7.5 4-.4 6.6.7 6.6 5.3.2 1.9 1.2 3.3 3.3 3.3a3.78 3.78 0 0 0 1.2-1c-2.8-2.2-1.3-3.9 1-5.6zm9.7 8.9c-.3-1.6-1.7-2.3-3.2-2.7-.3-.2-1.6 1.5-1.3 1.7 3.3 6.7-.9 15.9 8.2 21.9.8-7.8-2.5-14.3-3.7-20.9zm57-19.3c-6.1-5.1-14.5-8.8-14.3-18.9.1-.5-3.5-1.7-3.5-1.7-4.6 8.6-3.6-2.3-6.7-1.2 4.8 5.9-1.8 7.1-4.7 10.3 4.6-1.7 7.3-.6 8 4 .5 3.5 1.5 6.8 2.3 10.7 5.4-3.8-.9-8.9 3.4-11.9 2.2 7.9 10.5 6.6 15.5 11 0-1.1.3-2.1 0-2.3zm7.1-22.7c-3.3.2-7.4 2.3-10.4-1.8 7.5-4-3.6-5.7-1.2-8.8.9-1.2-.3-4.9 3.1-3.3 1.1.5 1.7 2.5 2.9.3 1-1.9-1-2.6-2-2.7-3.8-.1-8 .5-12.2-4.6 1.3 7.4.1 12.9 3.5 16.4 3.5 4.3 1.7 9.2 3.4 13.6 3.6 9.2 6.9 0 10.3.4 2.2.5 2.2-2.1 2.1-2.4-6.7-2.7 2.8-4 .5-7.1zm101 437.7h-.2c-.9-2-2-3.9-2.9-5.8-.7-2-.9-4.3-3.8-3.2-3.3 1.4-1.5 4.1-.7 5.9 1.5 2.8 3.7 4.9 7.4 3.2v.2zM1060 155a7.4 7.4 0 0 0 1.9 5.6c3.3 4.1 1.2 10.2 4.7 14.3-2.4 1.2-2.7 3-1.1 5a2.44 2.44 0 0 0 2.2.2c1.6-1.5 3.8-3.4 3.3-5.9-2-7.3-2.3-15.6-11-19.2zm4.6-13.4c-1-3.6-2.4 1-4.3.2-2.7-1.3-2.1-4.1-3.4-5.7-.7-.8-3.1.2-4.7.3 6.4 3.2 4.3 8.9 5.5 15.8 2.6-4.9 8.2-5.4 6.9-10.6zm34.4 23c-3-.6-4.7 10.5-8.2.8-.4-.9-1.3 1.7-2.1 2.6-2.6 3.4-5.4 8.1-10.8 5.2-1.9-1-2.8-1.8-4 .1-.5.8-.9 2.6-.6 3 .9 1 2.6 2.3 3.5 1.9 3.9-1.8 9.4 1.4 13.4-3.3-.3-.2.2 0 .7.1 8.1 2.1 8.7 1.5 9.3-7.7.5-1.6 2.8-2.1-1.2-2.7zm9.7-15c1.1.5 3.2.3 3-.6-1.2-5.7 5.8-11 .6-18.3-1.8 6.1-2.9 10.9-4.6 15.5-.7 1.9-.6 2.6 1 3.4zm98.9 428.9c-2.7 4.2-8.3.3-8.7 6.4-.2 1.5 0 2.4 1.3 1.9 3.2-1.2 9 .7 7.4-8.3zm7.5-10.4a60.74 60.74 0 0 1-7 2.9c-2.2.7-4.6 1-6.8 1.5-1.1.2-2.3.5-2.2 2.1a3.29 3.29 0 0 0 .8 2.5c2.8 2 13.2-3.8 15.2-9zm-89.1-410c-4.9 7.2-9.2 8.4-16.8 4-.6-.4-1.1-2.9-1.8-.8-1.3 3.9-3 8.3-.5 12.3 1 1.5 3.5 2.8 5.1 2.5 3.2-.5 1.1-3.6 1.7-5.4.4-1.3-3.1-3.4.6-3.7 4.9-.3 9.6 1.5 14.5 1 2.6-.3.7 4.6 3.2 6.2 7.2-9.3-11-7.4-6-16.1zM1247.2 562c-8.8-2.2-12.8 2.7-16.1 9.4 5.5 3.4 7 .4 7.1-4.6 3.3.7 3.5 5.2 7.4 5.6.2-3.9-1.4-7.9 1.6-10.4zm-79.1-405.7c-5.7-1.9-6.8 4.1-11 6.6 8.6 3.2 9.2 2.9 11-6.6zm4-21.6c1.9-1.3 4.5-3.6 2.9-6.4-1.9-3.4-3.3.2-5.1.8-3.6 1-8 1.7-9-4.3-7.4 9 4.3 5.8 5.4 9.6.9 3 4.4 1.3 5.8.3zm116.8 434.9a3.69 3.69 0 0 0-2.4-3.3 2.74 2.74 0 0 0-4.2 1.4c-1.5 4.1-3.6 4.3-7 2-.6-.4-1.6.1-2.5.5-2.7.8 4.4 2.6-.2 3.4-2.8.4-3.9-1.6-5.5-3.4-1.2-1.2-2.7-.2-3.9.8 2.5-4.1 1.4-8.2-.6-13-2.1 3.8-7.8 6.2-.9 10.2.8.3 1.1 1.7 1.5 2.5l.1.5c-1.8 1.6-3.2 4.2-2.1 5.7 1.1 1.7 3.6.2 5.7-.3l18.7-4c1.5-.5 3.7-.2 3.3-3zm-65.7-410.2c-1.3-6.2-6.7-2.4-10.6-5.1.9 7.4 6.6 5 9.6 6.8 1 .5 1.2-.8 1-1.7zm55.1-1.9c.7-3.3 1.9-6.6-1.3-9.5-.9-.8-1.7-3.5-2.9-1.1-2 5-6.8 2.6-10.2 4.6 1.6 6.6 8.6 3.6 12 7.2.8 1 2 .3 2.4-1.2zm80.5 350.2c-3.4 4.3-5.8 8.4-.4 12.5 2-4 10-7.6.4-12.5zM1298.7 104c.3-2.9 4.6-4.3 2.5-8.4-2.5-5-5.6-1.7-7.7-.5a19.25 19.25 0 0 1-11.8 1.6c-1.2-.2-2.7-3.5-3.6 0-.4 1.5-2.2 4.1 0 4.5 5 1.1 2.5 6.1 5.3 8.2 2-.9 4.9-2.9 5.9-2.5 4.4 2.9 5.5-4.2 9.4-2.9zm18.2 14c-.8-1.7-2.5-.7-3.8-.9-3.6-.2-7.3-.8-10.8 4 4.2-.4 6.9 0 8.5 3 .7 1.3 2.8.8 3.8-.1 1.9-1.4-.5-4.7 2.3-6zm19.2 7.1c.9-1.6 1.7-3.5 2.7-5.1-4.3.9-2.4-6.7-7.3-6.1-2.6.3-4.4 1.9-4 4.7.4 4.9 6.1 3.7 8.6 6.5zm108.5 432.8c-3.7.5-6.4.4-6.7-3.6-.7-8.9-5.1-8.4-10.8-3.7 6.3 2.5 5.6 2.9 6.3 3.7 3.6 6.6-4.8 2-4.8 5.3.4 4.2 5.7 2.1 7.1 5.2v.2c.8-4.9 6.5-2.7 8.9-7.1zm-5.7-28.8c-4.1 2.1-8.4 3-10.9 7.1 2.9-3.3 11.3 2.6 10.9-7.1zm-30.1-427.8c.1 1.4-.4 3.7.2 4.3 2.3 1.9 2.1 7.7 6.1 6.1 3.6-1.2.1-4.1-.8-6-.7-1.3.3-2 1.3-2.7 5.9-3.6-2.2-5.7-1.3-9.3.3-1-2.8-.6-4.2.4-2.9 2.1-4.5 4.3-1.3 7.2zm-13.2 8.6a21.59 21.59 0 0 1 7.9-6.5c2.8-1.3 2.1-4.5 1.4-7-.1-.7-1.1-3.1-1.5-1.6-1.4 4.8-7.7.9-6.4 2.3 4.1 5.1-3.7 7.7-1.4 12.8zm-32.2-33.7c6.4-1.4 5.6-6 6.5-9.7a2.61 2.61 0 0 1 2.8-2.5 1.71 1.71 0 0 1 .9.8c-3.2 9.5 4.5 3.3 6 3.5 5.4.8 5.5.3 5.6-1.9-.2-4.3-2.7-5.9-6.7-5.5-2.8.4-6.5 2.1-8.4 1.1-7.3-3.9-7.5 1.6-8.1 5.5-.8 2.7.8 5.7 1.4 8.7zm-3.8 14.6c5.6 6 4.1 11.3 5.3 16 .2.9-.2 2.4 1.2 2.4 1.2 0 3-.6 3.5-1.5 3.4-5.4-.4-13.2-10-16.9zm17.9 33.9a4.8 4.8 0 0 0 3.3.7c1.9.1 1.1-1.4.9-2.3-.7-6.5 3-10.4 7.8-13.8 2.7-1.8 4.5-4.8 3.3-6.9-1.8-3.9-5.8-1.6-7.7-.3-3.1 2.3-5.4 4-8.9-1.7 2.3 9.8 1.3 9.3-6.4 11.6-4.2 1.4-11.3-.2-13.7 7.4 11.6-2.9 13.4-2.3 21.4 5.3zm75.7 367c-.4-2.1 1.5-5.3-2.8-4.2-2.9.9-4.8 2.2-3.9 5.4.7 3.4 3.3 7.6 5.8 7.1 4.7-1.5.2-5.8.9-8.3zm52 33.5c-3.8-1.1-9.2-.7-10 2.1-1.3 5-4.4 5.2-8.1 5.5-6.1-1.8-8.1-.9-12.9 4.4-.6.6-2.6 1.3-3.1.9-5.2-4.1-8.5 4.7-13.7 1.7-1.9-1-3.5 1.5-3.2 2.8.3 1.6 2.2 2.4 4.1 1.3 9.2-4.8 20.1-4.3 29-9.5 4.5 0 9.3-3.2 13.7.4a.25.25 0 0 0 .3.2c-1.5.8-2.9 1.1-2.1 3.5 1.3 4 2.3 8.3-4.4 9.8 12.1-1.6 13.4-4.5 6.2-13.5h.2l-.3-.2c3.4-.7 2.1-4.7 4.9-6.1 2.8-.6.9-2.6-.6-3.3zm-.4-18.5c-.8-1.5-.3-4.9-3.5-2.8-1.7 1.1-2.3 2.9-.3 5.1 3.1 3.4 3.9 7.3.6 11.6 6.9-3.2 6.4-8.1 3.2-13.9zm4 22.3c4.7-1.2 8.6-2.3 12.6-3.4-4.9-7.5-4.9-7.5-12.6 3.4zm43.5 1.5c-3.5 1.5-.4 4.9-2.3 7.2 4.7-.5 9.4-.6 10.7-5.8a3 3 0 0 0-2.3-3.7 3.3 3.3 0 0 0-1.4 0v-.2c1.2-3.1 4-6.1.3-8.9-1.1-.7-4.8-.2-5.1 2-.1 2.9-.2 6.7 4.6 6.9l-.2.3h.2c-.3 2-.5 4.2-.7 5.6-4.7 2.3-.5-4.8-3.8-3.4zm-17.8-6.3c.6 1.5-1.6 2.7-3.5 3.8-6.1 3.9-13.8 3.6-18.2 6.5-2.5 4.1 9.5-.1 1.6 6.3 0 0 .7 1 1.1 1.7 3.2-3.1 8.3 4.4 11-2.3 1.4-3.6 11.8-.4 7.8-9.3a42.35 42.35 0 0 1 5.8-1.7c3.9-.8 7.8-1.4 9.9-7.1-3.5 1.5-5.6 1.9-8.1 3.6-3.4 2.1-4.3-4.3-.4-8.7-3.8.8-10.3-.9-7 7.2zm17-31.5c-5-.9-14.1 5.4-12.4-6.7a3.23 3.23 0 0 0-2.1-.8c-1.1.2-3 .6-2 1.9 4.6 7.1-3.4 4.3-5.3 6.4 7 6.2 15.5 5.8 21.8-.8zm-88.8-370.2c3.5 2.1 5.6-1.9 7.9-5.3-4.2 4.9-4.5-1.9-6.5-1.2-3.7 1.3-4.7 4.6-1.4 6.5zm9.4-19.8c-1-3.4-2.3-5 2.8-4.7 1.5.2 4.2-2.6 2.7-5.3-.4-.6.7-2.5-2.4-2.1-8.5.6-8.9 11-16.2 12.3-.2 0-.4.6-.6.6-3.3 3.3-4.9 1.8-8.4-1.5-4.4-4.1 1.5-8.7-1.9-12.5-.9-1-1.5-2.8-2.7-2.8-1.5-.2-1.6 1.3-2 2.8-1.4 4.8-2 5-6.5 3.3-.8-.3-2-2.7-1.9-1.3 0 5.7-4.6 5.3-8.9 6.4 5.1 4.9 14.3-1.4 15.5 7.9-1.8.4-3.9 2.7-6.3-.6-1.4-2.1-3.7-3-6-1.1-1.6 1.3-.2 2.7 1 3.6 1.5 1.4.2 4.5 5.2 3 10.5-3.2 21.8-3 32.8-3.9 4.6-.3 4.5-1.9 3.8-4.1zm93.5 380.4c-2.7-4.7-4.1 2.1-6.9 1.2-1.5-.4-3.5.5-5.3.9l.2 1.1c1.5.2 2.9.1 4.8.2-1.5 2-4.9 1.8-4.5 4.8 2.1 1.9 6.5-.9 7.8 3.1a.28.28 0 0 1-.2.3l.3.2-.1-.5a9.19 9.19 0 0 1 1.6-2.7c4-2.1 4.2-5.5 2.3-8.6zm58.1-13.1c0 .2 2.8-.4 2.9-.9 1.5-8.7 8.4-5.1 13.3-5.7 3.7-.3 7.1-.1 8.6-4.2.8-2.1.6-6.3-.5-5.6-3.8 2.2-8.7-5.1-11.3 1.9-.9 2.6-3.2 3.1-4.7 1.2-2.1-2.2-3.1-2.4-3.9.8-.8 4-3.5 3.8-6.6 2.8-1.5-.4-3-2-4.6-.2-1.9 2.3-6.1 3.7-8.7 3-4.3-1-4.5-1-5.2 3.7a3.94 3.94 0 0 1-3.6 3.4c-5.1.6-10.8 2.1-12.2-6.7-4.2 4.9 1.7 12.3-6.8 13.9 7-.8 14.3-4.7 19.4-3.9 6.1.8 9.1-7.7 14.7-2.9 2.8-5.7 5.9-6.1 9.2-.6zm30.3 0c-1.2-.9-2.7-2.5-3.9-1.3-5.9 5.8-14.4 1.9-20.8 5.6-1.5.8-5.2-3-4.5 2.4.4 4 2.1 4.1 5.5 4.6 4.9.4 19.9-5 22.7-8.9a13.33 13.33 0 0 1 1-2.4zm-10.6-410.7c.5-1.1.9-3.8.6-3.7-9.1-2.4 3.8-2.5.3-4.1-4.9.3-11.8-2.7-12.3 7.4 2.9-.9 5.7-1.2 8.3.9a2.42 2.42 0 0 0 3.1-.5zm48.5 64.1c6.2 1.3 12.1 1 16.7-5.5-6.2 2.1-11.5 3.9-16.7 5.5zm-13.6 21.5a3 3 0 0 0 1.3-.5c4.3-.9 9.5 3.2 13-3-5.4-3.9-8.8 1.2-13 3a2 2 0 0 0-1.3.5zm32.8 56.5c-4.7.5-9.8-.3-13.9 3.2 4.3 5.8 10.9-3.7 15.5 2.2-2 1.9-3.9 1.8-6 1-2.3-.7-3.1 1.1-3.4 2.9-.3 1-.2 2.7.5 3.2a4 4 0 0 0 5.4-.4c1.7-2 7-1.7 5-6.6-.4-1.8 1.1-5.9-3.1-5.5zm49.2 201.1c-.7-.1-2.2 2.1-1.4 3.6.7 1.3 1.8.8 2.9.1 7.3-3.9 16.2-3.4 23.9-8.9-3.3-1-5.2-2-8.4-2.3-7.5-.5-9.8 8.8-17 7.5zm56.3 9a3.28 3.28 0 0 0 1.9-1.3 8 8 0 0 1-1.9 1.3zm-79.8-202.7a6.36 6.36 0 0 0 1.8-.6 4.78 4.78 0 0 0-1.8.6zM651.1 289.2c-4.8 1 3.5 7.4-2.9 8.7.4 1.8 1.6 3.2 3.6 2.3 2.1-1.2 3.9-3 7.3-6.1-7.6 2.9-4.2-5.7-8-4.9zm-287.6-1.8c.1 1.4 1.6 4 3.6 3.5 3.9-.8 7.1-3.7 11.3-3.8 2.1-.2 2.1-3.8.3-6.5-3.1-4.6-2.5.5-3.8 1.1a36.59 36.59 0 0 1-6.1 2.7c-3.2-2.5-5.2-.6-5.3 3z" fill="#16b9c5" opacity=".15" style="isolation:isolate"/>
</svg>
